<svg width="17" height="98" viewBox="0 0 71 98" fill="none" xmlns="http://www.w3.org/2000/svg">
<path fill-rule="evenodd" clip-rule="evenodd" d="M35.5 87C55.1061 87 71 71.1061 71 51.5C71 31.8939 55.1061 16 35.5 16C15.8939 16 0 31.8939 0 51.5C0 71.1061 15.8939 87 35.5 87ZM36 78C50.9117 78 63 65.9117 63 51C63 36.0883 50.9117 24 36 24C21.0883 24 9 36.0883 9 51C9 65.9117 21.0883 78 36 78Z" fill="#FF6347"/>
<path d="M31.01 76V40.23H40.25V76H31.01ZM31.01 27H40.25V36.45H31.01V27Z" fill="#FF6347"/>
</svg>
