<svg width="42" height="42" viewBox="0 0 42 42" fill="none" xmlns="http://www.w3.org/2000/svg">
<path d="M10.4383 5.48852C9.25138 5.80654 8.16912 6.43139 7.30025 7.30025C6.43139 8.16911 5.80654 9.25138 5.48852 10.4383" stroke="#222222" stroke-width="2" stroke-linecap="round"/>
<path d="M31.5617 5.48852C32.7486 5.80654 33.8309 6.43139 34.6997 7.30025C35.5686 8.16911 36.1935 9.25138 36.5115 10.4383" stroke="#222222" stroke-width="2" stroke-linecap="round"/>
<path fill-rule="evenodd" clip-rule="evenodd" d="M21 35C28.732 35 35 28.732 35 21C35 13.268 28.732 7 21 7C13.268 7 7 13.268 7 21C7 28.732 13.268 35 21 35ZM22 14C22 13.4477 21.5523 13 21 13C20.4477 13 20 13.4477 20 14V20.75C20 21.4404 20.5596 22 21.25 22H26.25C26.8023 22 27.25 21.5523 27.25 21C27.25 20.4477 26.8023 20 26.25 20H22V14Z" fill="#222222"/>
</svg>
