<svg width="114" height="35" viewBox="0 0 114 35" fill="none" xmlns="http://www.w3.org/2000/svg">
<path d="M23.48 29.1C23.48 30 22.97 30.45 22.01 30.45H2.3C1.46 30.45 1.04 30.15 1.04 29.49V20.91C1.04 20.19 1.49 19.83 2.39 19.83H4.37C5.21 19.83 5.66 20.19 5.66 20.91V21.75H18.89V20.91C18.89 20.19 19.28 19.83 20.12 19.83H22.16C23.03 19.83 23.48 20.16 23.48 20.76V29.1ZM10.4 18.18C10.4 18.9 10.01 19.29 9.23 19.29H6.53C5.75 19.29 5.36 18.93 5.36 18.18V17.34H1.97C1.25 17.34 0.92 16.98 0.92 16.2V14.46C0.92 13.74 1.28 13.38 2 13.38H18.89V1.56C18.89 0.869998 19.28 0.51 20.06 0.51H22.34C23.09 0.51 23.48 0.869998 23.48 1.56V17.88C23.48 18.6 23.09 18.96 22.31 18.96H20.12C19.28 18.96 18.89 18.6 18.89 17.82V17.34H10.4V18.18ZM2.03 12.21C1.25 12.21 0.89 11.85 0.98 11.13C1.34 7.44 2.06 4.32 3.14 1.8C3.47 0.959999 4.1 0.51 5 0.51H6.32C7.46 0.51 7.91 0.959999 7.61 1.83C14.09 2.31 17.18 5.4 16.88 11.1C16.88 11.82 16.49 12.21 15.74 12.21H13.55C12.71 12.21 12.29 11.85 12.29 11.1C12.5 7.89 10.55 6.12 6.47 5.82C5.99 6.96 5.6 8.76 5.3 11.19C5.24 11.88 4.79 12.21 3.95 12.21H2.03ZM18.89 25.2H5.66V26.67H18.89V25.2ZM32.2379 6.15C32.2379 5.7 31.9379 5.46 31.3979 5.46H26.4479C25.6679 5.46 25.2779 5.1 25.2779 4.35V2.25C25.2779 1.53 25.6679 1.14 26.4479 1.14H36.0179C36.8579 1.14 37.2779 1.68 37.2779 2.73C37.2779 5.01 37.1879 7.02 37.0679 8.76H38.9279V1.59C38.9279 0.899998 39.3179 0.539999 40.0979 0.539999H42.1979C42.9779 0.539999 43.3679 0.899998 43.3679 1.59V29.13C43.3679 30.03 42.9779 30.45 42.1979 30.45H40.0979C39.3179 30.45 38.9279 30.03 38.9279 29.13V13.44H36.5279C35.4179 21.48 33.6479 26.73 31.2179 29.16C30.7079 29.67 29.8979 29.91 28.8179 29.91H27.1379C26.5379 29.91 26.1479 29.73 25.9979 29.34C25.8179 28.95 26.0579 28.47 26.6579 27.93C30.4979 23.76 32.3579 16.5 32.2379 6.15ZM44.6279 1.59C44.6279 0.899998 45.0179 0.539999 45.7979 0.539999H47.8979C48.6479 0.539999 49.0379 0.899998 49.0379 1.59V29.13C49.0379 30.03 48.6479 30.45 47.8979 30.45H45.7979C45.0179 30.45 44.6279 30.03 44.6279 29.13V1.59ZM53.1896 33.72C52.5296 34.08 51.9596 33.84 51.5096 33C51.3296 32.73 51.5096 32.34 51.9896 31.86C52.4696 31.38 52.7996 30.99 52.9796 30.63C53.1596 30.3 53.0996 30.12 52.8296 30.12C51.3296 30.06 50.6096 29.19 50.6096 27.51C50.6096 25.77 51.6596 24.87 53.8196 24.87C55.7396 24.87 56.6096 26.19 56.4896 28.83C56.3396 30.99 55.2296 32.61 53.1896 33.72ZM86.5695 29.46C86.5695 30.12 86.1795 30.45 85.4295 30.45H82.7295C82.0695 30.45 81.7395 30.15 81.7395 29.52V27.45C76.7595 29.04 71.4795 29.82 65.8995 29.82C65.1195 29.82 64.7595 29.49 64.7595 28.77V2.31C64.7595 1.53 65.1495 1.14 65.9595 1.14H78.4395C79.1595 1.14 79.5195 1.5 79.5195 2.19V4.32C79.5195 5.13 79.1295 5.52 78.3495 5.52H69.5595V9.45H76.5195C77.4795 9.45 77.9895 9.9 77.9895 10.77V12.54C77.9895 13.41 77.5095 13.83 76.6095 13.83H69.5595V25.35C74.2395 25.08 78.3195 24.33 81.7695 23.1V1.59C81.7695 0.869998 82.0995 0.51 82.7895 0.51H85.5495C86.2095 0.51 86.5695 0.869998 86.5695 1.53V29.46ZM101.351 0.749998C101.951 0.749998 102.221 1.2 102.161 2.1C102.071 3.48 101.921 4.74 101.681 5.94H103.151V1.59C103.151 0.899998 103.511 0.539999 104.291 0.539999H106.421C107.171 0.539999 107.561 0.899998 107.561 1.59V16.44C107.561 17.16 107.171 17.52 106.391 17.52H104.321C103.541 17.52 103.151 17.16 103.151 16.38V10.62H100.181C99.1613 12.9 97.7813 14.85 95.9813 16.41C95.1113 17.13 94.1813 17.46 93.1613 17.46H91.0613C90.4013 17.46 89.9813 17.31 89.8613 17.01C89.7413 16.71 89.9213 16.32 90.4013 15.87C91.9313 14.55 93.1913 13.23 94.1513 11.91H89.5313C88.8713 11.91 88.5413 11.58 88.5413 10.86V8.76C88.5413 8.04 88.8713 7.68 89.5313 7.68H96.1913C96.3713 7.05 96.4613 6.42 96.4913 5.79C96.5513 5.28 96.3413 5.01 95.8613 5.01H89.5613C88.9013 5.01 88.5713 4.68 88.5713 3.96V1.83C88.5713 1.11 88.9013 0.749998 89.5613 0.749998H101.351ZM108.761 30.45C108.131 30.45 107.831 30.12 107.891 29.46C108.581 25.44 105.851 23.52 99.7013 23.7C98.5313 26.28 97.0613 28.35 95.2613 29.94C94.8413 30.3 94.4513 30.45 94.0613 30.45H89.9813C89.6813 30.45 89.4713 30.39 89.3813 30.27C89.2913 30.15 89.3513 29.97 89.5613 29.76C93.2513 26.04 95.3213 22.65 95.7413 19.59C95.7413 18.99 96.1013 18.66 96.8213 18.66H99.8813C100.421 18.66 100.691 18.93 100.631 19.41L100.511 19.95C109.601 19.89 113.801 23.07 113.111 29.52C113.111 30.15 112.841 30.45 112.301 30.45H108.761ZM108.551 1.59C108.551 0.899998 108.911 0.539999 109.691 0.539999H111.821C112.601 0.539999 113.021 0.899998 113.021 1.59V16.44C113.021 17.16 112.601 17.52 111.791 17.52H109.721C108.941 17.52 108.551 17.16 108.551 16.38V1.59Z" fill="#472FD2"/>
</svg>
