<svg width="200" height="315" viewBox="0 0 200 315" fill="none" xmlns="http://www.w3.org/2000/svg">
<rect width="200" height="315" rx="12" fill="#353B72"/>
<rect x="107" y="87.3479" width="46.3478" height="30.4571" rx="8" transform="rotate(-90 107 87.3479)" fill="url(#paint0_linear_73_1547)"/>
<mask id="path-3-inside-1_73_1547" fill="white">
<path d="M107 53.5801H137.457V74.7677H107V53.5801Z"/>
</mask>
<path d="M107 55.5801H137.457V51.5801H107V55.5801ZM137.457 72.7677H107V76.7677H137.457V72.7677Z" fill="#FFBE17" mask="url(#path-3-inside-1_73_1547)"/>
<mask id="path-5-inside-2_73_1547" fill="white">
<path d="M116.562 76.1428C112.144 76.1428 108.562 72.5611 108.562 68.1428V60.7142C108.562 56.296 112.144 52.7143 116.562 52.7143H127.114C131.533 52.7143 135.114 56.296 135.114 60.7143V68.1428C135.114 72.5611 131.533 76.1428 127.114 76.1428H116.562Z"/>
</mask>
<path d="M110.562 68.1428V60.7142H106.562V68.1428H110.562ZM116.562 54.7143H127.114V50.7143H116.562V54.7143ZM133.114 60.7143V68.1428H137.114V60.7143H133.114ZM127.114 74.1428H116.562V78.1428H127.114V74.1428ZM133.114 68.1428C133.114 71.4565 130.428 74.1428 127.114 74.1428V78.1428C132.637 78.1428 137.114 73.6657 137.114 68.1428H133.114ZM127.114 54.7143C130.428 54.7143 133.114 57.4005 133.114 60.7143H137.114C137.114 55.1914 132.637 50.7143 127.114 50.7143V54.7143ZM110.562 60.7142C110.562 57.4005 113.248 54.7143 116.562 54.7143V50.7143C111.039 50.7143 106.562 55.1914 106.562 60.7142H110.562ZM106.562 68.1428C106.562 73.6657 111.039 78.1428 116.562 78.1428V74.1428C113.248 74.1428 110.562 71.4565 110.562 68.1428H106.562Z" fill="#FFBE17" mask="url(#path-5-inside-2_73_1547)"/>
<mask id="path-7-inside-3_73_1547" fill="white">
<path d="M117.594 87.3479V41.0001H126.863V87.3479H117.594Z"/>
</mask>
<path d="M119.594 87.3479V41.0001H115.594V87.3479H119.594ZM124.863 41.0001V87.3479H128.863V41.0001H124.863Z" fill="#FFBE17" mask="url(#path-7-inside-3_73_1547)"/>
<path d="M128 27L122 21L116 27" stroke="#33363F" stroke-width="2"/>
<path d="M24.3242 287.453C24.2305 286.973 23.832 286.668 23.1992 286.668C22.5547 286.668 22.0859 286.984 22.0977 287.418C22.0859 287.746 22.3555 287.992 23 288.145L24.0781 288.367C25.2852 288.637 25.8594 289.188 25.8711 290.102C25.8594 291.297 24.8164 292.129 23.1523 292.129C21.5352 292.129 20.5742 291.402 20.4219 290.184H21.9453C22.0391 290.723 22.4609 290.992 23.1523 290.992C23.8672 290.992 24.3477 290.699 24.3477 290.23C24.3477 289.867 24.0547 289.633 23.4219 289.492L22.4023 289.27C21.2188 289.035 20.6094 288.414 20.6094 287.5C20.6094 286.328 21.6172 285.555 23.1758 285.555C24.6992 285.555 25.6367 286.293 25.7422 287.453H24.3242ZM26.4078 292V285.637H27.9078V292H26.4078ZM27.1695 284.734C26.7008 284.734 26.3023 284.371 26.3023 283.914C26.3023 283.469 26.7008 283.105 27.1695 283.105C27.65 283.105 28.0367 283.469 28.0367 283.914C28.0367 284.371 27.65 284.734 27.1695 284.734ZM31.5148 294.52C29.8273 294.52 28.7609 293.77 28.6555 292.574H30.1438C30.2492 293.125 30.7766 293.395 31.5383 293.395C32.4289 293.395 33.0148 293.008 33.0148 292.07V290.852H32.9445C32.7102 291.32 32.2063 291.906 31.1047 291.906C29.6398 291.906 28.4797 290.84 28.4797 288.766C28.4797 286.668 29.6398 285.555 31.1164 285.555C32.2414 285.555 32.7102 286.223 32.9445 286.68H33.0148V285.637H34.4914V292.105C34.4914 293.734 33.2375 294.52 31.5148 294.52ZM31.5148 290.734C32.4758 290.734 33.0266 290.008 33.0266 288.789C33.0266 287.582 32.4875 286.773 31.5148 286.773C30.5188 286.773 30.0031 287.629 30.0031 288.789C30.0031 289.961 30.5305 290.734 31.5148 290.734ZM36.8211 288.273V292H35.3211V285.637H36.7508V286.715H36.8328C37.1258 286 37.7703 285.555 38.7195 285.555C40.0437 285.555 40.9109 286.422 40.8992 287.945V292H39.4109V288.18C39.4109 287.324 38.9539 286.82 38.1687 286.82C37.3719 286.82 36.8211 287.348 36.8211 288.273ZM41.4359 290.207C41.4359 288.777 42.6195 288.355 43.8031 288.285C44.2426 288.256 45.1566 288.203 45.432 288.191V287.688C45.432 287.055 45.0219 286.691 44.2836 286.691C43.6156 286.691 43.2055 286.996 43.0883 287.453H41.6469C41.7523 286.375 42.725 285.555 44.3188 285.555C45.5258 285.555 46.9203 286.047 46.9203 287.746V292H45.4906V291.121H45.4438C45.1625 291.66 44.5648 292.129 43.5688 292.129C42.35 292.129 41.4359 291.461 41.4359 290.207ZM42.8773 290.195C42.8773 290.746 43.3227 291.027 43.9555 291.027C44.8578 291.027 45.4438 290.43 45.4438 289.715V289.188L44.0375 289.281C43.3227 289.34 42.8773 289.633 42.8773 290.195ZM50.9023 285.637V286.785H49.6484V290.09C49.6484 290.699 49.9531 290.828 50.3281 290.828C50.5039 290.828 50.7969 290.816 50.9844 290.805V292.023C50.8086 292.059 50.5156 292.082 50.1406 292.082C49.0156 292.082 48.1484 291.531 48.1602 290.336V286.785H47.2461V285.637H48.1602V284.113H49.6484V285.637H50.9023ZM55.5172 289.328V285.637H57.0055V292H55.5641V290.875H55.4937C55.2008 291.578 54.5328 292.082 53.5836 292.082C52.3297 292.082 51.4625 291.215 51.4508 289.691V285.637H52.9508V289.457C52.9508 290.266 53.4312 290.781 54.1578 290.781C54.8141 290.781 55.5172 290.301 55.5172 289.328ZM57.8352 292V285.637H59.2883V286.691H59.3586C59.5812 285.965 60.2023 285.543 60.9289 285.543C61.093 285.543 61.3273 285.555 61.468 285.578V286.961C61.3391 286.914 61.0227 286.867 60.7766 286.867C59.9445 286.867 59.3352 287.441 59.3352 288.25V292H57.8352ZM64.3719 292.129C62.45 292.129 61.2781 290.852 61.2781 288.859C61.2781 286.891 62.4734 285.555 64.2898 285.555C65.8484 285.555 67.1961 286.527 67.1961 288.766V289.234H62.7547C62.7723 290.318 63.4109 290.957 64.3836 290.957C65.0398 290.957 65.4852 290.676 65.6727 290.301H67.1375C66.868 291.402 65.8484 292.129 64.3719 292.129ZM62.7664 288.215H65.7664C65.7547 287.348 65.1805 286.715 64.3133 286.715C63.4109 286.715 62.8133 287.4 62.7664 288.215Z" fill="white"/>
<rect x="20" y="298" width="151" height="1" fill="#D9D9D9"/>
<defs>
<linearGradient id="paint0_linear_73_1547" x1="153.348" y1="102.576" x2="107" y2="102.576" gradientUnits="userSpaceOnUse">
<stop stop-color="#FFEDBE"/>
<stop offset="0.9999" stop-color="#FFD467"/>
</linearGradient>
</defs>
</svg>
