<svg width="315" height="193" viewBox="0 0 315 193" fill="none" xmlns="http://www.w3.org/2000/svg">
<rect x="315" width="193" height="315" rx="12" transform="rotate(90 315 0)" fill="#0058DC"/>
<rect y="27" width="315" height="38" fill="#D9D9D9"/>
<rect x="25" y="87" width="175" height="23" fill="white"/>
<path d="M28.3469 117.364V121H27.761L26.0476 118.523H26.0174V121H25.3587V117.364H25.9482L27.6598 119.842H27.6918V117.364H28.3469ZM29.9759 121.053C29.7096 121.053 29.4788 120.995 29.2835 120.877C29.0882 120.76 28.9366 120.596 28.8289 120.386C28.7224 120.175 28.6691 119.929 28.6691 119.647C28.6691 119.365 28.7224 119.118 28.8289 118.907C28.9366 118.695 29.0882 118.53 29.2835 118.413C29.4788 118.296 29.7096 118.237 29.9759 118.237C30.2423 118.237 30.4731 118.296 30.6684 118.413C30.8637 118.53 31.0146 118.695 31.1212 118.907C31.2289 119.118 31.2828 119.365 31.2828 119.647C31.2828 119.929 31.2289 120.175 31.1212 120.386C31.0146 120.596 30.8637 120.76 30.6684 120.877C30.4731 120.995 30.2423 121.053 29.9759 121.053ZM29.9795 120.538C30.1239 120.538 30.2446 120.499 30.3417 120.419C30.4388 120.339 30.511 120.231 30.5583 120.096C30.6069 119.961 30.6311 119.811 30.6311 119.645C30.6311 119.478 30.6069 119.327 30.5583 119.192C30.511 119.056 30.4388 118.948 30.3417 118.868C30.2446 118.787 30.1239 118.747 29.9795 118.747C29.8315 118.747 29.7084 118.787 29.6102 118.868C29.5131 118.948 29.4403 119.056 29.3918 119.192C29.3444 119.327 29.3208 119.478 29.3208 119.645C29.3208 119.811 29.3444 119.961 29.3918 120.096C29.4403 120.231 29.5131 120.339 29.6102 120.419C29.7084 120.499 29.8315 120.538 29.9795 120.538ZM33.0835 117.364L34.0298 120.226H34.0671L35.0117 117.364H35.7362L34.4542 121H33.641L32.3608 117.364H33.0835ZM36.4383 121.055C36.2655 121.055 36.1098 121.024 35.9713 120.963C35.834 120.9 35.7251 120.808 35.6446 120.686C35.5653 120.564 35.5257 120.413 35.5257 120.235C35.5257 120.081 35.5541 119.954 35.6109 119.853C35.6677 119.752 35.7452 119.672 35.8435 119.612C35.9417 119.551 36.0524 119.506 36.1755 119.475C36.2998 119.443 36.4282 119.42 36.5608 119.406C36.7206 119.389 36.8502 119.374 36.9497 119.361C37.0491 119.347 37.1213 119.326 37.1663 119.297C37.2124 119.268 37.2355 119.222 37.2355 119.161V119.15C37.2355 119.016 37.1959 118.913 37.1166 118.839C37.0373 118.766 36.923 118.729 36.7739 118.729C36.6164 118.729 36.4916 118.763 36.3992 118.832C36.3081 118.901 36.2465 118.982 36.2146 119.075L35.6144 118.99C35.6618 118.824 35.7399 118.686 35.8488 118.575C35.9577 118.462 36.0909 118.378 36.2483 118.322C36.4057 118.266 36.5798 118.237 36.7703 118.237C36.9017 118.237 37.0325 118.253 37.1627 118.283C37.2929 118.314 37.4119 118.365 37.5196 118.436C37.6273 118.506 37.7137 118.601 37.7789 118.722C37.8451 118.843 37.8783 118.994 37.8783 119.175V121H37.2604V120.625H37.2391C37.2 120.701 37.145 120.772 37.074 120.838C37.0041 120.904 36.9159 120.956 36.8094 120.996C36.704 121.036 36.5803 121.055 36.4383 121.055ZM36.6052 120.583C36.7342 120.583 36.8461 120.557 36.9408 120.506C37.0355 120.454 37.1083 120.386 37.1592 120.3C37.2113 120.215 37.2373 120.122 37.2373 120.022V119.7C37.2172 119.717 37.1829 119.732 37.1343 119.746C37.087 119.761 37.0337 119.773 36.9745 119.784C36.9153 119.794 36.8567 119.804 36.7987 119.812C36.7407 119.82 36.6904 119.828 36.6478 119.833C36.5519 119.846 36.4661 119.868 36.3904 119.897C36.3146 119.927 36.2548 119.968 36.211 120.022C36.1672 120.074 36.1453 120.141 36.1453 120.224C36.1453 120.342 36.1885 120.432 36.2749 120.492C36.3614 120.553 36.4714 120.583 36.6052 120.583ZM38.9173 117.364V121H38.2746V117.364H38.9173ZM39.3283 121V118.273H39.9711V121H39.3283ZM39.6515 117.886C39.5497 117.886 39.4621 117.852 39.3887 117.784C39.3153 117.716 39.2786 117.634 39.2786 117.538C39.2786 117.441 39.3153 117.358 39.3887 117.291C39.4621 117.222 39.5497 117.188 39.6515 117.188C39.7544 117.188 39.842 117.222 39.9142 117.291C39.9876 117.358 40.0243 117.441 40.0243 117.538C40.0243 117.634 39.9876 117.716 39.9142 117.784C39.842 117.852 39.7544 117.886 39.6515 117.886ZM41.3941 121.048C41.1798 121.048 40.9881 120.993 40.8188 120.883C40.6495 120.773 40.5158 120.613 40.4175 120.403C40.3193 120.194 40.2702 119.939 40.2702 119.64C40.2702 119.337 40.3199 119.081 40.4193 118.873C40.5199 118.663 40.6555 118.505 40.8259 118.399C40.9964 118.291 41.1863 118.237 41.3959 118.237C41.5557 118.237 41.6871 118.264 41.79 118.319C41.893 118.372 41.9747 118.437 42.0351 118.512C42.0954 118.587 42.1422 118.657 42.1753 118.724H42.202V117.364H42.8465V121H42.2144V120.57H42.1753C42.1422 120.637 42.0943 120.707 42.0315 120.782C41.9688 120.855 41.8859 120.918 41.7829 120.97C41.68 121.022 41.5503 121.048 41.3941 121.048ZM41.5734 120.521C41.7095 120.521 41.8256 120.484 41.9214 120.411C42.0173 120.336 42.0901 120.232 42.1398 120.1C42.1895 119.967 42.2144 119.813 42.2144 119.636C42.2144 119.46 42.1895 119.307 42.1398 119.176C42.0913 119.046 42.0191 118.945 41.9232 118.873C41.8285 118.801 41.7119 118.765 41.5734 118.765C41.4302 118.765 41.3106 118.802 41.2148 118.876C41.1189 118.951 41.0467 119.054 40.9981 119.185C40.9496 119.317 40.9253 119.467 40.9253 119.636C40.9253 119.807 40.9496 119.959 40.9981 120.093C41.0479 120.225 41.1206 120.33 41.2165 120.407C41.3136 120.483 41.4326 120.521 41.5734 120.521ZM46.5923 117.364H47.2511V119.739C47.2511 120 47.1895 120.229 47.0664 120.426C46.9445 120.624 46.7728 120.779 46.5515 120.89C46.3301 121 46.0715 121.055 45.7756 121.055C45.4785 121.055 45.2192 121 44.9979 120.89C44.7765 120.779 44.6049 120.624 44.483 120.426C44.361 120.229 44.3001 120 44.3001 119.739V117.364H44.9588V119.684C44.9588 119.836 44.992 119.971 45.0582 120.089C45.1257 120.208 45.2204 120.3 45.3423 120.368C45.4643 120.434 45.6087 120.467 45.7756 120.467C45.9425 120.467 46.0869 120.434 46.2088 120.368C46.3319 120.3 46.4266 120.208 46.4929 120.089C46.5592 119.971 46.5923 119.836 46.5923 119.684V117.364ZM48.3314 119.402V121H47.6887V118.273H48.303V118.736H48.335C48.3977 118.583 48.4977 118.462 48.635 118.372C48.7735 118.282 48.9446 118.237 49.1482 118.237C49.3364 118.237 49.5003 118.277 49.64 118.358C49.7809 118.438 49.8898 118.555 49.9667 118.708C50.0448 118.86 50.0833 119.046 50.0821 119.263V121H49.4394V119.363C49.4394 119.181 49.392 119.038 49.2973 118.935C49.2038 118.832 49.0742 118.781 48.9085 118.781C48.796 118.781 48.696 118.805 48.6084 118.855C48.522 118.904 48.4539 118.974 48.4042 119.066C48.3557 119.159 48.3314 119.271 48.3314 119.402ZM51.1283 117.364V121H50.4855V117.364H51.1283ZM52.7466 121.053C52.4732 121.053 52.237 120.996 52.0382 120.883C51.8405 120.768 51.6884 120.606 51.5819 120.396C51.4753 120.186 51.4221 119.938 51.4221 119.652C51.4221 119.372 51.4753 119.126 51.5819 118.914C51.6896 118.701 51.8399 118.535 52.0328 118.417C52.2258 118.297 52.4525 118.237 52.7129 118.237C52.881 118.237 53.0396 118.264 53.1887 118.319C53.3391 118.372 53.4717 118.455 53.5865 118.567C53.7025 118.68 53.7936 118.823 53.8599 118.997C53.9262 119.17 53.9593 119.376 53.9593 119.615V119.812H51.7239V119.379H53.3432C53.342 119.256 53.3154 119.146 53.2633 119.05C53.2112 118.953 53.1384 118.877 53.0449 118.821C52.9526 118.766 52.8449 118.738 52.7218 118.738C52.5904 118.738 52.475 118.77 52.3755 118.834C52.2761 118.897 52.1986 118.979 52.1429 119.082C52.0885 119.184 52.0607 119.296 52.0595 119.418V119.796C52.0595 119.955 52.0885 120.091 52.1465 120.205C52.2045 120.317 52.2856 120.403 52.3897 120.464C52.4939 120.523 52.6158 120.553 52.7555 120.553C52.849 120.553 52.9337 120.54 53.0094 120.513C53.0852 120.486 53.1509 120.447 53.2065 120.395C53.2621 120.342 53.3042 120.278 53.3326 120.201L53.9327 120.268C53.8948 120.427 53.8226 120.566 53.7161 120.684C53.6107 120.801 53.4758 120.892 53.3113 120.957C53.1467 121.021 52.9585 121.053 52.7466 121.053ZM56.4086 118.994L55.8227 119.058C55.8061 118.998 55.7771 118.943 55.7357 118.891C55.6955 118.839 55.641 118.797 55.5724 118.765C55.5037 118.733 55.4197 118.717 55.3202 118.717C55.1865 118.717 55.074 118.746 54.9829 118.804C54.8929 118.862 54.8485 118.937 54.8497 119.029C54.8485 119.108 54.8775 119.173 54.9367 119.223C54.9971 119.272 55.0965 119.313 55.235 119.345L55.7002 119.445C55.9582 119.5 56.15 119.588 56.2755 119.709C56.4021 119.83 56.4661 119.988 56.4672 120.183C56.4661 120.355 56.4157 120.506 56.3163 120.638C56.2181 120.768 56.0814 120.87 55.9062 120.943C55.731 121.017 55.5297 121.053 55.3025 121.053C54.9687 121.053 54.7 120.983 54.4964 120.844C54.2928 120.703 54.1714 120.507 54.1324 120.256L54.7591 120.196C54.7876 120.319 54.8479 120.412 54.9403 120.474C55.0326 120.537 55.1527 120.569 55.3007 120.569C55.4534 120.569 55.5759 120.537 55.6682 120.474C55.7617 120.412 55.8085 120.334 55.8085 120.242C55.8085 120.164 55.7783 120.099 55.718 120.048C55.6588 119.997 55.5664 119.958 55.441 119.931L54.9758 119.833C54.7142 119.779 54.5206 119.687 54.3952 119.558C54.2697 119.428 54.2075 119.263 54.2087 119.065C54.2075 118.897 54.2531 118.751 54.3454 118.628C54.439 118.504 54.5686 118.408 54.7343 118.34C54.9012 118.272 55.0935 118.237 55.3113 118.237C55.6309 118.237 55.8825 118.305 56.066 118.441C56.2506 118.578 56.3648 118.762 56.4086 118.994ZM58.9028 118.994L58.3169 119.058C58.3003 118.998 58.2713 118.943 58.2298 118.891C58.1896 118.839 58.1352 118.797 58.0665 118.765C57.9978 118.733 57.9138 118.717 57.8144 118.717C57.6806 118.717 57.5682 118.746 57.477 118.804C57.387 118.862 57.3427 118.937 57.3438 119.029C57.3427 119.108 57.3717 119.173 57.4308 119.223C57.4912 119.272 57.5906 119.313 57.7291 119.345L58.1943 119.445C58.4524 119.5 58.6441 119.588 58.7696 119.709C58.8963 119.83 58.9602 119.988 58.9614 120.183C58.9602 120.355 58.9099 120.506 58.8105 120.638C58.7122 120.768 58.5755 120.87 58.4003 120.943C58.2251 121.017 58.0239 121.053 57.7966 121.053C57.4628 121.053 57.1941 120.983 56.9905 120.844C56.7869 120.703 56.6656 120.507 56.6265 120.256L57.2533 120.196C57.2817 120.319 57.3421 120.412 57.4344 120.474C57.5267 120.537 57.6469 120.569 57.7948 120.569C57.9475 120.569 58.07 120.537 58.1624 120.474C58.2559 120.412 58.3026 120.334 58.3026 120.242C58.3026 120.164 58.2725 120.099 58.2121 120.048C58.1529 119.997 58.0606 119.958 57.9351 119.931L57.4699 119.833C57.2083 119.779 57.0148 119.687 56.8893 119.558C56.7638 119.428 56.7017 119.263 56.7029 119.065C56.7017 118.897 56.7472 118.751 56.8396 118.628C56.9331 118.504 57.0627 118.408 57.2284 118.34C57.3953 118.272 57.5877 118.237 57.8055 118.237C58.1251 118.237 58.3766 118.305 58.5601 118.441C58.7448 118.578 58.859 118.762 58.9028 118.994ZM62.2362 118.363C62.2197 118.208 62.1498 118.087 62.0267 118.001C61.9048 117.915 61.7462 117.871 61.5509 117.871C61.4136 117.871 61.2958 117.892 61.1975 117.934C61.0993 117.975 61.0241 118.031 60.972 118.102C60.92 118.173 60.8933 118.254 60.8921 118.346C60.8921 118.421 60.9093 118.487 60.9436 118.543C60.9791 118.598 61.0271 118.646 61.0874 118.685C61.1478 118.723 61.2147 118.754 61.2881 118.781C61.3615 118.807 61.4355 118.828 61.51 118.846L61.8509 118.931C61.9883 118.963 62.1202 119.007 62.2469 119.061C62.3747 119.116 62.489 119.184 62.5896 119.267C62.6914 119.35 62.7719 119.45 62.8311 119.567C62.8902 119.684 62.9198 119.822 62.9198 119.979C62.9198 120.192 62.8654 120.38 62.7565 120.542C62.6476 120.703 62.4901 120.829 62.2842 120.92C62.0794 121.01 61.8314 121.055 61.5402 121.055C61.2573 121.055 61.0117 121.011 60.8034 120.924C60.5962 120.836 60.434 120.708 60.3169 120.54C60.2008 120.372 60.1381 120.167 60.1286 119.926H60.7767C60.7862 120.052 60.8253 120.158 60.8939 120.242C60.9626 120.326 61.0519 120.389 61.162 120.43C61.2733 120.471 61.3976 120.492 61.5349 120.492C61.6781 120.492 61.8036 120.471 61.9113 120.428C62.0202 120.384 62.1054 120.324 62.167 120.247C62.2285 120.169 62.2599 120.078 62.2611 119.974C62.2599 119.879 62.2321 119.801 62.1776 119.739C62.1232 119.677 62.0468 119.625 61.9486 119.583C61.8515 119.54 61.7379 119.503 61.6077 119.469L61.194 119.363C60.8945 119.286 60.6578 119.169 60.4838 119.013C60.3109 118.856 60.2245 118.647 60.2245 118.386C60.2245 118.172 60.2825 117.984 60.3985 117.824C60.5157 117.663 60.6749 117.538 60.8762 117.449C61.0774 117.359 61.3052 117.314 61.5597 117.314C61.8178 117.314 62.0439 117.359 62.238 117.449C62.4333 117.538 62.5866 117.661 62.6979 117.82C62.8092 117.977 62.8666 118.158 62.8701 118.363H62.2362ZM63.2287 121V118.273H63.8714V121H63.2287ZM63.5518 117.886C63.45 117.886 63.3625 117.852 63.2891 117.784C63.2157 117.716 63.179 117.634 63.179 117.538C63.179 117.441 63.2157 117.358 63.2891 117.291C63.3625 117.222 63.45 117.188 63.5518 117.188C63.6548 117.188 63.7424 117.222 63.8146 117.291C63.888 117.358 63.9247 117.441 63.9247 117.538C63.9247 117.634 63.888 117.716 63.8146 117.784C63.7424 117.852 63.6548 117.886 63.5518 117.886ZM65.4685 122.08C65.2377 122.08 65.0394 122.048 64.8737 121.985C64.7079 121.924 64.5748 121.841 64.4742 121.737C64.3735 121.633 64.3037 121.517 64.2646 121.391L64.8435 121.25C64.8695 121.304 64.9074 121.356 64.9571 121.408C65.0068 121.462 65.0737 121.505 65.1578 121.54C65.243 121.575 65.3501 121.593 65.4791 121.593C65.6614 121.593 65.8124 121.549 65.9319 121.46C66.0515 121.372 66.1112 121.228 66.1112 121.027V120.51H66.0793C66.0461 120.576 65.9976 120.644 65.9337 120.714C65.8709 120.784 65.7875 120.843 65.6833 120.89C65.5803 120.937 65.4507 120.961 65.2945 120.961C65.085 120.961 64.895 120.912 64.7245 120.814C64.5552 120.714 64.4203 120.566 64.3197 120.37C64.2203 120.172 64.1705 119.925 64.1705 119.627C64.1705 119.328 64.2203 119.075 64.3197 118.869C64.4203 118.662 64.5558 118.505 64.7263 118.399C64.8968 118.291 65.0867 118.237 65.2963 118.237C65.4561 118.237 65.5874 118.264 65.6904 118.319C65.7946 118.372 65.8775 118.437 65.939 118.512C66.0006 118.587 66.0473 118.657 66.0793 118.724H66.1148V118.273H66.7487V121.044C66.7487 121.278 66.693 121.471 66.5818 121.623C66.4705 121.776 66.3184 121.89 66.1254 121.966C65.9325 122.042 65.7135 122.08 65.4685 122.08ZM65.4738 120.457C65.6099 120.457 65.7259 120.424 65.8218 120.357C65.9177 120.291 65.9905 120.196 66.0402 120.071C66.0899 119.947 66.1148 119.798 66.1148 119.624C66.1148 119.452 66.0899 119.302 66.0402 119.173C65.9917 119.044 65.9195 118.944 65.8236 118.873C65.7289 118.801 65.6123 118.765 65.4738 118.765C65.3306 118.765 65.211 118.802 65.1151 118.876C65.0193 118.951 64.9471 119.053 64.8985 119.184C64.85 119.313 64.8257 119.459 64.8257 119.624C64.8257 119.791 64.85 119.937 64.8985 120.062C64.9482 120.187 65.021 120.284 65.1169 120.354C65.214 120.422 65.3329 120.457 65.4738 120.457ZM67.8002 119.402V121H67.1574V118.273H67.7718V118.736H67.8037C67.8664 118.583 67.9665 118.462 68.1038 118.372C68.2423 118.282 68.4133 118.237 68.6169 118.237C68.8051 118.237 68.9691 118.277 69.1088 118.358C69.2496 118.438 69.3585 118.555 69.4355 118.708C69.5136 118.86 69.5521 119.046 69.5509 119.263V121H68.9081V119.363C68.9081 119.181 68.8608 119.038 68.7661 118.935C68.6726 118.832 68.5429 118.781 68.3772 118.781C68.2648 118.781 68.1647 118.805 68.0771 118.855C67.9907 118.904 67.9227 118.974 67.873 119.066C67.8244 119.159 67.8002 119.271 67.8002 119.402ZM71.1617 121.053C70.8882 121.053 70.6521 120.996 70.4532 120.883C70.2555 120.768 70.1034 120.606 69.9969 120.396C69.8904 120.186 69.8371 119.938 69.8371 119.652C69.8371 119.372 69.8904 119.126 69.9969 118.914C70.1046 118.701 70.2549 118.535 70.4479 118.417C70.6408 118.297 70.8675 118.237 71.1279 118.237C71.296 118.237 71.4546 118.264 71.6038 118.319C71.7541 118.372 71.8867 118.455 72.0015 118.567C72.1175 118.68 72.2087 118.823 72.2749 118.997C72.3412 119.17 72.3744 119.376 72.3744 119.615V119.812H70.1389V119.379H71.7583C71.7571 119.256 71.7304 119.146 71.6784 119.05C71.6263 118.953 71.5535 118.877 71.46 118.821C71.3676 118.766 71.2599 118.738 71.1368 118.738C71.0054 118.738 70.89 118.77 70.7906 118.834C70.6911 118.897 70.6136 118.979 70.558 119.082C70.5035 119.184 70.4757 119.296 70.4745 119.418V119.796C70.4745 119.955 70.5035 120.091 70.5615 120.205C70.6195 120.317 70.7006 120.403 70.8048 120.464C70.9089 120.523 71.0309 120.553 71.1705 120.553C71.2641 120.553 71.3487 120.54 71.4244 120.513C71.5002 120.486 71.5659 120.447 71.6215 120.395C71.6772 120.342 71.7192 120.278 71.7476 120.201L72.3477 120.268C72.3099 120.427 72.2377 120.566 72.1311 120.684C72.0258 120.801 71.8908 120.892 71.7263 120.957C71.5618 121.021 71.3735 121.053 71.1617 121.053ZM73.6802 121.048C73.466 121.048 73.2742 120.993 73.1049 120.883C72.9357 120.773 72.8019 120.613 72.7037 120.403C72.6054 120.194 72.5563 119.939 72.5563 119.64C72.5563 119.337 72.606 119.081 72.7054 118.873C72.806 118.663 72.9416 118.505 73.112 118.399C73.2825 118.291 73.4725 118.237 73.682 118.237C73.8418 118.237 73.9732 118.264 74.0762 118.319C74.1792 118.372 74.2608 118.437 74.3212 118.512C74.3816 118.587 74.4283 118.657 74.4615 118.724H74.4881V117.364H75.1326V121H74.5005V120.57H74.4615C74.4283 120.637 74.3804 120.707 74.3176 120.782C74.2549 120.855 74.1721 120.918 74.0691 120.97C73.9661 121.022 73.8365 121.048 73.6802 121.048ZM73.8596 120.521C73.9957 120.521 74.1117 120.484 74.2076 120.411C74.3034 120.336 74.3762 120.232 74.426 120.1C74.4757 119.967 74.5005 119.813 74.5005 119.636C74.5005 119.46 74.4757 119.307 74.426 119.176C74.3774 119.046 74.3052 118.945 74.2093 118.873C74.1146 118.801 73.998 118.765 73.8596 118.765C73.7163 118.765 73.5968 118.802 73.5009 118.876C73.405 118.951 73.3328 119.054 73.2843 119.185C73.2357 119.317 73.2115 119.467 73.2115 119.636C73.2115 119.807 73.2357 119.959 73.2843 120.093C73.334 120.225 73.4068 120.33 73.5027 120.407C73.5997 120.483 73.7187 120.521 73.8596 120.521Z" fill="white"/>
<path d="M171.664 105L171.654 104.355L174.066 101.816C174.906 100.928 175.307 100.449 175.307 99.7949C175.307 99.0723 174.691 98.5938 173.9 98.5938C173.061 98.5938 172.523 99.1309 172.523 99.9219H171.693C171.684 98.6719 172.65 97.832 173.93 97.832C175.209 97.832 176.127 98.6914 176.127 99.7949C176.127 100.586 175.756 101.201 174.506 102.49L172.885 104.16V104.219H176.254V105H171.664ZM179.475 105.098C178.068 105.098 177.062 104.346 177.014 103.223H177.902C177.951 103.896 178.625 104.316 179.465 104.316C180.393 104.316 181.076 103.809 181.076 103.076C181.076 102.305 180.461 101.758 179.357 101.758H178.781V100.986H179.357C180.217 100.986 180.812 100.508 180.812 99.7754C180.812 99.0723 180.295 98.5938 179.494 98.5938C178.742 98.5938 178.049 99.0137 178.01 99.707H177.16C177.209 98.584 178.244 97.832 179.504 97.832C180.852 97.832 181.672 98.7109 181.662 99.7266C181.672 100.527 181.203 101.123 180.461 101.328V101.377C181.379 101.523 181.945 102.178 181.936 103.076C181.945 104.238 180.881 105.098 179.475 105.098ZM182.529 103.555V102.832L185.713 97.9297H186.797V102.783H187.783V103.555H186.797V105H185.957V103.555H182.529ZM183.477 102.783H185.957V99.043H185.869L183.477 102.725V102.783Z" fill="#767676"/>
<path d="M27.505 126.4H28.765V126.74H27.505V126.4ZM26.415 125.26H26.755V126.065C26.755 127.08 26.22 128.05 25.505 128.435L25.24 128.105C25.905 127.775 26.415 126.905 26.415 126.065V125.26ZM26.495 125.26H26.83V126.065C26.83 126.89 27.34 127.71 27.995 128.02L27.75 128.355C27.02 127.985 26.495 127.055 26.495 126.065V125.26ZM28.56 124.865H28.97V129.395H28.56V124.865ZM31.7546 125.6H33.0596V125.94H31.7546V125.6ZM31.7546 126.5H33.0696V126.835H31.7546V126.5ZM32.8996 124.87H33.3146V127.545H32.8996V124.87ZM29.8046 125.21H31.8696V127.22H29.8046V125.21ZM31.4596 125.545H30.2096V126.89H31.4596V125.545ZM31.8296 127.675C32.7596 127.675 33.3346 127.99 33.3346 128.53C33.3346 129.07 32.7596 129.38 31.8296 129.38C30.8946 129.38 30.3196 129.07 30.3196 128.53C30.3196 127.99 30.8946 127.675 31.8296 127.675ZM31.8296 128.005C31.1496 128.005 30.7346 128.2 30.7346 128.53C30.7346 128.86 31.1496 129.055 31.8296 129.055C32.5096 129.055 32.9246 128.86 32.9246 128.53C32.9246 128.2 32.5096 128.005 31.8296 128.005ZM37.0392 124.875H37.4542V128.205H37.0392V124.875ZM37.3292 126.255H38.1242V126.605H37.3292V126.255ZM34.6692 128.95H37.6592V129.29H34.6692V128.95ZM34.6692 127.945H35.0842V129.075H34.6692V127.945ZM34.1442 127.16H34.4992C35.3192 127.16 35.9042 127.135 36.6092 127.01L36.6442 127.355C35.9292 127.475 35.3342 127.5 34.4992 127.5H34.1442V127.16ZM34.1342 125.165H36.1692V126.46H34.5492V127.28H34.1442V126.145H35.7592V125.505H34.1342V125.165ZM40.1288 126.625H40.9838V126.97H40.1288V126.625ZM41.7388 124.87H42.1388V129.39H41.7388V124.87ZM40.8438 124.965H41.2388V129.165H40.8438V124.965ZM39.3138 125.245C39.8988 125.245 40.2788 125.85 40.2788 126.82C40.2788 127.79 39.8988 128.395 39.3138 128.395C38.7288 128.395 38.3538 127.79 38.3538 126.82C38.3538 125.85 38.7288 125.245 39.3138 125.245ZM39.3138 125.63C38.9588 125.63 38.7338 126.09 38.7338 126.82C38.7338 127.55 38.9588 128.01 39.3138 128.01C39.6738 128.01 39.8988 127.55 39.8988 126.82C39.8988 126.09 39.6738 125.63 39.3138 125.63ZM46.8117 124.875H47.2267V128.19H46.8117V124.875ZM47.0967 126.24H47.8967V126.585H47.0967V126.24ZM44.4117 128.95H47.4317V129.29H44.4117V128.95ZM44.4117 127.87H44.8267V129.03H44.4117V127.87ZM43.9067 125.195H44.3167V125.95H45.5917V125.195H45.9967V127.435H43.9067V125.195ZM44.3167 126.275V127.1H45.5917V126.275H44.3167ZM48.5863 127.035H51.6913V127.375H48.5863V127.035ZM48.0713 128.435H52.1663V128.78H48.0713V128.435ZM48.5863 125.285H51.6463V125.63H49.0013V127.185H48.5863V125.285ZM53.6109 125.26H53.9509V126.07C53.9509 127.11 53.3909 128.075 52.6509 128.45L52.3959 128.11C53.0659 127.79 53.6109 126.925 53.6109 126.07V125.26ZM53.6809 125.26H54.0209V126.07C54.0209 126.895 54.5609 127.725 55.2309 128.035L54.9809 128.365C54.2459 128.005 53.6809 127.075 53.6809 126.07V125.26ZM55.7009 124.865H56.1159V129.395H55.7009V124.865ZM60.0988 126.4H61.3588V126.74H60.0988V126.4ZM59.0088 125.26H59.3488V126.065C59.3488 127.08 58.8138 128.05 58.0988 128.435L57.8338 128.105C58.4988 127.775 59.0088 126.905 59.0088 126.065V125.26ZM59.0888 125.26H59.4238V126.065C59.4238 126.89 59.9338 127.71 60.5888 128.02L60.3438 128.355C59.6138 127.985 59.0888 127.055 59.0888 126.065V125.26ZM61.1538 124.865H61.5638V129.395H61.1538V124.865ZM64.3484 125.6H65.6534V125.94H64.3484V125.6ZM64.3484 126.5H65.6634V126.835H64.3484V126.5ZM65.4934 124.87H65.9084V127.545H65.4934V124.87ZM62.3984 125.21H64.4634V127.22H62.3984V125.21ZM64.0534 125.545H62.8034V126.89H64.0534V125.545ZM64.4234 127.675C65.3534 127.675 65.9284 127.99 65.9284 128.53C65.9284 129.07 65.3534 129.38 64.4234 129.38C63.4884 129.38 62.9134 129.07 62.9134 128.53C62.9134 127.99 63.4884 127.675 64.4234 127.675ZM64.4234 128.005C63.7434 128.005 63.3284 128.2 63.3284 128.53C63.3284 128.86 63.7434 129.055 64.4234 129.055C65.1034 129.055 65.5184 128.86 65.5184 128.53C65.5184 128.2 65.1034 128.005 64.4234 128.005ZM69.603 124.87H70.018V129.39H69.603V124.87ZM69.918 126.725H70.758V127.075H69.918V126.725ZM66.518 125.59H69.183V125.93H66.518V125.59ZM67.868 126.305C68.508 126.305 68.968 126.735 68.968 127.345C68.968 127.955 68.508 128.385 67.868 128.385C67.233 128.385 66.768 127.955 66.768 127.345C66.768 126.735 67.233 126.305 67.868 126.305ZM67.868 126.65C67.458 126.65 67.163 126.935 67.163 127.345C67.163 127.75 67.458 128.04 67.868 128.04C68.278 128.04 68.573 127.75 68.573 127.345C68.573 126.935 68.278 126.65 67.868 126.65ZM67.653 124.925H68.068V125.745H67.653V124.925ZM74.1776 124.875H74.5976V128.185H74.1776V124.875ZM71.6926 128.95H74.7326V129.29H71.6926V128.95ZM71.6926 127.88H72.1026V129.11H71.6926V127.88ZM72.0676 125.12H72.4126V125.58C72.4126 126.46 71.9126 127.23 71.1526 127.54L70.9376 127.205C71.6176 126.94 72.0676 126.28 72.0676 125.58V125.12ZM72.1426 125.12H72.4826V125.58C72.4826 126.26 72.9376 126.875 73.6126 127.12L73.3926 127.455C72.6426 127.165 72.1426 126.44 72.1426 125.58V125.12ZM76.5254 125.385H80.1604V125.72H76.5254V125.385ZM76.3154 127.8H80.4104V128.14H76.3154V127.8ZM78.1454 128.075H78.5604V129.395H78.1454V128.075ZM78.3554 125.98C79.2754 125.98 79.8204 126.25 79.8204 126.735C79.8204 127.215 79.2754 127.49 78.3554 127.49C77.4304 127.49 76.8854 127.215 76.8854 126.735C76.8854 126.25 77.4304 125.98 78.3554 125.98ZM78.3554 126.3C77.6954 126.3 77.3154 126.455 77.3154 126.735C77.3154 127.015 77.6954 127.17 78.3554 127.17C79.0154 127.17 79.3954 127.015 79.3954 126.735C79.3954 126.455 79.0154 126.3 78.3554 126.3ZM78.1454 124.845H78.5604V125.61H78.1454V124.845ZM82.8433 125.26H83.1833V126.07C83.1833 127.07 82.6433 128.045 81.9283 128.425L81.6733 128.095C82.3283 127.765 82.8433 126.895 82.8433 126.07V125.26ZM82.9183 125.26H83.2533V126.07C83.2533 126.865 83.7583 127.69 84.3983 128.01L84.1433 128.34C83.4433 127.965 82.9183 127.04 82.9183 126.07V125.26ZM84.7933 124.87H85.2133V129.39H84.7933V124.87ZM85.1133 126.7H85.9533V127.05H85.1133V126.7ZM87.0929 126.4H87.5029V127.255H87.0929V126.4ZM88.7529 126.4H89.1629V127.255H88.7529V126.4ZM86.0829 127.105H90.1679V127.44H86.0829V127.105ZM88.1229 127.78C89.0929 127.78 89.6729 128.065 89.6729 128.58C89.6729 129.095 89.0929 129.385 88.1229 129.385C87.1529 129.385 86.5729 129.095 86.5729 128.58C86.5729 128.065 87.1529 127.78 88.1229 127.78ZM88.1229 128.1C87.4179 128.1 86.9929 128.275 86.9929 128.58C86.9929 128.89 87.4179 129.06 88.1229 129.06C88.8329 129.06 89.2529 128.89 89.2529 128.58C89.2529 128.275 88.8329 128.1 88.1229 128.1ZM88.1279 124.95C89.1079 124.95 89.7179 125.265 89.7179 125.795C89.7179 126.32 89.1079 126.63 88.1279 126.63C87.1429 126.63 86.5379 126.32 86.5379 125.795C86.5379 125.265 87.1429 124.95 88.1279 124.95ZM88.1279 125.275C87.4079 125.275 86.9629 125.465 86.9629 125.795C86.9629 126.12 87.4079 126.31 88.1279 126.31C88.8479 126.31 89.2929 126.12 89.2929 125.795C89.2929 125.465 88.8479 125.275 88.1279 125.275ZM90.4275 125.64H92.6675V125.98H90.4275V125.64ZM91.5475 126.28C92.1125 126.28 92.5225 126.705 92.5225 127.315C92.5225 127.92 92.1125 128.345 91.5475 128.345C90.9875 128.345 90.5775 127.92 90.5775 127.315C90.5775 126.705 90.9875 126.28 91.5475 126.28ZM91.5475 126.635C91.2025 126.635 90.9525 126.915 90.9525 127.315C90.9525 127.715 91.2025 127.995 91.5475 127.995C91.8975 127.995 92.1525 127.715 92.1525 127.315C92.1525 126.915 91.8975 126.635 91.5475 126.635ZM93.8625 124.87H94.2625V129.39H93.8625V124.87ZM93.1425 126.77H93.9975V127.115H93.1425V126.77ZM92.8975 124.97H93.2875V129.17H92.8975V124.97ZM91.3475 125H91.7575V125.85H91.3475V125ZM95.9871 125.215C96.6521 125.215 97.1221 125.83 97.1221 126.79C97.1221 127.755 96.6521 128.37 95.9871 128.37C95.3221 128.37 94.8521 127.755 94.8521 126.79C94.8521 125.83 95.3221 125.215 95.9871 125.215ZM95.9871 125.59C95.5471 125.59 95.2471 126.06 95.2471 126.79C95.2471 127.525 95.5471 128.005 95.9871 128.005C96.4221 128.005 96.7271 127.525 96.7271 126.79C96.7271 126.06 96.4221 125.59 95.9871 125.59ZM98.1471 126.005H98.9771V126.355H98.1471V126.005ZM98.1471 127.35H98.9771V127.7H98.1471V127.35ZM97.8421 124.87H98.2621V129.39H97.8421V124.87ZM103.27 124.87H103.685V129.39H103.27V124.87ZM103.585 126.725H104.425V127.075H103.585V126.725ZM100.185 125.59H102.85V125.93H100.185V125.59ZM101.535 126.305C102.175 126.305 102.635 126.735 102.635 127.345C102.635 127.955 102.175 128.385 101.535 128.385C100.9 128.385 100.435 127.955 100.435 127.345C100.435 126.735 100.9 126.305 101.535 126.305ZM101.535 126.65C101.125 126.65 100.83 126.935 100.83 127.345C100.83 127.75 101.125 128.04 101.535 128.04C101.945 128.04 102.24 127.75 102.24 127.345C102.24 126.935 101.945 126.65 101.535 126.65ZM101.32 124.925H101.735V125.745H101.32V124.925ZM106.635 125.95H108.03V126.29H106.635V125.95ZM106.635 127.195H108.03V127.54H106.635V127.195ZM104.74 125.31H106.795V128.25H104.74V125.31ZM106.385 125.645H105.145V127.915H106.385V125.645ZM107.87 124.865H108.28V129.395H107.87V124.865ZM109.707 128.503L109.68 128.696C109.662 128.838 109.632 128.986 109.59 129.14C109.548 129.295 109.505 129.439 109.46 129.572C109.416 129.704 109.38 129.81 109.352 129.888H108.975C108.991 129.814 109.012 129.715 109.039 129.589C109.066 129.465 109.093 129.326 109.119 129.172C109.145 129.018 109.165 128.862 109.178 128.702L109.195 128.503H109.707ZM111.304 127.96H111.659C112.494 127.96 113.069 127.94 113.749 127.82L113.794 128.16C113.094 128.28 112.504 128.305 111.659 128.305H111.304V127.96ZM111.304 125.28H113.409V125.625H111.719V128.08H111.304V125.28ZM111.614 126.545H113.309V126.88H111.614V126.545ZM114.169 124.87H114.589V129.39H114.169V124.87ZM114.489 126.685H115.329V127.035H114.489V126.685ZM118.749 124.875H119.169V128.175H118.749V124.875ZM116.264 128.95H119.304V129.29H116.264V128.95ZM116.264 127.835H116.674V129.065H116.264V127.835ZM116.744 125.185C117.419 125.185 117.919 125.645 117.919 126.3C117.919 126.95 117.419 127.415 116.744 127.415C116.069 127.415 115.564 126.95 115.564 126.3C115.564 125.645 116.069 125.185 116.744 125.185ZM116.744 125.545C116.304 125.545 115.969 125.855 115.969 126.3C115.969 126.74 116.304 127.05 116.744 127.05C117.184 127.05 117.519 126.74 117.519 126.3C117.519 125.855 117.184 125.545 116.744 125.545ZM121.643 126.625H122.498V126.97H121.643V126.625ZM123.253 124.87H123.653V129.39H123.253V124.87ZM122.358 124.965H122.753V129.165H122.358V124.965ZM120.828 125.245C121.413 125.245 121.793 125.85 121.793 126.82C121.793 127.79 121.413 128.395 120.828 128.395C120.243 128.395 119.868 127.79 119.868 126.82C119.868 125.85 120.243 125.245 120.828 125.245ZM120.828 125.63C120.473 125.63 120.248 126.09 120.248 126.82C120.248 127.55 120.473 128.01 120.828 128.01C121.188 128.01 121.413 127.55 121.413 126.82C121.413 126.09 121.188 125.63 120.828 125.63ZM127.603 124.87H128.003V129.39H127.603V124.87ZM125.643 126.715H126.783V127.05H125.643V126.715ZM126.663 124.985H127.053V129.16H126.663V124.985ZM125.698 125.44H126.098C126.098 126.625 125.623 127.69 124.403 128.415L124.158 128.12C125.223 127.48 125.698 126.58 125.698 125.515V125.44ZM124.358 125.44H125.853V125.78H124.358V125.44ZM132.966 125.545H133.751V125.89H132.966V125.545ZM132.966 126.505H133.751V126.85H132.966V126.505ZM130.846 125.135C131.526 125.135 132.026 125.575 132.026 126.205C132.026 126.83 131.526 127.265 130.846 127.265C130.166 127.265 129.666 126.83 129.666 126.205C129.666 125.575 130.166 125.135 130.846 125.135ZM130.846 125.485C130.396 125.485 130.071 125.78 130.071 126.205C130.071 126.63 130.396 126.92 130.846 126.92C131.296 126.92 131.621 126.63 131.621 126.205C131.621 125.78 131.296 125.485 130.846 125.485ZM132.676 124.87H133.091V127.545H132.676V124.87ZM131.651 127.69C132.571 127.69 133.136 128.005 133.136 128.535C133.136 129.07 132.571 129.38 131.651 129.38C130.731 129.38 130.166 129.07 130.166 128.535C130.166 128.005 130.731 127.69 131.651 127.69ZM131.651 128.025C130.981 128.025 130.571 128.21 130.571 128.535C130.571 128.86 130.981 129.05 131.651 129.05C132.321 129.05 132.731 128.86 132.731 128.535C132.731 128.21 132.321 128.025 131.651 128.025ZM134.451 126.98H137.556V127.32H134.451V126.98ZM133.936 128.475H138.031V128.825H133.936V128.475ZM135.766 127.125H136.181V128.615H135.766V127.125ZM134.451 125.23H137.511V125.57H134.866V127.13H134.451V125.23ZM142.793 124.87H143.193V129.39H142.793V124.87ZM142.028 126.68H142.898V127.025H142.028V126.68ZM141.768 124.97H142.158V129.16H141.768V124.97ZM139.518 127.93H139.813C140.473 127.93 140.923 127.905 141.448 127.795L141.488 128.14C140.948 128.255 140.493 128.275 139.813 128.275H139.518V127.93ZM139.518 125.42H141.198V125.76H139.928V128.085H139.518V125.42ZM145.743 125.875H147.108V126.22H145.743V125.875ZM145.743 127.305H147.108V127.65H145.743V127.305ZM144.913 125.215C145.568 125.215 146.038 125.83 146.038 126.79C146.038 127.755 145.568 128.37 144.913 128.37C144.253 128.37 143.788 127.755 143.788 126.79C143.788 125.83 144.253 125.215 144.913 125.215ZM144.913 125.59C144.478 125.59 144.178 126.06 144.178 126.79C144.178 127.525 144.478 128.005 144.913 128.005C145.348 128.005 145.648 127.525 145.648 126.79C145.648 126.06 145.348 125.59 144.913 125.59ZM147.018 124.865H147.428V129.395H147.018V124.865ZM148.608 126.225H151.678V126.565H148.608V126.225ZM148.053 127.17H152.153V127.51H148.053V127.17ZM148.608 125.035H149.018V126.395H148.608V125.035ZM148.578 128.94H151.703V129.28H148.578V128.94ZM148.578 127.96H148.988V129.03H148.578V127.96ZM27.08 133.04H27.49V133.73H27.08V133.04ZM25.79 130.94H26.2V131.36H28.385V130.94H28.8V132.43H25.79V130.94ZM26.2 131.68V132.11H28.385V131.68H26.2ZM25.245 132.8H29.33V133.135H25.245V132.8ZM25.74 133.575H28.81V134.58H26.16V135.14H25.75V134.28H28.4V133.89H25.74V133.575ZM25.75 135.02H28.945V135.34H25.75V135.02ZM32.6546 130.865H33.0746V135.39H32.6546V130.865ZM32.9596 132.7H33.7946V133.045H32.9596V132.7ZM31.4996 131.355H31.9046C31.9046 132.64 31.3146 133.8 29.8546 134.535L29.6246 134.215C30.8746 133.58 31.4996 132.615 31.4996 131.42V131.355ZM29.8346 131.355H31.7146V131.695H29.8346V131.355ZM34.5042 132.125H37.5692V132.465H34.5042V132.125ZM34.5042 130.96H34.9142V132.275H34.5042V130.96ZM33.9492 132.99H38.0342V133.325H33.9492V132.99ZM35.9842 133.73C36.9492 133.73 37.5342 134.025 37.5342 134.555C37.5342 135.075 36.9492 135.375 35.9842 135.375C35.0192 135.375 34.4342 135.075 34.4342 134.555C34.4342 134.025 35.0192 133.73 35.9842 133.73ZM35.9842 134.055C35.2792 134.055 34.8542 134.235 34.8542 134.555C34.8542 134.865 35.2792 135.045 35.9842 135.045C36.6942 135.045 37.1142 134.865 37.1142 134.555C37.1142 134.235 36.6942 134.055 35.9842 134.055ZM41.3888 130.87H41.8038V133.495H41.3888V130.87ZM41.6238 132.02H42.4738V132.37H41.6238V132.02ZM38.9638 133.695H39.3688V134.175H41.3938V133.695H41.8038V135.33H38.9638V133.695ZM39.3688 134.495V134.995H41.3938V134.495H39.3688ZM38.3088 131.33H40.9788V131.67H38.3088V131.33ZM39.6438 131.875C40.2888 131.875 40.7238 132.19 40.7238 132.67C40.7238 133.15 40.2888 133.465 39.6438 133.465C38.9938 133.465 38.5588 133.15 38.5588 132.67C38.5588 132.19 38.9938 131.875 39.6438 131.875ZM39.6438 132.19C39.2288 132.19 38.9538 132.38 38.9538 132.67C38.9538 132.96 39.2288 133.15 39.6438 133.15C40.0488 133.15 40.3288 132.96 40.3288 132.67C40.3288 132.38 40.0488 132.19 39.6438 132.19ZM39.4338 130.825H39.8488V131.515H39.4338V130.825ZM45.9334 130.87H46.3484V135.39H45.9334V130.87ZM42.9334 131.31H43.3434V134.11H42.9334V131.31ZM42.9334 133.865H43.3034C43.9884 133.865 44.7034 133.815 45.4684 133.655L45.5184 134.01C44.7334 134.17 44.0184 134.225 43.3034 134.225H42.9334V133.865ZM50.053 130.865H50.473V135.395H50.053V130.865ZM50.373 132.65H51.213V133H50.373V132.65ZM47.188 133.92H47.543C48.378 133.92 48.963 133.89 49.638 133.765L49.683 134.115C48.988 134.245 48.393 134.27 47.543 134.27H47.188V133.92ZM47.188 131.305H49.288V131.645H47.598V134.075H47.188V131.305Z" fill="white"/>
</svg>
