<svg width="315" height="193" viewBox="0 0 315 193" fill="none" xmlns="http://www.w3.org/2000/svg">
<rect x="315" width="193" height="315" rx="12" transform="rotate(90 315 0)" fill="#0058DC"/>
<path d="M28.5824 26.4347H26.4517C26.4233 26.2159 26.3651 26.0185 26.277 25.8423C26.1889 25.6662 26.0724 25.5156 25.9276 25.3906C25.7827 25.2656 25.6108 25.1705 25.4119 25.1051C25.2159 25.0369 24.9986 25.0028 24.7599 25.0028C24.3366 25.0028 23.9716 25.1065 23.6648 25.3139C23.3608 25.5213 23.1264 25.821 22.9616 26.2131C22.7997 26.6051 22.7188 27.0795 22.7188 27.6364C22.7188 28.2159 22.8011 28.7017 22.9659 29.0938C23.1335 29.483 23.3679 29.777 23.669 29.9759C23.973 30.1719 24.3324 30.2699 24.7472 30.2699C24.9801 30.2699 25.1918 30.2401 25.3821 30.1804C25.5753 30.1207 25.7443 30.0341 25.8892 29.9205C26.0369 29.804 26.1577 29.6634 26.2514 29.4986C26.348 29.331 26.4148 29.142 26.4517 28.9318L28.5824 28.9446C28.5455 29.331 28.4332 29.7116 28.2457 30.0866C28.0611 30.4616 27.8068 30.804 27.483 31.1136C27.1591 31.4205 26.7642 31.6648 26.2983 31.8466C25.8352 32.0284 25.304 32.1193 24.7045 32.1193C23.9148 32.1193 23.2074 31.946 22.5824 31.5994C21.9602 31.25 21.4688 30.7415 21.108 30.0739C20.7472 29.4062 20.5668 28.5937 20.5668 27.6364C20.5668 26.6761 20.75 25.8622 21.1165 25.1946C21.483 24.527 21.9787 24.0199 22.6037 23.6733C23.2287 23.3267 23.929 23.1534 24.7045 23.1534C25.233 23.1534 25.7216 23.2273 26.1705 23.375C26.6193 23.5199 27.0142 23.733 27.3551 24.0142C27.696 24.2926 27.973 24.6349 28.1861 25.0412C28.3991 25.4474 28.5312 25.9119 28.5824 26.4347ZM29.1894 32V25.4545H31.2136V26.6477H31.2817C31.4011 26.2159 31.5957 25.8949 31.8656 25.6847C32.1354 25.4716 32.4494 25.3651 32.8073 25.3651C32.9039 25.3651 33.0033 25.3722 33.1056 25.3864C33.2079 25.3977 33.3031 25.4162 33.3911 25.4418V27.2528C33.2917 27.2187 33.161 27.1918 32.9991 27.1719C32.84 27.152 32.6979 27.142 32.5729 27.142C32.3258 27.142 32.1028 27.1974 31.9039 27.3082C31.7079 27.4162 31.5531 27.5682 31.4394 27.7642C31.3286 27.9574 31.2732 28.1847 31.2732 28.446V32H29.1894ZM36.36 32.1236C35.6754 32.1236 35.0844 31.9886 34.5873 31.7188C34.093 31.446 33.7123 31.0582 33.4452 30.5554C33.181 30.0497 33.0489 29.4489 33.0489 28.7528C33.0489 28.0767 33.1825 27.4858 33.4495 26.9801C33.7165 26.4716 34.093 26.0767 34.5788 25.7955C35.0646 25.5114 35.637 25.3693 36.2961 25.3693C36.762 25.3693 37.1881 25.4418 37.5745 25.5866C37.9609 25.7315 38.2947 25.946 38.5759 26.2301C38.8572 26.5142 39.0759 26.8651 39.2322 27.2827C39.3884 27.6974 39.4665 28.1733 39.4665 28.7102V29.2301H33.7776V28.0199H37.5276C37.5248 27.7983 37.4722 27.6009 37.37 27.4276C37.2677 27.2543 37.1271 27.1193 36.9481 27.0227C36.7719 26.9233 36.5688 26.8736 36.3387 26.8736C36.1058 26.8736 35.8969 26.9261 35.7123 27.0312C35.5276 27.1335 35.3813 27.2741 35.2734 27.4531C35.1654 27.6293 35.1086 27.8295 35.1029 28.054V29.2855C35.1029 29.5526 35.1555 29.7869 35.2606 29.9886C35.3657 30.1875 35.5148 30.3423 35.708 30.4531C35.9012 30.5639 36.1313 30.6193 36.3984 30.6193C36.583 30.6193 36.7506 30.5937 36.9012 30.5426C37.0518 30.4915 37.181 30.4162 37.289 30.3168C37.3969 30.2173 37.4779 30.0952 37.5319 29.9503L39.4452 30.0057C39.3657 30.4347 39.191 30.8082 38.9211 31.1264C38.654 31.4418 38.3032 31.6875 37.8685 31.8636C37.4339 32.0369 36.931 32.1236 36.36 32.1236ZM42.3214 32.0938C41.8385 32.0938 41.3996 31.9688 41.0047 31.7188C40.6098 31.4688 40.2945 31.0938 40.0587 30.5938C39.8229 30.0938 39.705 29.473 39.705 28.7315C39.705 27.9616 39.8271 27.3281 40.0714 26.831C40.3158 26.3338 40.6354 25.9659 41.0303 25.7273C41.428 25.4886 41.8555 25.3693 42.3129 25.3693C42.6567 25.3693 42.9507 25.429 43.195 25.5483C43.4393 25.6648 43.6411 25.8153 43.8001 26C43.9592 26.1847 44.08 26.3764 44.1624 26.5753H44.205V23.2727H46.2888V32H44.2263V30.9389H44.1624C44.0743 31.1406 43.9493 31.3295 43.7874 31.5057C43.6254 31.6818 43.4223 31.8239 43.178 31.9318C42.9365 32.0398 42.651 32.0938 42.3214 32.0938ZM43.0459 30.4702C43.2987 30.4702 43.5146 30.3991 43.6936 30.2571C43.8726 30.1122 44.0104 29.9091 44.107 29.6477C44.2036 29.3864 44.2518 29.0795 44.2518 28.7273C44.2518 28.3693 44.2036 28.0611 44.107 27.8026C44.0132 27.544 43.8754 27.3452 43.6936 27.206C43.5146 27.0668 43.2987 26.9972 43.0459 26.9972C42.7874 26.9972 42.5686 27.0682 42.3896 27.2102C42.2107 27.3523 42.0743 27.5526 41.9805 27.8111C41.8896 28.0696 41.8442 28.375 41.8442 28.7273C41.8442 29.0795 41.8911 29.3864 41.9848 29.6477C42.0786 29.9091 42.2135 30.1122 42.3896 30.2571C42.5686 30.3991 42.7874 30.4702 43.0459 30.4702ZM47.0066 32V25.4545H49.0904V32H47.0066ZM48.0506 24.6918C47.758 24.6918 47.5066 24.5952 47.2964 24.402C47.0862 24.206 46.981 23.9702 46.981 23.6946C46.981 23.4219 47.0862 23.1889 47.2964 22.9957C47.5066 22.7997 47.758 22.7017 48.0506 22.7017C48.3461 22.7017 48.5975 22.7997 48.8049 22.9957C49.0151 23.1889 49.1202 23.4219 49.1202 23.6946C49.1202 23.9702 49.0151 24.206 48.8049 24.402C48.5975 24.5952 48.3461 24.6918 48.0506 24.6918ZM53.5114 25.4545V26.9886H49.3821V25.4545H53.5114ZM50.2472 23.8864H52.331V29.9418C52.331 30.0696 52.3509 30.1733 52.3906 30.2528C52.4332 30.3295 52.4943 30.3849 52.5739 30.419C52.6534 30.4503 52.7486 30.4659 52.8594 30.4659C52.9389 30.4659 53.0227 30.4588 53.1108 30.4446C53.2017 30.4276 53.2699 30.4134 53.3153 30.402L53.6307 31.9062C53.5313 31.9347 53.3906 31.9702 53.2088 32.0128C53.0298 32.0554 52.8153 32.0824 52.5653 32.0938C52.0767 32.1165 51.6577 32.0597 51.3082 31.9233C50.9616 31.7841 50.696 31.5682 50.5114 31.2756C50.3295 30.983 50.2415 30.6151 50.2472 30.1719V23.8864ZM63.8746 26.4347H61.7439C61.7155 26.2159 61.6572 26.0185 61.5692 25.8423C61.4811 25.6662 61.3646 25.5156 61.2197 25.3906C61.0749 25.2656 60.903 25.1705 60.7041 25.1051C60.5081 25.0369 60.2908 25.0028 60.0521 25.0028C59.6288 25.0028 59.2638 25.1065 58.957 25.3139C58.653 25.5213 58.4186 25.821 58.2538 26.2131C58.0919 26.6051 58.0109 27.0795 58.0109 27.6364C58.0109 28.2159 58.0933 28.7017 58.2581 29.0938C58.4257 29.483 58.6601 29.777 58.9612 29.9759C59.2652 30.1719 59.6246 30.2699 60.0393 30.2699C60.2723 30.2699 60.4839 30.2401 60.6743 30.1804C60.8675 30.1207 61.0365 30.0341 61.1814 29.9205C61.3291 29.804 61.4499 29.6634 61.5436 29.4986C61.6402 29.331 61.707 29.142 61.7439 28.9318L63.8746 28.9446C63.8376 29.331 63.7254 29.7116 63.5379 30.0866C63.3533 30.4616 63.099 30.804 62.7751 31.1136C62.4513 31.4205 62.0564 31.6648 61.5905 31.8466C61.1274 32.0284 60.5962 32.1193 59.9967 32.1193C59.207 32.1193 58.4996 31.946 57.8746 31.5994C57.2524 31.25 56.7609 30.7415 56.4001 30.0739C56.0393 29.4062 55.8589 28.5937 55.8589 27.6364C55.8589 26.6761 56.0422 25.8622 56.4087 25.1946C56.7751 24.527 57.2709 24.0199 57.8959 23.6733C58.5209 23.3267 59.2212 23.1534 59.9967 23.1534C60.5251 23.1534 61.0138 23.2273 61.4626 23.375C61.9115 23.5199 62.3064 23.733 62.6473 24.0142C62.9882 24.2926 63.2652 24.6349 63.4783 25.0412C63.6913 25.4474 63.8234 25.9119 63.8746 26.4347ZM66.3268 32.1108C65.9092 32.1108 65.5384 32.0412 65.2146 31.902C64.8935 31.7599 64.6393 31.5469 64.4518 31.2628C64.2671 30.9759 64.1748 30.6165 64.1748 30.1847C64.1748 29.821 64.2387 29.5142 64.3665 29.2642C64.4944 29.0142 64.6705 28.8111 64.895 28.6548C65.1194 28.4986 65.3779 28.3807 65.6705 28.3011C65.9631 28.2187 66.2756 28.1634 66.608 28.1349C66.9802 28.1009 67.2799 28.0653 67.5072 28.0284C67.7344 27.9886 67.8992 27.9332 68.0015 27.8622C68.1066 27.7884 68.1592 27.6847 68.1592 27.5511V27.5298C68.1592 27.3111 68.0839 27.142 67.9333 27.0227C67.7827 26.9034 67.5796 26.8438 67.3239 26.8438C67.0484 26.8438 66.8268 26.9034 66.6592 27.0227C66.4915 27.142 66.385 27.3068 66.3396 27.517L64.4177 27.4489C64.4745 27.0511 64.6208 26.696 64.8566 26.3835C65.0952 26.0682 65.4219 25.821 65.8367 25.642C66.2543 25.4602 66.7558 25.3693 67.341 25.3693C67.7586 25.3693 68.1435 25.419 68.4958 25.5185C68.8481 25.6151 69.1549 25.7571 69.4163 25.9446C69.6776 26.1293 69.8793 26.3565 70.0214 26.6264C70.1663 26.8963 70.2387 27.2045 70.2387 27.5511V32H68.2785V31.0881H68.2273C68.1109 31.3097 67.9617 31.4972 67.7799 31.6506C67.6009 31.804 67.3893 31.919 67.145 31.9957C66.9035 32.0724 66.6308 32.1108 66.3268 32.1108ZM66.9702 30.7472C67.1947 30.7472 67.3964 30.7017 67.5754 30.6108C67.7572 30.5199 67.9021 30.3949 68.01 30.2358C68.118 30.0739 68.1719 29.8864 68.1719 29.6733V29.0511C68.1123 29.0824 68.0398 29.1108 67.9546 29.1364C67.8722 29.1619 67.7813 29.1861 67.6819 29.2088C67.5825 29.2315 67.4802 29.2514 67.3751 29.2685C67.27 29.2855 67.1691 29.3011 67.0725 29.3153C66.8765 29.3466 66.7089 29.3949 66.5697 29.4602C66.4333 29.5256 66.3282 29.6108 66.2543 29.7159C66.1833 29.8182 66.1478 29.9403 66.1478 30.0824C66.1478 30.2983 66.2245 30.4631 66.3779 30.5767C66.5342 30.6903 66.7316 30.7472 66.9702 30.7472ZM70.9129 32V25.4545H72.937V26.6477H73.0052C73.1245 26.2159 73.3191 25.8949 73.589 25.6847C73.8589 25.4716 74.1728 25.3651 74.5308 25.3651C74.6273 25.3651 74.7268 25.3722 74.829 25.3864C74.9313 25.3977 75.0265 25.4162 75.1146 25.4418V27.2528C75.0151 27.2187 74.8844 27.1918 74.7225 27.1719C74.5634 27.152 74.4214 27.142 74.2964 27.142C74.0492 27.142 73.8262 27.1974 73.6273 27.3082C73.4313 27.4162 73.2765 27.5682 73.1629 27.7642C73.0521 27.9574 72.9967 28.1847 72.9967 28.446V32H70.9129ZM77.4144 32.0938C76.9315 32.0938 76.4925 31.9688 76.0977 31.7188C75.7028 31.4688 75.3874 31.0938 75.1516 30.5938C74.9158 30.0938 74.7979 29.473 74.7979 28.7315C74.7979 27.9616 74.9201 27.3281 75.1644 26.831C75.4087 26.3338 75.7283 25.9659 76.1232 25.7273C76.521 25.4886 76.9485 25.3693 77.4059 25.3693C77.7496 25.3693 78.0437 25.429 78.288 25.5483C78.5323 25.6648 78.734 25.8153 78.8931 26C79.0522 26.1847 79.1729 26.3764 79.2553 26.5753H79.2979V23.2727H81.3817V32H79.3192V30.9389H79.2553C79.1673 31.1406 79.0423 31.3295 78.8803 31.5057C78.7184 31.6818 78.5153 31.8239 78.271 31.9318C78.0295 32.0398 77.744 32.0938 77.4144 32.0938ZM78.1388 30.4702C78.3917 30.4702 78.6076 30.3991 78.7866 30.2571C78.9656 30.1122 79.1033 29.9091 79.1999 29.6477C79.2965 29.3864 79.3448 29.0795 79.3448 28.7273C79.3448 28.3693 79.2965 28.0611 79.1999 27.8026C79.1062 27.544 78.9684 27.3452 78.7866 27.206C78.6076 27.0668 78.3917 26.9972 78.1388 26.9972C77.8803 26.9972 77.6616 27.0682 77.4826 27.2102C77.3036 27.3523 77.1673 27.5526 77.0735 27.8111C76.9826 28.0696 76.9371 28.375 76.9371 28.7273C76.9371 29.0795 76.984 29.3864 77.0778 29.6477C77.1715 29.9091 77.3065 30.1122 77.4826 30.2571C77.6616 30.3991 77.8803 30.4702 78.1388 30.4702Z" fill="white"/>
<path d="M213.661 32V23.2727H215.77V26.7756H219.209V23.2727H221.314V32H219.209V28.4929H215.77V32H213.661ZM223.882 32.1108C223.465 32.1108 223.094 32.0412 222.77 31.902C222.449 31.7599 222.195 31.5469 222.007 31.2628C221.823 30.9759 221.73 30.6165 221.73 30.1847C221.73 29.821 221.794 29.5142 221.922 29.2642C222.05 29.0142 222.226 28.8111 222.45 28.6548C222.675 28.4986 222.933 28.3807 223.226 28.3011C223.519 28.2187 223.831 28.1634 224.163 28.1349C224.536 28.1009 224.835 28.0653 225.063 28.0284C225.29 27.9886 225.455 27.9332 225.557 27.8622C225.662 27.7884 225.715 27.6847 225.715 27.5511V27.5298C225.715 27.3111 225.639 27.142 225.489 27.0227C225.338 26.9034 225.135 26.8438 224.879 26.8438C224.604 26.8438 224.382 26.9034 224.215 27.0227C224.047 27.142 223.94 27.3068 223.895 27.517L221.973 27.4489C222.03 27.0511 222.176 26.696 222.412 26.3835C222.651 26.0682 222.977 25.821 223.392 25.642C223.81 25.4602 224.311 25.3693 224.896 25.3693C225.314 25.3693 225.699 25.419 226.051 25.5185C226.404 25.6151 226.71 25.7571 226.972 25.9446C227.233 26.1293 227.435 26.3565 227.577 26.6264C227.722 26.8963 227.794 27.2045 227.794 27.5511V32H225.834V31.0881H225.783C225.666 31.3097 225.517 31.4972 225.335 31.6506C225.156 31.804 224.945 31.919 224.7 31.9957C224.459 32.0724 224.186 32.1108 223.882 32.1108ZM224.526 30.7472C224.75 30.7472 224.952 30.7017 225.131 30.6108C225.313 30.5199 225.458 30.3949 225.565 30.2358C225.673 30.0739 225.727 29.8864 225.727 29.6733V29.0511C225.668 29.0824 225.595 29.1108 225.51 29.1364C225.428 29.1619 225.337 29.1861 225.237 29.2088C225.138 29.2315 225.036 29.2514 224.931 29.2685C224.825 29.2855 224.725 29.3011 224.628 29.3153C224.432 29.3466 224.264 29.3949 224.125 29.4602C223.989 29.5256 223.884 29.6108 223.81 29.7159C223.739 29.8182 223.703 29.9403 223.703 30.0824C223.703 30.2983 223.78 30.4631 223.933 30.5767C224.09 30.6903 224.287 30.7472 224.526 30.7472ZM230.552 28.267V32H228.468V25.4545H230.45V26.6562H230.522C230.667 26.2557 230.914 25.9418 231.264 25.7145C231.613 25.4844 232.029 25.3693 232.512 25.3693C232.973 25.3693 233.372 25.473 233.71 25.6804C234.051 25.8849 234.315 26.1719 234.502 26.5412C234.693 26.9077 234.787 27.3366 234.784 27.8281V32H232.7V28.2372C232.703 27.8736 232.61 27.5895 232.423 27.3849C232.238 27.1804 231.981 27.0781 231.652 27.0781C231.433 27.0781 231.24 27.1264 231.072 27.223C230.907 27.3168 230.779 27.4517 230.688 27.6278C230.6 27.804 230.555 28.017 230.552 28.267ZM237.353 30.2827L237.362 27.7983H237.651L239.492 25.4545H241.853L239.117 28.8125H238.568L237.353 30.2827ZM235.474 32V23.2727H237.558V32H235.474ZM239.539 32L237.826 29.2812L239.198 27.8026L241.947 32H239.539ZM244.785 32.1236C244.097 32.1236 243.506 31.983 243.012 31.7017C242.52 31.4176 242.141 31.0227 241.874 30.517C241.61 30.0085 241.478 29.419 241.478 28.7486C241.478 28.0753 241.61 27.4858 241.874 26.9801C242.141 26.4716 242.52 26.0767 243.012 25.7955C243.506 25.5114 244.097 25.3693 244.785 25.3693C245.472 25.3693 246.062 25.5114 246.553 25.7955C247.047 26.0767 247.427 26.4716 247.691 26.9801C247.958 27.4858 248.091 28.0753 248.091 28.7486C248.091 29.419 247.958 30.0085 247.691 30.517C247.427 31.0227 247.047 31.4176 246.553 31.7017C246.062 31.983 245.472 32.1236 244.785 32.1236ZM244.797 30.5511C245.047 30.5511 245.259 30.4744 245.432 30.321C245.606 30.1676 245.738 29.9545 245.829 29.6818C245.922 29.4091 245.969 29.0937 245.969 28.7358C245.969 28.3722 245.922 28.054 245.829 27.7812C245.738 27.5085 245.606 27.2955 245.432 27.142C245.259 26.9886 245.047 26.9119 244.797 26.9119C244.539 26.9119 244.32 26.9886 244.141 27.142C243.965 27.2955 243.83 27.5085 243.736 27.7812C243.645 28.054 243.6 28.3722 243.6 28.7358C243.6 29.0937 243.645 29.4091 243.736 29.6818C243.83 29.9545 243.965 30.1676 244.141 30.321C244.32 30.4744 244.539 30.5511 244.797 30.5511ZM251.614 32.1236C250.927 32.1236 250.336 31.983 249.842 31.7017C249.35 31.4176 248.971 31.0227 248.704 30.517C248.44 30.0085 248.308 29.419 248.308 28.7486C248.308 28.0753 248.44 27.4858 248.704 26.9801C248.971 26.4716 249.35 26.0767 249.842 25.7955C250.336 25.5114 250.927 25.3693 251.614 25.3693C252.302 25.3693 252.891 25.5114 253.383 25.7955C253.877 26.0767 254.256 26.4716 254.521 26.9801C254.788 27.4858 254.921 28.0753 254.921 28.7486C254.921 29.419 254.788 30.0085 254.521 30.517C254.256 31.0227 253.877 31.4176 253.383 31.7017C252.891 31.983 252.302 32.1236 251.614 32.1236ZM251.627 30.5511C251.877 30.5511 252.089 30.4744 252.262 30.321C252.435 30.1676 252.567 29.9545 252.658 29.6818C252.752 29.4091 252.799 29.0937 252.799 28.7358C252.799 28.3722 252.752 28.054 252.658 27.7812C252.567 27.5085 252.435 27.2955 252.262 27.142C252.089 26.9886 251.877 26.9119 251.627 26.9119C251.369 26.9119 251.15 26.9886 250.971 27.142C250.795 27.2955 250.66 27.5085 250.566 27.7812C250.475 28.054 250.43 28.3722 250.43 28.7358C250.43 29.0937 250.475 29.4091 250.566 29.6818C250.66 29.9545 250.795 30.1676 250.971 30.321C251.15 30.4744 251.369 30.5511 251.627 30.5511ZM257.268 30.2827L257.276 27.7983H257.566L259.407 25.4545H261.768L259.032 28.8125H258.482L257.268 30.2827ZM255.389 32V23.2727H257.472V32H255.389ZM259.454 32L257.741 29.2812L259.113 27.8026L261.862 32H259.454ZM263.892 32V23.2727H267.531C268.184 23.2727 268.731 23.3651 269.172 23.5497C269.615 23.7344 269.947 23.9929 270.169 24.3253C270.393 24.6577 270.505 25.0426 270.505 25.4801C270.505 25.8125 270.436 26.1094 270.297 26.3707C270.157 26.6293 269.966 26.8437 269.721 27.0142C269.477 27.1847 269.194 27.304 268.873 27.3722V27.4574C269.226 27.4744 269.551 27.5696 269.849 27.7429C270.15 27.9162 270.392 28.1577 270.574 28.4673C270.755 28.7741 270.846 29.1378 270.846 29.5582C270.846 30.027 270.727 30.446 270.488 30.8153C270.25 31.1818 269.905 31.4716 269.453 31.6847C269.001 31.8949 268.453 32 267.808 32H263.892ZM266.001 30.2997H267.305C267.763 30.2997 268.099 30.2131 268.315 30.0398C268.534 29.8665 268.643 29.625 268.643 29.3153C268.643 29.0909 268.591 28.8977 268.486 28.7358C268.38 28.571 268.231 28.4446 268.038 28.3565C267.845 28.2656 267.613 28.2202 267.343 28.2202H266.001V30.2997ZM266.001 26.8608H267.169C267.399 26.8608 267.603 26.8224 267.782 26.7457C267.961 26.669 268.101 26.5582 268.2 26.4134C268.302 26.2685 268.353 26.0937 268.353 25.8892C268.353 25.5966 268.25 25.3665 268.042 25.1989C267.835 25.0312 267.555 24.9474 267.203 24.9474H266.001V26.8608ZM273.106 32.1108C272.688 32.1108 272.317 32.0412 271.993 31.902C271.672 31.7599 271.418 31.5469 271.231 31.2628C271.046 30.9759 270.954 30.6165 270.954 30.1847C270.954 29.821 271.018 29.5142 271.145 29.2642C271.273 29.0142 271.449 28.8111 271.674 28.6548C271.898 28.4986 272.157 28.3807 272.449 28.3011C272.742 28.2187 273.055 28.1634 273.387 28.1349C273.759 28.1009 274.059 28.0653 274.286 28.0284C274.513 27.9886 274.678 27.9332 274.78 27.8622C274.886 27.7884 274.938 27.6847 274.938 27.5511V27.5298C274.938 27.3111 274.863 27.142 274.712 27.0227C274.562 26.9034 274.359 26.8438 274.103 26.8438C273.827 26.8438 273.606 26.9034 273.438 27.0227C273.27 27.142 273.164 27.3068 273.118 27.517L271.197 27.4489C271.253 27.0511 271.4 26.696 271.636 26.3835C271.874 26.0682 272.201 25.821 272.616 25.642C273.033 25.4602 273.535 25.3693 274.12 25.3693C274.537 25.3693 274.922 25.419 275.275 25.5185C275.627 25.6151 275.934 25.7571 276.195 25.9446C276.457 26.1293 276.658 26.3565 276.8 26.6264C276.945 26.8963 277.018 27.2045 277.018 27.5511V32H275.057V31.0881H275.006C274.89 31.3097 274.741 31.4972 274.559 31.6506C274.38 31.804 274.168 31.919 273.924 31.9957C273.682 32.0724 273.41 32.1108 273.106 32.1108ZM273.749 30.7472C273.974 30.7472 274.175 30.7017 274.354 30.6108C274.536 30.5199 274.681 30.3949 274.789 30.2358C274.897 30.0739 274.951 29.8864 274.951 29.6733V29.0511C274.891 29.0824 274.819 29.1108 274.734 29.1364C274.651 29.1619 274.56 29.1861 274.461 29.2088C274.361 29.2315 274.259 29.2514 274.154 29.2685C274.049 29.2855 273.948 29.3011 273.851 29.3153C273.655 29.3466 273.488 29.3949 273.349 29.4602C273.212 29.5256 273.107 29.6108 273.033 29.7159C272.962 29.8182 272.927 29.9403 272.927 30.0824C272.927 30.2983 273.003 30.4631 273.157 30.5767C273.313 30.6903 273.511 30.7472 273.749 30.7472ZM279.776 28.267V32H277.692V25.4545H279.673V26.6562H279.746C279.891 26.2557 280.138 25.9418 280.487 25.7145C280.837 25.4844 281.253 25.3693 281.736 25.3693C282.196 25.3693 282.595 25.473 282.933 25.6804C283.274 25.8849 283.538 26.1719 283.726 26.5412C283.916 26.9077 284.01 27.3366 284.007 27.8281V32H281.923V28.2372C281.926 27.8736 281.834 27.5895 281.646 27.3849C281.462 27.1804 281.205 27.0781 280.875 27.0781C280.656 27.0781 280.463 27.1264 280.295 27.223C280.131 27.3168 280.003 27.4517 279.912 27.6278C279.824 27.804 279.778 28.017 279.776 28.267ZM286.576 30.2827L286.585 27.7983H286.875L288.716 25.4545H291.076L288.341 28.8125H287.791L286.576 30.2827ZM284.697 32V23.2727H286.781V32H284.697ZM288.763 32L287.05 29.2812L288.422 27.8026L291.17 32H288.763Z" fill="white"/>
<path d="M24.9538 130.149C24.1229 130.149 23.386 130.007 22.7433 129.723C22.104 129.435 21.5998 129.039 21.2305 128.535C20.8612 128.031 20.6729 127.45 20.6658 126.793H23.3185C23.3292 127.031 23.4055 127.243 23.5476 127.427C23.6896 127.608 23.8832 127.75 24.1282 127.853C24.3732 127.956 24.652 128.008 24.9645 128.008C25.277 128.008 25.5522 127.953 25.7901 127.843C26.0316 127.729 26.2198 127.575 26.3548 127.379C26.4897 127.18 26.5554 126.953 26.5518 126.697C26.5554 126.442 26.4826 126.214 26.3335 126.016C26.1843 125.817 25.973 125.662 25.6996 125.552C25.4297 125.442 25.1101 125.387 24.7408 125.387H23.6808V123.512H24.7408C25.0639 123.512 25.348 123.459 25.593 123.352C25.8416 123.246 26.0352 123.097 26.1737 122.905C26.3121 122.71 26.3796 122.486 26.3761 122.234C26.3796 121.989 26.321 121.774 26.2003 121.589C26.0831 121.401 25.918 121.255 25.7049 121.152C25.4954 121.049 25.2521 120.998 24.9751 120.998C24.6839 120.998 24.4194 121.049 24.1815 121.152C23.9471 121.255 23.7607 121.401 23.6222 121.589C23.4837 121.777 23.4109 121.996 23.4038 122.244H20.8842C20.8913 121.594 21.0724 121.023 21.4276 120.529C21.7827 120.032 22.2656 119.643 22.8764 119.363C23.4908 119.082 24.1903 118.942 24.9751 118.942C25.7564 118.942 26.4435 119.078 27.0366 119.352C27.6296 119.625 28.0913 119.998 28.4215 120.471C28.7518 120.939 28.9169 121.47 28.9169 122.063C28.9205 122.678 28.7198 123.184 28.315 123.581C27.9137 123.979 27.397 124.224 26.7649 124.316V124.402C27.6101 124.501 28.2475 124.775 28.6772 125.222C29.1104 125.669 29.3253 126.229 29.3217 126.9C29.3217 127.532 29.1353 128.093 28.7624 128.583C28.3931 129.07 27.8782 129.453 27.2177 129.734C26.5607 130.011 25.8061 130.149 24.9538 130.149ZM34.2354 130.149C33.4399 130.149 32.7332 130.005 32.1153 129.718C31.4974 129.43 31.0091 129.034 30.6505 128.53C30.2954 128.026 30.1107 127.447 30.0965 126.793H32.6533C32.6746 127.195 32.838 127.518 33.1434 127.763C33.4488 128.004 33.8128 128.125 34.2354 128.125C34.5656 128.125 34.8586 128.052 35.1143 127.907C35.3699 127.761 35.5706 127.557 35.7162 127.294C35.8618 127.028 35.9328 126.722 35.9292 126.378C35.9328 126.026 35.86 125.719 35.7108 125.456C35.5653 125.194 35.3628 124.989 35.1036 124.844C34.8479 124.695 34.5532 124.62 34.2194 124.62C33.9033 124.616 33.6032 124.686 33.3192 124.828C33.0386 124.97 32.8256 125.163 32.68 125.408L30.3522 124.972L30.8263 119.091H37.8256V121.216H32.9942L32.7439 123.789H32.8078C32.9889 123.487 33.2801 123.239 33.6814 123.043C34.0862 122.844 34.5461 122.745 35.061 122.745C35.7144 122.745 36.2968 122.898 36.8081 123.203C37.3231 123.505 37.7279 123.924 38.0226 124.46C38.3209 124.996 38.4701 125.611 38.4701 126.303C38.4701 127.053 38.2925 127.717 37.9374 128.295C37.5858 128.874 37.0922 129.329 36.4566 129.659C35.8245 129.986 35.0841 130.149 34.2354 130.149ZM39.0344 128.189V126.133L43.5036 119.091H45.3306V121.882H44.2706L41.6552 126.026V126.112H48.1271V128.189H39.0344ZM44.3026 130V127.56L44.3558 126.66V119.091H46.8221V130H44.3026ZM48.7594 130V128.104L52.7385 124.62C53.0368 124.35 53.2907 124.103 53.5002 123.88C53.7097 123.652 53.8695 123.425 53.9796 123.198C54.0897 122.967 54.1447 122.717 54.1447 122.447C54.1447 122.145 54.079 121.887 53.9476 121.674C53.8162 121.458 53.6351 121.291 53.4043 121.174C53.1735 121.056 52.9089 120.998 52.6106 120.998C52.3088 120.998 52.0442 121.06 51.8169 121.184C51.5897 121.305 51.4121 121.481 51.2843 121.712C51.16 121.942 51.0978 122.223 51.0978 122.553H48.5996C48.5996 121.811 48.7665 121.17 49.1003 120.63C49.4341 120.091 49.9029 119.675 50.5066 119.384C51.1138 119.089 51.8187 118.942 52.6213 118.942C53.4487 118.942 54.1678 119.08 54.7786 119.357C55.3894 119.634 55.8617 120.021 56.1955 120.518C56.5328 121.012 56.7015 121.586 56.7015 122.239C56.7015 122.654 56.6181 123.066 56.4512 123.475C56.2843 123.883 55.9842 124.334 55.551 124.828C55.1213 125.321 54.5105 125.913 53.7186 126.602L52.4135 127.805V127.875H56.8347V130H48.7594Z" fill="white"/>
<path d="M79.0657 130.149C78.217 130.149 77.4588 130.014 76.7912 129.744C76.1271 129.471 75.6051 129.102 75.2251 128.636C74.8487 128.168 74.6605 127.638 74.6605 127.049C74.6605 126.598 74.7688 126.184 74.9854 125.808C75.2021 125.431 75.495 125.119 75.8643 124.87C76.2372 124.618 76.6527 124.457 77.1108 124.386V124.3C76.5107 124.19 76.0188 123.912 75.6353 123.464C75.2553 123.017 75.0653 122.493 75.0653 121.893C75.0653 121.325 75.2376 120.819 75.582 120.375C75.93 119.931 76.4041 119.581 77.0043 119.325C77.608 119.07 78.2951 118.942 79.0657 118.942C79.8363 118.942 80.5217 119.07 81.1218 119.325C81.7255 119.581 82.1996 119.931 82.544 120.375C82.892 120.819 83.0661 121.325 83.0661 121.893C83.0661 122.496 82.8725 123.022 82.4854 123.469C82.1019 123.913 81.6136 124.19 81.0206 124.3V124.386C81.4751 124.457 81.8871 124.618 82.2564 124.87C82.6293 125.119 82.924 125.431 83.1406 125.808C83.3608 126.184 83.4709 126.598 83.4709 127.049C83.4709 127.638 83.2809 128.168 82.9009 128.636C82.521 129.102 81.9989 129.471 81.3349 129.744C80.6744 130.014 79.918 130.149 79.0657 130.149ZM79.0657 128.279C79.3888 128.279 79.6729 128.219 79.918 128.098C80.163 127.974 80.3548 127.802 80.4933 127.582C80.6353 127.362 80.7063 127.113 80.7063 126.836C80.7063 126.552 80.6353 126.3 80.4933 126.08C80.3512 125.859 80.1559 125.687 79.9073 125.563C79.6623 125.435 79.3817 125.371 79.0657 125.371C78.7532 125.371 78.4727 125.435 78.2241 125.563C77.9755 125.687 77.7802 125.859 77.6381 126.08C77.4961 126.3 77.4251 126.552 77.4251 126.836C77.4251 127.113 77.4943 127.362 77.6328 127.582C77.7749 127.798 77.9684 127.969 78.2134 128.093C78.462 128.217 78.7461 128.279 79.0657 128.279ZM79.0657 123.512C79.3427 123.512 79.5877 123.455 79.8008 123.342C80.0174 123.228 80.1861 123.07 80.3068 122.868C80.4311 122.665 80.4933 122.436 80.4933 122.18C80.4933 121.925 80.4311 121.699 80.3068 121.504C80.1861 121.309 80.0192 121.156 79.8061 121.046C79.593 120.932 79.3462 120.875 79.0657 120.875C78.7887 120.875 78.5419 120.932 78.3253 121.046C78.1087 121.156 77.94 121.309 77.8192 121.504C77.6985 121.699 77.6381 121.925 77.6381 122.18C77.6381 122.436 77.6985 122.665 77.8192 122.868C77.9435 123.066 78.114 123.224 78.3306 123.342C78.5472 123.455 78.7923 123.512 79.0657 123.512ZM88.2979 118.942C88.8945 118.942 89.4645 119.039 90.0078 119.235C90.5511 119.426 91.0359 119.734 91.462 120.156C91.8881 120.575 92.2237 121.127 92.4688 121.813C92.7138 122.498 92.8363 123.335 92.8363 124.322C92.8398 125.231 92.7333 126.046 92.5167 126.767C92.3001 127.484 91.9893 128.095 91.5845 128.599C91.1832 129.103 90.7003 129.489 90.1357 129.755C89.571 130.018 88.9407 130.149 88.2447 130.149C87.4776 130.149 86.8011 130.002 86.2152 129.707C85.6328 129.409 85.1658 129.007 84.8143 128.503C84.4663 127.999 84.2585 127.434 84.1911 126.809H86.7852C86.8668 127.172 87.0391 127.445 87.3018 127.63C87.5646 127.811 87.8789 127.901 88.2447 127.901C88.9123 127.901 89.4112 127.612 89.7415 127.033C90.0717 126.454 90.2369 125.668 90.2369 124.673H90.1729C90.0202 125 89.8036 125.281 89.5231 125.515C89.2461 125.749 88.9247 125.929 88.5589 126.053C88.1932 126.177 87.8079 126.239 87.4031 126.239C86.7496 126.239 86.1726 126.09 85.6719 125.792C85.1747 125.494 84.7841 125.083 84.5 124.561C84.2195 124.039 84.0774 123.443 84.0739 122.772C84.0703 122.019 84.2461 121.355 84.6012 120.779C84.9563 120.201 85.4517 119.75 86.0874 119.426C86.723 119.1 87.4599 118.938 88.2979 118.942ZM88.3139 120.966C87.9872 120.966 87.696 121.042 87.4403 121.195C87.1882 121.348 86.9893 121.554 86.8438 121.813C86.6982 122.072 86.6271 122.363 86.6307 122.686C86.6342 123.01 86.707 123.301 86.8491 123.56C86.9947 123.819 87.1918 124.025 87.4403 124.178C87.6925 124.331 87.9801 124.407 88.3033 124.407C88.5447 124.407 88.7685 124.363 88.9744 124.274C89.1804 124.185 89.3597 124.062 89.5124 123.906C89.6651 123.746 89.7841 123.562 89.8693 123.352C89.9581 123.143 90.0007 122.919 89.9972 122.681C89.9936 122.365 89.919 122.077 89.7734 121.818C89.6278 121.559 89.4272 121.353 89.1715 121.2C88.9194 121.044 88.6335 120.966 88.3139 120.966ZM98.5782 119.091V130H95.9468V121.552H95.8829L93.4433 123.043V120.763L96.1333 119.091H98.5782ZM100.107 128.189V126.133L104.576 119.091H106.403V121.882H105.343L102.727 126.026V126.112H109.199V128.189H100.107ZM105.375 130V127.56L105.428 126.66V119.091H107.894V130H105.375Z" fill="white"/>
<path d="M128.671 128.189V126.133L133.14 119.091H134.967V121.882H133.907L131.292 126.026V126.112H137.764V128.189H128.671ZM133.939 130V127.56L133.993 126.66V119.091H136.459V130H133.939ZM142.769 130.149C142.173 130.149 141.601 130.053 141.054 129.862C140.507 129.666 140.021 129.357 139.595 128.935C139.169 128.509 138.833 127.951 138.588 127.262C138.343 126.57 138.222 125.726 138.226 124.732C138.229 123.833 138.339 123.027 138.556 122.314C138.773 121.596 139.081 120.987 139.483 120.487C139.888 119.986 140.371 119.604 140.932 119.341C141.496 119.075 142.127 118.942 142.823 118.942C143.586 118.942 144.259 119.091 144.841 119.389C145.427 119.684 145.896 120.082 146.248 120.582C146.599 121.08 146.807 121.634 146.871 122.244H144.277C144.199 121.9 144.026 121.639 143.76 121.461C143.497 121.28 143.185 121.19 142.823 121.19C142.155 121.19 141.656 121.479 141.326 122.058C140.999 122.637 140.832 123.411 140.825 124.38H140.894C141.044 124.054 141.258 123.773 141.539 123.539C141.819 123.304 142.141 123.125 142.503 123.001C142.869 122.873 143.256 122.809 143.664 122.809C144.318 122.809 144.895 122.96 145.395 123.262C145.896 123.564 146.289 123.977 146.573 124.503C146.857 125.025 146.997 125.623 146.993 126.298C146.997 127.058 146.819 127.729 146.461 128.311C146.102 128.89 145.605 129.341 144.969 129.664C144.337 129.988 143.604 130.149 142.769 130.149ZM142.753 128.125C143.077 128.125 143.366 128.049 143.622 127.896C143.877 127.743 144.078 127.536 144.224 127.273C144.369 127.01 144.44 126.713 144.437 126.383C144.44 126.049 144.369 125.753 144.224 125.494C144.081 125.234 143.883 125.028 143.627 124.876C143.375 124.723 143.085 124.647 142.759 124.647C142.521 124.647 142.299 124.691 142.093 124.78C141.887 124.869 141.708 124.993 141.555 125.153C141.406 125.309 141.289 125.494 141.203 125.707C141.118 125.916 141.074 126.143 141.07 126.388C141.074 126.712 141.148 127.005 141.294 127.267C141.439 127.53 141.638 127.74 141.89 127.896C142.143 128.049 142.43 128.125 142.753 128.125ZM152 130.149C151.152 130.149 150.393 130.014 149.726 129.744C149.062 129.471 148.54 129.102 148.16 128.636C147.783 128.168 147.595 127.638 147.595 127.049C147.595 126.598 147.703 126.184 147.92 125.808C148.137 125.431 148.43 125.119 148.799 124.87C149.172 124.618 149.587 124.457 150.045 124.386V124.3C149.445 124.19 148.953 123.912 148.57 123.464C148.19 123.017 148 122.493 148 121.893C148 121.325 148.172 120.819 148.517 120.375C148.865 119.931 149.339 119.581 149.939 119.325C150.543 119.07 151.23 118.942 152 118.942C152.771 118.942 153.456 119.07 154.056 119.325C154.66 119.581 155.134 119.931 155.479 120.375C155.827 120.819 156.001 121.325 156.001 121.893C156.001 122.496 155.807 123.022 155.42 123.469C155.036 123.913 154.548 124.19 153.955 124.3V124.386C154.41 124.457 154.822 124.618 155.191 124.87C155.564 125.119 155.859 125.431 156.075 125.808C156.295 126.184 156.405 126.598 156.405 127.049C156.405 127.638 156.215 128.168 155.835 128.636C155.456 129.102 154.934 129.471 154.269 129.744C153.609 130.014 152.853 130.149 152 130.149ZM152 128.279C152.323 128.279 152.608 128.219 152.853 128.098C153.098 127.974 153.289 127.802 153.428 127.582C153.57 127.362 153.641 127.113 153.641 126.836C153.641 126.552 153.57 126.3 153.428 126.08C153.286 125.859 153.09 125.687 152.842 125.563C152.597 125.435 152.316 125.371 152 125.371C151.688 125.371 151.407 125.435 151.159 125.563C150.91 125.687 150.715 125.859 150.573 126.08C150.431 126.3 150.36 126.552 150.36 126.836C150.36 127.113 150.429 127.362 150.567 127.582C150.709 127.798 150.903 127.969 151.148 128.093C151.397 128.217 151.681 128.279 152 128.279ZM152 123.512C152.277 123.512 152.522 123.455 152.735 123.342C152.952 123.228 153.121 123.07 153.241 122.868C153.366 122.665 153.428 122.436 153.428 122.18C153.428 121.925 153.366 121.699 153.241 121.504C153.121 121.309 152.954 121.156 152.741 121.046C152.528 120.932 152.281 120.875 152 120.875C151.723 120.875 151.476 120.932 151.26 121.046C151.043 121.156 150.875 121.309 150.754 121.504C150.633 121.699 150.573 121.925 150.573 122.18C150.573 122.436 150.633 122.665 150.754 122.868C150.878 123.066 151.049 123.224 151.265 123.342C151.482 123.455 151.727 123.512 152 123.512ZM162.17 119.091V130H159.539V121.552H159.475L157.035 123.043V120.763L159.725 119.091H162.17Z" fill="white"/>
<path d="M187.849 119.091V130H185.217V121.552H185.153L182.714 123.043V120.763L185.404 119.091H187.849ZM189.51 130V128.104L193.489 124.62C193.788 124.35 194.042 124.103 194.251 123.88C194.461 123.652 194.62 123.425 194.731 123.198C194.841 122.967 194.896 122.717 194.896 122.447C194.896 122.145 194.83 121.887 194.699 121.674C194.567 121.458 194.386 121.291 194.155 121.174C193.924 121.056 193.66 120.998 193.362 120.998C193.06 120.998 192.795 121.06 192.568 121.184C192.341 121.305 192.163 121.481 192.035 121.712C191.911 121.942 191.849 122.223 191.849 122.553H189.351C189.351 121.811 189.517 121.17 189.851 120.63C190.185 120.091 190.654 119.675 191.258 119.384C191.865 119.089 192.57 118.942 193.372 118.942C194.2 118.942 194.919 119.08 195.53 119.357C196.14 119.634 196.613 120.021 196.946 120.518C197.284 121.012 197.453 121.586 197.453 122.239C197.453 122.654 197.369 123.066 197.202 123.475C197.035 123.883 196.735 124.334 196.302 124.828C195.872 125.321 195.261 125.913 194.47 126.602L193.165 127.805V127.875H197.586V130H189.51ZM202.502 130.149C201.706 130.149 201 130.005 200.382 129.718C199.764 129.43 199.276 129.034 198.917 128.53C198.562 128.026 198.377 127.447 198.363 126.793H200.92C200.941 127.195 201.105 127.518 201.41 127.763C201.715 128.004 202.079 128.125 202.502 128.125C202.832 128.125 203.125 128.052 203.381 127.907C203.637 127.761 203.837 127.557 203.983 127.294C204.128 127.028 204.199 126.722 204.196 126.378C204.199 126.026 204.127 125.719 203.977 125.456C203.832 125.194 203.629 124.989 203.37 124.844C203.115 124.695 202.82 124.62 202.486 124.62C202.17 124.616 201.87 124.686 201.586 124.828C201.305 124.97 201.092 125.163 200.947 125.408L198.619 124.972L199.093 119.091H206.092V121.216H201.261L201.01 123.789H201.074C201.256 123.487 201.547 123.239 201.948 123.043C202.353 122.844 202.813 122.745 203.328 122.745C203.981 122.745 204.563 122.898 205.075 123.203C205.59 123.505 205.994 123.924 206.289 124.46C206.588 124.996 206.737 125.611 206.737 126.303C206.737 127.053 206.559 127.717 206.204 128.295C205.852 128.874 205.359 129.329 204.723 129.659C204.091 129.986 203.351 130.149 202.502 130.149ZM211.946 130.266C210.994 130.266 210.174 130.041 209.485 129.59C208.796 129.135 208.265 128.484 207.892 127.635C207.519 126.783 207.335 125.758 207.338 124.561C207.342 123.365 207.528 122.349 207.898 121.515C208.271 120.676 208.8 120.039 209.485 119.602C210.174 119.162 210.994 118.942 211.946 118.942C212.898 118.942 213.718 119.162 214.407 119.602C215.099 120.039 215.632 120.676 216.005 121.515C216.378 122.353 216.562 123.368 216.559 124.561C216.559 125.762 216.372 126.788 216 127.64C215.627 128.493 215.096 129.144 214.407 129.595C213.722 130.043 212.901 130.266 211.946 130.266ZM211.946 128.109C212.514 128.109 212.974 127.82 213.326 127.241C213.677 126.658 213.851 125.765 213.848 124.561C213.848 123.773 213.768 123.123 213.608 122.612C213.448 122.097 213.226 121.713 212.942 121.461C212.658 121.209 212.326 121.083 211.946 121.083C211.381 121.083 210.925 121.369 210.577 121.941C210.229 122.509 210.053 123.382 210.05 124.561C210.046 125.36 210.122 126.023 210.279 126.548C210.438 127.074 210.662 127.466 210.95 127.725C211.237 127.981 211.57 128.109 211.946 128.109Z" fill="white"/>
<rect x="19.6523" y="56" width="59.3478" height="39" rx="8" fill="url(#paint0_linear_73_1538)"/>
<mask id="path-9-inside-1_73_1538" fill="white">
<path d="M62.8911 56V95H35.7607V56H62.8911Z"/>
</mask>
<path d="M60.8911 56V95H64.8911V56H60.8911ZM37.7607 95V56H33.7607V95H37.7607Z" fill="#FFBE17" mask="url(#path-9-inside-1_73_1538)"/>
<mask id="path-11-inside-2_73_1538" fill="white">
<path d="M34 66C34 61.5817 37.5817 58 42 58H56C60.4183 58 64 61.5817 64 66V84C64 88.4183 60.4183 92 56 92H42C37.5817 92 34 88.4183 34 84V66Z"/>
</mask>
<path d="M42 60H56V56H42V60ZM62 66V84H66V66H62ZM56 90H42V94H56V90ZM36 84V66H32V84H36ZM42 90C38.6863 90 36 87.3137 36 84H32C32 89.5228 36.4772 94 42 94V90ZM62 84C62 87.3137 59.3137 90 56 90V94C61.5228 94 66 89.5228 66 84H62ZM56 60C59.3137 60 62 62.6863 62 66H66C66 60.4772 61.5228 56 56 56V60ZM42 56C36.4772 56 32 60.4772 32 66H36C36 62.6863 38.6863 60 42 60V56Z" fill="#FFBE17" mask="url(#path-11-inside-2_73_1538)"/>
<mask id="path-13-inside-3_73_1538" fill="white">
<path d="M19.6523 69.5652H79.0002V81.4348H19.6523V69.5652Z"/>
</mask>
<path d="M19.6523 71.5652H79.0002V67.5652H19.6523V71.5652ZM79.0002 79.4348H19.6523V83.4348H79.0002V79.4348Z" fill="#FFBE17" mask="url(#path-13-inside-3_73_1538)"/>
<path d="M20.8608 170V161.273H22.4418V164.967H26.4858V161.273H28.071V170H26.4858V166.293H22.4418V170H20.8608ZM36.9888 165.636C36.9888 166.577 36.8126 167.382 36.4604 168.053C36.1109 168.72 35.6337 169.232 35.0286 169.587C34.4263 169.942 33.743 170.119 32.9788 170.119C32.2146 170.119 31.53 169.942 30.9249 169.587C30.3226 169.229 29.8453 168.716 29.493 168.048C29.1436 167.378 28.9689 166.574 28.9689 165.636C28.9689 164.696 29.1436 163.892 29.493 163.224C29.8453 162.554 30.3226 162.041 30.9249 161.686C31.53 161.331 32.2146 161.153 32.9788 161.153C33.743 161.153 34.4263 161.331 35.0286 161.686C35.6337 162.041 36.1109 162.554 36.4604 163.224C36.8126 163.892 36.9888 164.696 36.9888 165.636ZM35.3993 165.636C35.3993 164.974 35.2956 164.416 35.0882 163.962C34.8837 163.504 34.5996 163.159 34.2359 162.926C33.8723 162.69 33.4533 162.572 32.9788 162.572C32.5044 162.572 32.0854 162.69 31.7217 162.926C31.3581 163.159 31.0726 163.504 30.8652 163.962C30.6607 164.416 30.5584 164.974 30.5584 165.636C30.5584 166.298 30.6607 166.858 30.8652 167.315C31.0726 167.77 31.3581 168.115 31.7217 168.351C32.0854 168.584 32.5044 168.7 32.9788 168.7C33.4533 168.7 33.8723 168.584 34.2359 168.351C34.5996 168.115 34.8837 167.77 35.0882 167.315C35.2956 166.858 35.3993 166.298 35.3993 165.636ZM45.0553 161.273V170H43.6491L39.5369 164.055H39.4644V170H37.8835V161.273H39.2982L43.4062 167.222H43.4829V161.273H45.0553ZM52.0246 164.06C51.9536 163.83 51.8555 163.624 51.7305 163.442C51.6084 163.257 51.4607 163.099 51.2874 162.969C51.1169 162.838 50.9209 162.74 50.6993 162.675C50.4777 162.607 50.2362 162.572 49.9749 162.572C49.5061 162.572 49.0885 162.69 48.722 162.926C48.3555 163.162 48.0672 163.509 47.857 163.966C47.6496 164.42 47.5459 164.974 47.5459 165.628C47.5459 166.287 47.6496 166.845 47.857 167.303C48.0643 167.76 48.3527 168.108 48.722 168.347C49.0913 168.582 49.5203 168.7 50.0089 168.7C50.4521 168.7 50.8357 168.615 51.1595 168.445C51.4862 168.274 51.7376 168.033 51.9138 167.72C52.0899 167.405 52.178 167.036 52.178 166.612L52.5359 166.668H50.1666V165.432H53.7078V166.48C53.7078 167.227 53.5487 167.874 53.2305 168.419C52.9124 168.964 52.4749 169.385 51.918 169.68C51.3612 169.973 50.722 170.119 50.0004 170.119C49.1964 170.119 48.4905 169.939 47.8825 169.578C47.2774 169.214 46.8044 168.699 46.4635 168.031C46.1254 167.361 45.9564 166.565 45.9564 165.645C45.9564 164.94 46.0558 164.311 46.2547 163.757C46.4564 163.203 46.7376 162.733 47.0984 162.347C47.4592 161.957 47.8825 161.662 48.3683 161.46C48.8541 161.256 49.3825 161.153 49.9536 161.153C50.4365 161.153 50.8868 161.224 51.3044 161.366C51.722 161.506 52.0928 161.705 52.4166 161.963C52.7433 162.222 53.0118 162.528 53.222 162.884C53.4322 163.239 53.57 163.631 53.6354 164.06H52.0246ZM62.8597 164.06C62.7887 163.83 62.6907 163.624 62.5657 163.442C62.4435 163.257 62.2958 163.099 62.1225 162.969C61.9521 162.838 61.756 162.74 61.5344 162.675C61.3129 162.607 61.0714 162.572 60.81 162.572C60.3413 162.572 59.9237 162.69 59.5572 162.926C59.1907 163.162 58.9023 163.509 58.6921 163.966C58.4847 164.42 58.381 164.974 58.381 165.628C58.381 166.287 58.4847 166.845 58.6921 167.303C58.8995 167.76 59.1879 168.108 59.5572 168.347C59.9265 168.582 60.3555 168.7 60.8441 168.7C61.2873 168.7 61.6708 168.615 61.9947 168.445C62.3214 168.274 62.5728 168.033 62.7489 167.72C62.9251 167.405 63.0131 167.036 63.0131 166.612L63.3711 166.668H61.0018V165.432H64.543V166.48C64.543 167.227 64.3839 167.874 64.0657 168.419C63.7475 168.964 63.31 169.385 62.7532 169.68C62.1964 169.973 61.5572 170.119 60.8356 170.119C60.0316 170.119 59.3256 169.939 58.7177 169.578C58.1126 169.214 57.6396 168.699 57.2987 168.031C56.9606 167.361 56.7915 166.565 56.7915 165.645C56.7915 164.94 56.891 164.311 57.0898 163.757C57.2915 163.203 57.5728 162.733 57.9336 162.347C58.2944 161.957 58.7177 161.662 59.2035 161.46C59.6893 161.256 60.2177 161.153 60.7887 161.153C61.2717 161.153 61.7219 161.224 62.1396 161.366C62.5572 161.506 62.9279 161.705 63.2518 161.963C63.5785 162.222 63.8469 162.528 64.0572 162.884C64.2674 163.239 64.4052 163.631 64.4705 164.06H62.8597ZM67.0527 161.273V170H65.4717V161.273H67.0527ZM68.1647 170V161.273H69.7457V168.675H73.5894V170H68.1647ZM79.6955 170H76.7381V161.273H79.7552C80.6217 161.273 81.366 161.447 81.9881 161.797C82.6131 162.143 83.0933 162.642 83.4285 163.293C83.7637 163.943 83.9313 164.722 83.9313 165.628C83.9313 166.537 83.7623 167.318 83.4242 167.972C83.089 168.625 82.6046 169.126 81.9711 169.476C81.3404 169.825 80.5819 170 79.6955 170ZM78.3191 168.632H79.6188C80.2268 168.632 80.7339 168.521 81.1401 168.3C81.5464 168.075 81.8518 167.741 82.0563 167.298C82.2609 166.852 82.3631 166.295 82.3631 165.628C82.3631 164.96 82.2609 164.406 82.0563 163.966C81.8518 163.523 81.5492 163.192 81.1486 162.973C80.7509 162.751 80.2566 162.641 79.6657 162.641H78.3191V168.632ZM92.6317 165.636C92.6317 166.577 92.4556 167.382 92.1033 168.053C91.7539 168.72 91.2766 169.232 90.6715 169.587C90.0692 169.942 89.386 170.119 88.6218 170.119C87.8576 170.119 87.1729 169.942 86.5678 169.587C85.9656 169.229 85.4883 168.716 85.136 168.048C84.7866 167.378 84.6119 166.574 84.6119 165.636C84.6119 164.696 84.7866 163.892 85.136 163.224C85.4883 162.554 85.9656 162.041 86.5678 161.686C87.1729 161.331 87.8576 161.153 88.6218 161.153C89.386 161.153 90.0692 161.331 90.6715 161.686C91.2766 162.041 91.7539 162.554 92.1033 163.224C92.4556 163.892 92.6317 164.696 92.6317 165.636ZM91.0423 165.636C91.0423 164.974 90.9386 164.416 90.7312 163.962C90.5266 163.504 90.2425 163.159 89.8789 162.926C89.5153 162.69 89.0962 162.572 88.6218 162.572C88.1474 162.572 87.7283 162.69 87.3647 162.926C87.0011 163.159 86.7156 163.504 86.5082 163.962C86.3036 164.416 86.2013 164.974 86.2013 165.636C86.2013 166.298 86.3036 166.858 86.5082 167.315C86.7156 167.77 87.0011 168.115 87.3647 168.351C87.7283 168.584 88.1474 168.7 88.6218 168.7C89.0962 168.7 89.5153 168.584 89.8789 168.351C90.2425 168.115 90.5266 167.77 90.7312 167.315C90.9386 166.858 91.0423 166.298 91.0423 165.636ZM100.698 161.273V170H99.292L95.1798 164.055H95.1074V170H93.5264V161.273H94.9412L99.0491 167.222H99.1259V161.273H100.698ZM107.668 164.06C107.597 163.83 107.499 163.624 107.374 163.442C107.251 163.257 107.104 163.099 106.93 162.969C106.76 162.838 106.564 162.74 106.342 162.675C106.121 162.607 105.879 162.572 105.618 162.572C105.149 162.572 104.731 162.69 104.365 162.926C103.999 163.162 103.71 163.509 103.5 163.966C103.293 164.42 103.189 164.974 103.189 165.628C103.189 166.287 103.293 166.845 103.5 167.303C103.707 167.76 103.996 168.108 104.365 168.347C104.734 168.582 105.163 168.7 105.652 168.7C106.095 168.7 106.479 168.615 106.802 168.445C107.129 168.274 107.381 168.033 107.557 167.72C107.733 167.405 107.821 167.036 107.821 166.612L108.179 166.668H105.81V165.432H109.351V166.48C109.351 167.227 109.192 167.874 108.874 168.419C108.555 168.964 108.118 169.385 107.561 169.68C107.004 169.973 106.365 170.119 105.643 170.119C104.839 170.119 104.133 169.939 103.526 169.578C102.92 169.214 102.447 168.699 102.106 168.031C101.768 167.361 101.599 166.565 101.599 165.645C101.599 164.94 101.699 164.311 101.898 163.757C102.099 163.203 102.381 162.733 102.741 162.347C103.102 161.957 103.526 161.662 104.011 161.46C104.497 161.256 105.026 161.153 105.597 161.153C106.079 161.153 106.53 161.224 106.947 161.366C107.365 161.506 107.736 161.705 108.06 161.963C108.386 162.222 108.655 162.528 108.865 162.884C109.075 163.239 109.213 163.631 109.278 164.06H107.668Z" fill="white"/>
<path d="M188.001 162.166C187.3 162.166 186.697 161.989 186.195 161.634C185.695 161.276 185.31 160.76 185.04 160.087C184.773 159.411 184.639 158.597 184.639 157.645C184.642 156.693 184.777 155.884 185.044 155.216C185.314 154.545 185.699 154.034 186.199 153.682C186.702 153.33 187.303 153.153 188.001 153.153C188.7 153.153 189.301 153.33 189.804 153.682C190.307 154.034 190.692 154.545 190.959 155.216C191.229 155.886 191.364 156.696 191.364 157.645C191.364 158.599 191.229 159.415 190.959 160.091C190.692 160.764 190.307 161.278 189.804 161.634C189.304 161.989 188.703 162.166 188.001 162.166ZM188.001 160.832C188.547 160.832 188.977 160.564 189.293 160.027C189.611 159.487 189.77 158.693 189.77 157.645C189.77 156.952 189.697 156.369 189.553 155.898C189.408 155.426 189.203 155.071 188.939 154.832C188.675 154.591 188.362 154.47 188.001 154.47C187.459 154.47 187.03 154.74 186.714 155.28C186.399 155.817 186.24 156.605 186.237 157.645C186.234 158.341 186.304 158.926 186.446 159.401C186.591 159.875 186.795 160.233 187.06 160.474C187.324 160.713 187.638 160.832 188.001 160.832ZM192.022 160.381V159.124L195.725 153.273H196.773V155.062H196.134L193.641 159.013V159.081H198.81V160.381H192.022ZM196.185 162V159.997L196.202 159.435V153.273H197.694V162H196.185ZM203.151 152.864L200.339 163.312H198.988L201.8 152.864H203.151ZM203.519 162V160.858L206.548 157.888C206.838 157.595 207.08 157.335 207.273 157.108C207.466 156.881 207.611 156.661 207.707 156.447C207.804 156.234 207.852 156.007 207.852 155.766C207.852 155.49 207.79 155.254 207.665 155.058C207.54 154.859 207.368 154.706 207.149 154.598C206.93 154.49 206.682 154.436 206.403 154.436C206.117 154.436 205.865 154.496 205.649 154.615C205.433 154.732 205.266 154.898 205.146 155.114C205.03 155.33 204.972 155.587 204.972 155.885H203.467C203.467 155.331 203.594 154.849 203.847 154.44C204.1 154.031 204.448 153.714 204.891 153.49C205.337 153.266 205.848 153.153 206.425 153.153C207.01 153.153 207.524 153.263 207.967 153.482C208.411 153.7 208.754 154 208.999 154.381C209.246 154.761 209.369 155.196 209.369 155.685C209.369 156.011 209.307 156.332 209.182 156.648C209.057 156.963 208.837 157.312 208.521 157.696C208.209 158.08 207.77 158.544 207.205 159.089L205.7 160.619V160.679H209.501V162H203.519ZM213.406 162.119C212.838 162.119 212.329 162.013 211.88 161.8C211.431 161.584 211.075 161.288 210.811 160.913C210.549 160.538 210.41 160.109 210.393 159.626H211.927C211.955 159.984 212.11 160.277 212.392 160.504C212.673 160.729 213.011 160.841 213.406 160.841C213.715 160.841 213.991 160.77 214.232 160.628C214.474 160.486 214.664 160.288 214.803 160.036C214.943 159.783 215.011 159.494 215.008 159.17C215.011 158.841 214.941 158.548 214.799 158.293C214.657 158.037 214.463 157.837 214.215 157.692C213.968 157.544 213.684 157.47 213.363 157.47C213.102 157.467 212.845 157.516 212.592 157.615C212.339 157.714 212.139 157.845 211.991 158.007L210.563 157.773L211.019 153.273H216.082V154.594H212.328L212.076 156.908H212.127C212.289 156.717 212.518 156.56 212.813 156.435C213.109 156.307 213.433 156.243 213.785 156.243C214.313 156.243 214.785 156.368 215.2 156.618C215.615 156.865 215.941 157.206 216.18 157.641C216.419 158.075 216.538 158.572 216.538 159.132C216.538 159.709 216.404 160.223 216.137 160.675C215.873 161.124 215.505 161.477 215.034 161.736C214.565 161.991 214.022 162.119 213.406 162.119Z" fill="white"/>
<path d="M183.359 143.364H184.165L185.244 145.999H185.287L186.366 143.364H187.173V147H186.54V144.502H186.507L185.502 146.989H185.029L184.025 144.496H183.991V147H183.359V143.364ZM190.889 145.182C190.889 145.574 190.816 145.909 190.669 146.189C190.523 146.467 190.325 146.68 190.072 146.828C189.821 146.976 189.537 147.05 189.218 147.05C188.9 147.05 188.615 146.976 188.363 146.828C188.112 146.679 187.913 146.465 187.766 146.187C187.62 145.907 187.548 145.572 187.548 145.182C187.548 144.79 187.62 144.455 187.766 144.177C187.913 143.897 188.112 143.684 188.363 143.536C188.615 143.388 188.9 143.314 189.218 143.314C189.537 143.314 189.821 143.388 190.072 143.536C190.325 143.684 190.523 143.897 190.669 144.177C190.816 144.455 190.889 144.79 190.889 145.182ZM190.227 145.182C190.227 144.906 190.184 144.673 190.097 144.484C190.012 144.293 189.894 144.15 189.742 144.053C189.591 143.954 189.416 143.905 189.218 143.905C189.021 143.905 188.846 143.954 188.695 144.053C188.543 144.15 188.424 144.293 188.338 144.484C188.252 144.673 188.21 144.906 188.21 145.182C188.21 145.458 188.252 145.691 188.338 145.881C188.424 146.071 188.543 146.215 188.695 146.313C188.846 146.41 189.021 146.458 189.218 146.458C189.416 146.458 189.591 146.41 189.742 146.313C189.894 146.215 190.012 146.071 190.097 145.881C190.184 145.691 190.227 145.458 190.227 145.182ZM194.25 143.364V147H193.664L191.951 144.523H191.921V147H191.262V143.364H191.851L193.563 145.842H193.595V143.364H194.25ZM194.558 143.916V143.364H197.46V143.916H196.336V147H195.682V143.916H194.558ZM197.769 147V143.364H198.428V144.903H200.113V143.364H200.773V147H200.113V145.455H198.428V147H197.769ZM203.686 143.193L202.514 147.547H201.951L203.123 143.193H203.686ZM204.616 143.364H205.36L206.249 144.972H206.285L207.175 143.364H207.919L206.596 145.643V147H205.939V145.643L204.616 143.364ZM208.135 147V143.364H210.5V143.916H208.794V144.903H210.378V145.455H208.794V146.448H210.514V147H208.135ZM211.389 147H210.686L211.966 143.364H212.779L214.061 147H213.358L212.387 144.109H212.359L211.389 147ZM211.412 145.574H213.33V146.103H211.412V145.574ZM214.29 147V143.364H215.654C215.933 143.364 216.168 143.412 216.357 143.509C216.548 143.606 216.691 143.742 216.789 143.918C216.887 144.092 216.936 144.295 216.936 144.527C216.936 144.76 216.886 144.962 216.787 145.134C216.689 145.304 216.544 145.436 216.352 145.53C216.16 145.622 215.924 145.668 215.645 145.668H214.674V145.121H215.556C215.72 145.121 215.853 145.099 215.958 145.054C216.062 145.008 216.139 144.941 216.188 144.853C216.239 144.765 216.265 144.656 216.265 144.527C216.265 144.398 216.239 144.288 216.188 144.196C216.137 144.104 216.06 144.034 215.956 143.987C215.852 143.938 215.717 143.914 215.553 143.914H214.949V147H214.29ZM216.169 145.352L217.069 147H216.334L215.45 145.352H216.169Z" fill="white"/>
<path d="M164.845 153.364L165.792 156.226H165.829L166.773 153.364H167.498L166.216 157H165.403L164.123 153.364H164.845ZM167.769 157H167.066L168.346 153.364H169.159L170.441 157H169.738L168.767 154.109H168.738L167.769 157ZM167.792 155.574H169.71V156.103H167.792V155.574ZM170.67 157V153.364H171.329V156.448H172.93V157H170.67ZM173.911 153.364V157H173.252V153.364H173.911ZM175.607 157H174.374V153.364H175.631C175.992 153.364 176.303 153.436 176.562 153.582C176.822 153.726 177.022 153.934 177.162 154.205C177.302 154.476 177.371 154.801 177.371 155.178C177.371 155.557 177.301 155.883 177.16 156.155C177.02 156.427 176.819 156.636 176.555 156.782C176.292 156.927 175.976 157 175.607 157ZM175.033 156.43H175.575C175.828 156.43 176.039 156.384 176.208 156.292C176.378 156.198 176.505 156.059 176.59 155.874C176.675 155.688 176.718 155.456 176.718 155.178C176.718 154.9 176.675 154.669 176.59 154.486C176.505 154.301 176.379 154.163 176.212 154.072C176.046 153.98 175.84 153.934 175.594 153.934H175.033V156.43ZM164.199 159.916V159.364H167.1V159.916H165.976V163H165.323V159.916H164.199ZM167.409 163V159.364H168.068V160.903H169.753V159.364H170.414V163H169.753V161.455H168.068V163H167.409ZM170.88 163V159.364H172.244C172.523 159.364 172.758 159.412 172.947 159.509C173.137 159.606 173.281 159.742 173.378 159.918C173.477 160.092 173.526 160.295 173.526 160.527C173.526 160.76 173.476 160.962 173.377 161.134C173.278 161.304 173.133 161.436 172.942 161.53C172.75 161.622 172.514 161.668 172.235 161.668H171.264V161.121H172.146C172.309 161.121 172.443 161.099 172.547 161.054C172.652 161.008 172.729 160.941 172.778 160.853C172.829 160.765 172.855 160.656 172.855 160.527C172.855 160.398 172.829 160.288 172.778 160.196C172.727 160.104 172.65 160.034 172.546 159.987C172.441 159.938 172.307 159.914 172.143 159.914H171.539V163H170.88ZM172.759 161.352L173.659 163H172.924L172.04 161.352H172.759ZM176.174 159.364H176.833V161.739C176.833 162 176.772 162.229 176.648 162.426C176.527 162.624 176.355 162.779 176.134 162.89C175.912 163 175.654 163.055 175.358 163.055C175.06 163.055 174.801 163 174.58 162.89C174.359 162.779 174.187 162.624 174.065 162.426C173.943 162.229 173.882 162 173.882 161.739V159.364H174.541V161.684C174.541 161.836 174.574 161.971 174.64 162.089C174.708 162.208 174.802 162.3 174.924 162.368C175.046 162.434 175.191 162.467 175.358 162.467C175.525 162.467 175.669 162.434 175.791 162.368C175.914 162.3 176.009 162.208 176.075 162.089C176.141 161.971 176.174 161.836 176.174 161.684V159.364Z" fill="white"/>
<circle cx="264" cy="159" r="14" fill="#EF4242"/>
<circle cx="282" cy="159" r="14" fill="#FFC737"/>
<mask id="mask0_73_1538" style="mask-type:alpha" maskUnits="userSpaceOnUse" x="250" y="145" width="28" height="28">
<circle cx="264" cy="159" r="14" fill="#B09191"/>
</mask>
<g mask="url(#mask0_73_1538)">
<circle cx="282" cy="159" r="14" fill="#FF7F37"/>
</g>
<defs>
<linearGradient id="paint0_linear_73_1538" x1="79.0002" y1="75.5" x2="19.6523" y2="75.5" gradientUnits="userSpaceOnUse">
<stop stop-color="#FFEDBE"/>
<stop offset="0.9999" stop-color="#FFD467"/>
</linearGradient>
</defs>
</svg>
