<svg width="315" height="193" viewBox="0 0 315 193" fill="none" xmlns="http://www.w3.org/2000/svg">
<rect x="315" width="193" height="315" rx="12" transform="rotate(90 315 0)" fill="#5C5C5C"/>
<rect x="19.6523" y="53" width="59.3478" height="39" rx="8" fill="url(#paint0_linear_73_1540)"/>
<mask id="path-3-inside-1_73_1540" fill="white">
<path d="M62.8911 53V92H35.7607V53H62.8911Z"/>
</mask>
<path d="M60.8911 53V92H64.8911V53H60.8911ZM37.7607 92V53H33.7607V92H37.7607Z" fill="#FFBE17" mask="url(#path-3-inside-1_73_1540)"/>
<mask id="path-5-inside-2_73_1540" fill="white">
<path d="M34 63C34 58.5817 37.5817 55 42 55H56C60.4183 55 64 58.5817 64 63V81C64 85.4183 60.4183 89 56 89H42C37.5817 89 34 85.4183 34 81V63Z"/>
</mask>
<path d="M42 57H56V53H42V57ZM62 63V81H66V63H62ZM56 87H42V91H56V87ZM36 81V63H32V81H36ZM42 87C38.6863 87 36 84.3137 36 81H32C32 86.5228 36.4772 91 42 91V87ZM62 81C62 84.3137 59.3137 87 56 87V91C61.5228 91 66 86.5228 66 81H62ZM56 57C59.3137 57 62 59.6863 62 63H66C66 57.4772 61.5228 53 56 53V57ZM42 53C36.4772 53 32 57.4772 32 63H36C36 59.6863 38.6863 57 42 57V53Z" fill="#FFBE17" mask="url(#path-5-inside-2_73_1540)"/>
<mask id="path-7-inside-3_73_1540" fill="white">
<path d="M19.6523 66.5652H79.0002V78.4348H19.6523V66.5652Z"/>
</mask>
<path d="M19.6523 68.5652H79.0002V64.5652H19.6523V68.5652ZM79.0002 76.4348H19.6523V80.4348H79.0002V76.4348Z" fill="#FFBE17" mask="url(#path-7-inside-3_73_1540)"/>
<path d="M20.6605 23.2727H23.2727L25.4886 28.6761H25.5909L27.8068 23.2727H30.419V32H28.3651V26.6392H28.2926L26.196 31.9446H24.8835L22.7869 26.6094H22.7145V32H20.6605V23.2727ZM32.9799 32.1108C32.5623 32.1108 32.1915 32.0412 31.8677 31.902C31.5467 31.7599 31.2924 31.5469 31.1049 31.2628C30.9202 30.9759 30.8279 30.6165 30.8279 30.1847C30.8279 29.821 30.8918 29.5142 31.0197 29.2642C31.1475 29.0142 31.3237 28.8111 31.5481 28.6548C31.7725 28.4986 32.031 28.3807 32.3237 28.3011C32.6163 28.2187 32.9288 28.1634 33.2612 28.1349C33.6333 28.1009 33.933 28.0653 34.1603 28.0284C34.3876 27.9886 34.5523 27.9332 34.6546 27.8622C34.7597 27.7884 34.8123 27.6847 34.8123 27.5511V27.5298C34.8123 27.3111 34.737 27.142 34.5864 27.0227C34.4359 26.9034 34.2327 26.8438 33.9771 26.8438C33.7015 26.8438 33.4799 26.9034 33.3123 27.0227C33.1447 27.142 33.0381 27.3068 32.9927 27.517L31.0708 27.4489C31.1276 27.0511 31.2739 26.696 31.5097 26.3835C31.7484 26.0682 32.0751 25.821 32.4898 25.642C32.9075 25.4602 33.4089 25.3693 33.9941 25.3693C34.4117 25.3693 34.7967 25.419 35.1489 25.5185C35.5012 25.6151 35.808 25.7571 36.0694 25.9446C36.3308 26.1293 36.5325 26.3565 36.6745 26.6264C36.8194 26.8963 36.8918 27.2045 36.8918 27.5511V32H34.9316V31.0881H34.8805C34.764 31.3097 34.6148 31.4972 34.433 31.6506C34.254 31.804 34.0424 31.919 33.7981 31.9957C33.5566 32.0724 33.2839 32.1108 32.9799 32.1108ZM33.6234 30.7472C33.8478 30.7472 34.0495 30.7017 34.2285 30.6108C34.4103 30.5199 34.5552 30.3949 34.6631 30.2358C34.7711 30.0739 34.8251 29.8864 34.8251 29.6733V29.0511C34.7654 29.0824 34.693 29.1108 34.6077 29.1364C34.5254 29.1619 34.4344 29.1861 34.335 29.2088C34.2356 29.2315 34.1333 29.2514 34.0282 29.2685C33.9231 29.2855 33.8222 29.3011 33.7256 29.3153C33.5296 29.3466 33.362 29.3949 33.2228 29.4602C33.0864 29.5256 32.9813 29.6108 32.9075 29.7159C32.8364 29.8182 32.8009 29.9403 32.8009 30.0824C32.8009 30.2983 32.8776 30.4631 33.031 30.5767C33.1873 30.6903 33.3847 30.7472 33.6234 30.7472ZM43.2805 27.4531L41.3671 27.5043C41.3472 27.3679 41.2933 27.2472 41.2052 27.142C41.1171 27.0341 41.0021 26.9503 40.86 26.8906C40.7208 26.8281 40.5589 26.7969 40.3742 26.7969C40.1327 26.7969 39.9268 26.8452 39.7563 26.9418C39.5887 27.0384 39.5063 27.169 39.5092 27.3338C39.5063 27.4616 39.5575 27.5724 39.6626 27.6662C39.7705 27.7599 39.9623 27.8352 40.2379 27.892L41.4992 28.1307C42.1526 28.2557 42.6384 28.4631 42.9566 28.7528C43.2776 29.0426 43.4396 29.4261 43.4424 29.9034C43.4396 30.3523 43.306 30.7429 43.0418 31.0753C42.7805 31.4077 42.4225 31.6662 41.968 31.8509C41.5134 32.0327 40.9935 32.1236 40.4083 32.1236C39.4736 32.1236 38.7364 31.9318 38.1967 31.5483C37.6597 31.1619 37.3529 30.6449 37.2762 29.9972L39.3344 29.946C39.3799 30.1847 39.4978 30.3665 39.6881 30.4915C39.8785 30.6165 40.1214 30.679 40.4168 30.679C40.6839 30.679 40.9012 30.6293 41.0688 30.5298C41.2364 30.4304 41.3217 30.2983 41.3245 30.1335C41.3217 29.9858 41.2563 29.8679 41.1285 29.7798C41.0006 29.6889 40.8004 29.6179 40.5276 29.5668L39.3856 29.3494C38.7293 29.2301 38.2407 29.0099 37.9197 28.6889C37.5986 28.3651 37.4396 27.9531 37.4424 27.4531C37.4396 27.0156 37.556 26.642 37.7918 26.3324C38.0276 26.0199 38.3629 25.7812 38.7975 25.6165C39.2322 25.4517 39.745 25.3693 40.3359 25.3693C41.2222 25.3693 41.9211 25.5554 42.4325 25.9276C42.9438 26.2969 43.2265 26.8054 43.2805 27.4531ZM47.5629 25.4545V26.9886H43.4337V25.4545H47.5629ZM44.2987 23.8864H46.3825V29.9418C46.3825 30.0696 46.4024 30.1733 46.4422 30.2528C46.4848 30.3295 46.5459 30.3849 46.6254 30.419C46.705 30.4503 46.8001 30.4659 46.9109 30.4659C46.9905 30.4659 47.0743 30.4588 47.1624 30.4446C47.2533 30.4276 47.3214 30.4134 47.3669 30.402L47.6822 31.9062C47.5828 31.9347 47.4422 31.9702 47.2604 32.0128C47.0814 32.0554 46.8669 32.0824 46.6169 32.0938C46.1283 32.1165 45.7092 32.0597 45.3598 31.9233C45.0132 31.7841 44.7476 31.5682 44.5629 31.2756C44.3811 30.983 44.293 30.6151 44.2987 30.1719V23.8864ZM51.0155 32.1236C50.3308 32.1236 49.7399 31.9886 49.2428 31.7188C48.7484 31.446 48.3678 31.0582 48.1007 30.5554C47.8365 30.0497 47.7044 29.4489 47.7044 28.7528C47.7044 28.0767 47.8379 27.4858 48.105 26.9801C48.372 26.4716 48.7484 26.0767 49.2342 25.7955C49.72 25.5114 50.2925 25.3693 50.9516 25.3693C51.4175 25.3693 51.8436 25.4418 52.23 25.5866C52.6163 25.7315 52.9501 25.946 53.2314 26.2301C53.5126 26.5142 53.7314 26.8651 53.8876 27.2827C54.0439 27.6974 54.122 28.1733 54.122 28.7102V29.2301H48.4331V28.0199H52.1831C52.1803 27.7983 52.1277 27.6009 52.0254 27.4276C51.9232 27.2543 51.7825 27.1193 51.6036 27.0227C51.4274 26.9233 51.2243 26.8736 50.9942 26.8736C50.7612 26.8736 50.5524 26.9261 50.3678 27.0312C50.1831 27.1335 50.0368 27.2741 49.9288 27.4531C49.8209 27.6293 49.7641 27.8295 49.7584 28.054V29.2855C49.7584 29.5526 49.8109 29.7869 49.9161 29.9886C50.0212 30.1875 50.1703 30.3423 50.3635 30.4531C50.5567 30.5639 50.7868 30.6193 51.0538 30.6193C51.2385 30.6193 51.4061 30.5937 51.5567 30.5426C51.7072 30.4915 51.8365 30.4162 51.9445 30.3168C52.0524 30.2173 52.1334 30.0952 52.1874 29.9503L54.1007 30.0057C54.0212 30.4347 53.8464 30.8082 53.5766 31.1264C53.3095 31.4418 52.9587 31.6875 52.524 31.8636C52.0893 32.0369 51.5865 32.1236 51.0155 32.1236ZM54.5863 32V25.4545H56.6104V26.6477H56.6786C56.7979 26.2159 56.9925 25.8949 57.2624 25.6847C57.5323 25.4716 57.8462 25.3651 58.2042 25.3651C58.3008 25.3651 58.4002 25.3722 58.5025 25.3864C58.6048 25.3977 58.6999 25.4162 58.788 25.4418V27.2528C58.6886 27.2187 58.5579 27.1918 58.396 27.1719C58.2369 27.152 58.0948 27.142 57.9698 27.142C57.7227 27.142 57.4996 27.1974 57.3008 27.3082C57.1048 27.4162 56.9499 27.5682 56.8363 27.7642C56.7255 27.9574 56.6701 28.1847 56.6701 28.446V32H54.5863ZM68.9371 26.4347H66.8064C66.778 26.2159 66.7197 26.0185 66.6317 25.8423C66.5436 25.6662 66.4271 25.5156 66.2822 25.3906C66.1374 25.2656 65.9655 25.1705 65.7666 25.1051C65.5706 25.0369 65.3533 25.0028 65.1146 25.0028C64.6913 25.0028 64.3263 25.1065 64.0195 25.3139C63.7155 25.5213 63.4811 25.821 63.3163 26.2131C63.1544 26.6051 63.0734 27.0795 63.0734 27.6364C63.0734 28.2159 63.1558 28.7017 63.3206 29.0938C63.4882 29.483 63.7226 29.777 64.0237 29.9759C64.3277 30.1719 64.6871 30.2699 65.1018 30.2699C65.3348 30.2699 65.5464 30.2401 65.7368 30.1804C65.93 30.1207 66.099 30.0341 66.2439 29.9205C66.3916 29.804 66.5124 29.6634 66.6061 29.4986C66.7027 29.331 66.7695 29.142 66.8064 28.9318L68.9371 28.9446C68.9001 29.331 68.7879 29.7116 68.6004 30.0866C68.4158 30.4616 68.1615 30.804 67.8376 31.1136C67.5138 31.4205 67.1189 31.6648 66.653 31.8466C66.1899 32.0284 65.6587 32.1193 65.0592 32.1193C64.2695 32.1193 63.5621 31.946 62.9371 31.5994C62.3149 31.25 61.8234 30.7415 61.4626 30.0739C61.1018 29.4062 60.9214 28.5937 60.9214 27.6364C60.9214 26.6761 61.1047 25.8622 61.4712 25.1946C61.8376 24.527 62.3334 24.0199 62.9584 23.6733C63.5834 23.3267 64.2837 23.1534 65.0592 23.1534C65.5876 23.1534 66.0763 23.2273 66.5251 23.375C66.974 23.5199 67.3689 23.733 67.7098 24.0142C68.0507 24.2926 68.3277 24.6349 68.5408 25.0412C68.7538 25.4474 68.8859 25.9119 68.9371 26.4347ZM71.3893 32.1108C70.9717 32.1108 70.6009 32.0412 70.2771 31.902C69.956 31.7599 69.7018 31.5469 69.5143 31.2628C69.3296 30.9759 69.2373 30.6165 69.2373 30.1847C69.2373 29.821 69.3012 29.5142 69.429 29.2642C69.5569 29.0142 69.733 28.8111 69.9575 28.6548C70.1819 28.4986 70.4404 28.3807 70.733 28.3011C71.0256 28.2187 71.3381 28.1634 71.6705 28.1349C72.0427 28.1009 72.3424 28.0653 72.5697 28.0284C72.7969 27.9886 72.9617 27.9332 73.064 27.8622C73.1691 27.7884 73.2217 27.6847 73.2217 27.5511V27.5298C73.2217 27.3111 73.1464 27.142 72.9958 27.0227C72.8452 26.9034 72.6421 26.8438 72.3864 26.8438C72.1109 26.8438 71.8893 26.9034 71.7217 27.0227C71.554 27.142 71.4475 27.3068 71.4021 27.517L69.4802 27.4489C69.537 27.0511 69.6833 26.696 69.9191 26.3835C70.1577 26.0682 70.4844 25.821 70.8992 25.642C71.3168 25.4602 71.8183 25.3693 72.4035 25.3693C72.8211 25.3693 73.206 25.419 73.5583 25.5185C73.9106 25.6151 74.2174 25.7571 74.4788 25.9446C74.7401 26.1293 74.9418 26.3565 75.0839 26.6264C75.2288 26.8963 75.3012 27.2045 75.3012 27.5511V32H73.341V31.0881H73.2898C73.1734 31.3097 73.0242 31.4972 72.8424 31.6506C72.6634 31.804 72.4518 31.919 72.2075 31.9957C71.966 32.0724 71.6933 32.1108 71.3893 32.1108ZM72.0327 30.7472C72.2572 30.7472 72.4589 30.7017 72.6379 30.6108C72.8197 30.5199 72.9646 30.3949 73.0725 30.2358C73.1805 30.0739 73.2344 29.8864 73.2344 29.6733V29.0511C73.1748 29.0824 73.1023 29.1108 73.0171 29.1364C72.9347 29.1619 72.8438 29.1861 72.7444 29.2088C72.645 29.2315 72.5427 29.2514 72.4376 29.2685C72.3325 29.2855 72.2316 29.3011 72.135 29.3153C71.939 29.3466 71.7714 29.3949 71.6322 29.4602C71.4958 29.5256 71.3907 29.6108 71.3168 29.7159C71.2458 29.8182 71.2103 29.9403 71.2103 30.0824C71.2103 30.2983 71.287 30.4631 71.4404 30.5767C71.5967 30.6903 71.7941 30.7472 72.0327 30.7472ZM75.9754 32V25.4545H77.9995V26.6477H78.0677C78.187 26.2159 78.3816 25.8949 78.6515 25.6847C78.9214 25.4716 79.2353 25.3651 79.5933 25.3651C79.6898 25.3651 79.7893 25.3722 79.8915 25.3864C79.9938 25.3977 80.089 25.4162 80.1771 25.4418V27.2528C80.0776 27.2187 79.9469 27.1918 79.785 27.1719C79.6259 27.152 79.4839 27.142 79.3589 27.142C79.1117 27.142 78.8887 27.1974 78.6898 27.3082C78.4938 27.4162 78.339 27.5682 78.2254 27.7642C78.1146 27.9574 78.0592 28.1847 78.0592 28.446V32H75.9754ZM82.4769 32.0938C81.994 32.0938 81.555 31.9688 81.1602 31.7188C80.7653 31.4688 80.4499 31.0938 80.2141 30.5938C79.9783 30.0938 79.8604 29.473 79.8604 28.7315C79.8604 27.9616 79.9826 27.3281 80.2269 26.831C80.4712 26.3338 80.7908 25.9659 81.1857 25.7273C81.5835 25.4886 82.011 25.3693 82.4684 25.3693C82.8121 25.3693 83.1062 25.429 83.3505 25.5483C83.5948 25.6648 83.7965 25.8153 83.9556 26C84.1147 26.1847 84.2354 26.3764 84.3178 26.5753H84.3604V23.2727H86.4442V32H84.3817V30.9389H84.3178C84.2298 31.1406 84.1048 31.3295 83.9428 31.5057C83.7809 31.6818 83.5778 31.8239 83.3335 31.9318C83.092 32.0398 82.8065 32.0938 82.4769 32.0938ZM83.2013 30.4702C83.4542 30.4702 83.6701 30.3991 83.8491 30.2571C84.0281 30.1122 84.1658 29.9091 84.2624 29.6477C84.359 29.3864 84.4073 29.0795 84.4073 28.7273C84.4073 28.3693 84.359 28.0611 84.2624 27.8026C84.1687 27.544 84.0309 27.3452 83.8491 27.206C83.6701 27.0668 83.4542 26.9972 83.2013 26.9972C82.9428 26.9972 82.7241 27.0682 82.5451 27.2102C82.3661 27.3523 82.2298 27.5526 82.136 27.8111C82.0451 28.0696 81.9996 28.375 81.9996 28.7273C81.9996 29.0795 82.0465 29.3864 82.1403 29.6477C82.234 29.9091 82.369 30.1122 82.5451 30.2571C82.7241 30.3991 82.9428 30.4702 83.2013 30.4702Z" fill="white"/>
<path d="M213.661 32V23.2727H215.77V26.7756H219.209V23.2727H221.314V32H219.209V28.4929H215.77V32H213.661ZM223.882 32.1108C223.465 32.1108 223.094 32.0412 222.77 31.902C222.449 31.7599 222.195 31.5469 222.007 31.2628C221.823 30.9759 221.73 30.6165 221.73 30.1847C221.73 29.821 221.794 29.5142 221.922 29.2642C222.05 29.0142 222.226 28.8111 222.45 28.6548C222.675 28.4986 222.933 28.3807 223.226 28.3011C223.519 28.2187 223.831 28.1634 224.163 28.1349C224.536 28.1009 224.835 28.0653 225.063 28.0284C225.29 27.9886 225.455 27.9332 225.557 27.8622C225.662 27.7884 225.715 27.6847 225.715 27.5511V27.5298C225.715 27.3111 225.639 27.142 225.489 27.0227C225.338 26.9034 225.135 26.8438 224.879 26.8438C224.604 26.8438 224.382 26.9034 224.215 27.0227C224.047 27.142 223.94 27.3068 223.895 27.517L221.973 27.4489C222.03 27.0511 222.176 26.696 222.412 26.3835C222.651 26.0682 222.977 25.821 223.392 25.642C223.81 25.4602 224.311 25.3693 224.896 25.3693C225.314 25.3693 225.699 25.419 226.051 25.5185C226.404 25.6151 226.71 25.7571 226.972 25.9446C227.233 26.1293 227.435 26.3565 227.577 26.6264C227.722 26.8963 227.794 27.2045 227.794 27.5511V32H225.834V31.0881H225.783C225.666 31.3097 225.517 31.4972 225.335 31.6506C225.156 31.804 224.945 31.919 224.7 31.9957C224.459 32.0724 224.186 32.1108 223.882 32.1108ZM224.526 30.7472C224.75 30.7472 224.952 30.7017 225.131 30.6108C225.313 30.5199 225.458 30.3949 225.565 30.2358C225.673 30.0739 225.727 29.8864 225.727 29.6733V29.0511C225.668 29.0824 225.595 29.1108 225.51 29.1364C225.428 29.1619 225.337 29.1861 225.237 29.2088C225.138 29.2315 225.036 29.2514 224.931 29.2685C224.825 29.2855 224.725 29.3011 224.628 29.3153C224.432 29.3466 224.264 29.3949 224.125 29.4602C223.989 29.5256 223.884 29.6108 223.81 29.7159C223.739 29.8182 223.703 29.9403 223.703 30.0824C223.703 30.2983 223.78 30.4631 223.933 30.5767C224.09 30.6903 224.287 30.7472 224.526 30.7472ZM230.552 28.267V32H228.468V25.4545H230.45V26.6562H230.522C230.667 26.2557 230.914 25.9418 231.264 25.7145C231.613 25.4844 232.029 25.3693 232.512 25.3693C232.973 25.3693 233.372 25.473 233.71 25.6804C234.051 25.8849 234.315 26.1719 234.502 26.5412C234.693 26.9077 234.787 27.3366 234.784 27.8281V32H232.7V28.2372C232.703 27.8736 232.61 27.5895 232.423 27.3849C232.238 27.1804 231.981 27.0781 231.652 27.0781C231.433 27.0781 231.24 27.1264 231.072 27.223C230.907 27.3168 230.779 27.4517 230.688 27.6278C230.6 27.804 230.555 28.017 230.552 28.267ZM237.353 30.2827L237.362 27.7983H237.651L239.492 25.4545H241.853L239.117 28.8125H238.568L237.353 30.2827ZM235.474 32V23.2727H237.558V32H235.474ZM239.539 32L237.826 29.2812L239.198 27.8026L241.947 32H239.539ZM244.785 32.1236C244.097 32.1236 243.506 31.983 243.012 31.7017C242.52 31.4176 242.141 31.0227 241.874 30.517C241.61 30.0085 241.478 29.419 241.478 28.7486C241.478 28.0753 241.61 27.4858 241.874 26.9801C242.141 26.4716 242.52 26.0767 243.012 25.7955C243.506 25.5114 244.097 25.3693 244.785 25.3693C245.472 25.3693 246.062 25.5114 246.553 25.7955C247.047 26.0767 247.427 26.4716 247.691 26.9801C247.958 27.4858 248.091 28.0753 248.091 28.7486C248.091 29.419 247.958 30.0085 247.691 30.517C247.427 31.0227 247.047 31.4176 246.553 31.7017C246.062 31.983 245.472 32.1236 244.785 32.1236ZM244.797 30.5511C245.047 30.5511 245.259 30.4744 245.432 30.321C245.606 30.1676 245.738 29.9545 245.829 29.6818C245.922 29.4091 245.969 29.0937 245.969 28.7358C245.969 28.3722 245.922 28.054 245.829 27.7812C245.738 27.5085 245.606 27.2955 245.432 27.142C245.259 26.9886 245.047 26.9119 244.797 26.9119C244.539 26.9119 244.32 26.9886 244.141 27.142C243.965 27.2955 243.83 27.5085 243.736 27.7812C243.645 28.054 243.6 28.3722 243.6 28.7358C243.6 29.0937 243.645 29.4091 243.736 29.6818C243.83 29.9545 243.965 30.1676 244.141 30.321C244.32 30.4744 244.539 30.5511 244.797 30.5511ZM251.614 32.1236C250.927 32.1236 250.336 31.983 249.842 31.7017C249.35 31.4176 248.971 31.0227 248.704 30.517C248.44 30.0085 248.308 29.419 248.308 28.7486C248.308 28.0753 248.44 27.4858 248.704 26.9801C248.971 26.4716 249.35 26.0767 249.842 25.7955C250.336 25.5114 250.927 25.3693 251.614 25.3693C252.302 25.3693 252.891 25.5114 253.383 25.7955C253.877 26.0767 254.256 26.4716 254.521 26.9801C254.788 27.4858 254.921 28.0753 254.921 28.7486C254.921 29.419 254.788 30.0085 254.521 30.517C254.256 31.0227 253.877 31.4176 253.383 31.7017C252.891 31.983 252.302 32.1236 251.614 32.1236ZM251.627 30.5511C251.877 30.5511 252.089 30.4744 252.262 30.321C252.435 30.1676 252.567 29.9545 252.658 29.6818C252.752 29.4091 252.799 29.0937 252.799 28.7358C252.799 28.3722 252.752 28.054 252.658 27.7812C252.567 27.5085 252.435 27.2955 252.262 27.142C252.089 26.9886 251.877 26.9119 251.627 26.9119C251.369 26.9119 251.15 26.9886 250.971 27.142C250.795 27.2955 250.66 27.5085 250.566 27.7812C250.475 28.054 250.43 28.3722 250.43 28.7358C250.43 29.0937 250.475 29.4091 250.566 29.6818C250.66 29.9545 250.795 30.1676 250.971 30.321C251.15 30.4744 251.369 30.5511 251.627 30.5511ZM257.268 30.2827L257.276 27.7983H257.566L259.407 25.4545H261.768L259.032 28.8125H258.482L257.268 30.2827ZM255.389 32V23.2727H257.472V32H255.389ZM259.454 32L257.741 29.2812L259.113 27.8026L261.862 32H259.454ZM263.892 32V23.2727H267.531C268.184 23.2727 268.731 23.3651 269.172 23.5497C269.615 23.7344 269.947 23.9929 270.169 24.3253C270.393 24.6577 270.505 25.0426 270.505 25.4801C270.505 25.8125 270.436 26.1094 270.297 26.3707C270.157 26.6293 269.966 26.8437 269.721 27.0142C269.477 27.1847 269.194 27.304 268.873 27.3722V27.4574C269.226 27.4744 269.551 27.5696 269.849 27.7429C270.15 27.9162 270.392 28.1577 270.574 28.4673C270.755 28.7741 270.846 29.1378 270.846 29.5582C270.846 30.027 270.727 30.446 270.488 30.8153C270.25 31.1818 269.905 31.4716 269.453 31.6847C269.001 31.8949 268.453 32 267.808 32H263.892ZM266.001 30.2997H267.305C267.763 30.2997 268.099 30.2131 268.315 30.0398C268.534 29.8665 268.643 29.625 268.643 29.3153C268.643 29.0909 268.591 28.8977 268.486 28.7358C268.38 28.571 268.231 28.4446 268.038 28.3565C267.845 28.2656 267.613 28.2202 267.343 28.2202H266.001V30.2997ZM266.001 26.8608H267.169C267.399 26.8608 267.603 26.8224 267.782 26.7457C267.961 26.669 268.101 26.5582 268.2 26.4134C268.302 26.2685 268.353 26.0937 268.353 25.8892C268.353 25.5966 268.25 25.3665 268.042 25.1989C267.835 25.0312 267.555 24.9474 267.203 24.9474H266.001V26.8608ZM273.106 32.1108C272.688 32.1108 272.317 32.0412 271.993 31.902C271.672 31.7599 271.418 31.5469 271.231 31.2628C271.046 30.9759 270.954 30.6165 270.954 30.1847C270.954 29.821 271.018 29.5142 271.145 29.2642C271.273 29.0142 271.449 28.8111 271.674 28.6548C271.898 28.4986 272.157 28.3807 272.449 28.3011C272.742 28.2187 273.055 28.1634 273.387 28.1349C273.759 28.1009 274.059 28.0653 274.286 28.0284C274.513 27.9886 274.678 27.9332 274.78 27.8622C274.886 27.7884 274.938 27.6847 274.938 27.5511V27.5298C274.938 27.3111 274.863 27.142 274.712 27.0227C274.562 26.9034 274.359 26.8438 274.103 26.8438C273.827 26.8438 273.606 26.9034 273.438 27.0227C273.27 27.142 273.164 27.3068 273.118 27.517L271.197 27.4489C271.253 27.0511 271.4 26.696 271.636 26.3835C271.874 26.0682 272.201 25.821 272.616 25.642C273.033 25.4602 273.535 25.3693 274.12 25.3693C274.537 25.3693 274.922 25.419 275.275 25.5185C275.627 25.6151 275.934 25.7571 276.195 25.9446C276.457 26.1293 276.658 26.3565 276.8 26.6264C276.945 26.8963 277.018 27.2045 277.018 27.5511V32H275.057V31.0881H275.006C274.89 31.3097 274.741 31.4972 274.559 31.6506C274.38 31.804 274.168 31.919 273.924 31.9957C273.682 32.0724 273.41 32.1108 273.106 32.1108ZM273.749 30.7472C273.974 30.7472 274.175 30.7017 274.354 30.6108C274.536 30.5199 274.681 30.3949 274.789 30.2358C274.897 30.0739 274.951 29.8864 274.951 29.6733V29.0511C274.891 29.0824 274.819 29.1108 274.734 29.1364C274.651 29.1619 274.56 29.1861 274.461 29.2088C274.361 29.2315 274.259 29.2514 274.154 29.2685C274.049 29.2855 273.948 29.3011 273.851 29.3153C273.655 29.3466 273.488 29.3949 273.349 29.4602C273.212 29.5256 273.107 29.6108 273.033 29.7159C272.962 29.8182 272.927 29.9403 272.927 30.0824C272.927 30.2983 273.003 30.4631 273.157 30.5767C273.313 30.6903 273.511 30.7472 273.749 30.7472ZM279.776 28.267V32H277.692V25.4545H279.673V26.6562H279.746C279.891 26.2557 280.138 25.9418 280.487 25.7145C280.837 25.4844 281.253 25.3693 281.736 25.3693C282.196 25.3693 282.595 25.473 282.933 25.6804C283.274 25.8849 283.538 26.1719 283.726 26.5412C283.916 26.9077 284.01 27.3366 284.007 27.8281V32H281.923V28.2372C281.926 27.8736 281.834 27.5895 281.646 27.3849C281.462 27.1804 281.205 27.0781 280.875 27.0781C280.656 27.0781 280.463 27.1264 280.295 27.223C280.131 27.3168 280.003 27.4517 279.912 27.6278C279.824 27.804 279.778 28.017 279.776 28.267ZM286.576 30.2827L286.585 27.7983H286.875L288.716 25.4545H291.076L288.341 28.8125H287.791L286.576 30.2827ZM284.697 32V23.2727H286.781V32H284.697ZM288.763 32L287.05 29.2812L288.422 27.8026L291.17 32H288.763Z" fill="white"/>
<path d="M24.9538 130.149C24.1229 130.149 23.386 130.007 22.7433 129.723C22.104 129.435 21.5998 129.039 21.2305 128.535C20.8612 128.031 20.6729 127.45 20.6658 126.793H23.3185C23.3292 127.031 23.4055 127.243 23.5476 127.427C23.6896 127.608 23.8832 127.75 24.1282 127.853C24.3732 127.956 24.652 128.008 24.9645 128.008C25.277 128.008 25.5522 127.953 25.7901 127.843C26.0316 127.729 26.2198 127.575 26.3548 127.379C26.4897 127.18 26.5554 126.953 26.5518 126.697C26.5554 126.442 26.4826 126.214 26.3335 126.016C26.1843 125.817 25.973 125.662 25.6996 125.552C25.4297 125.442 25.1101 125.387 24.7408 125.387H23.6808V123.512H24.7408C25.0639 123.512 25.348 123.459 25.593 123.352C25.8416 123.246 26.0352 123.097 26.1737 122.905C26.3121 122.71 26.3796 122.486 26.3761 122.234C26.3796 121.989 26.321 121.774 26.2003 121.589C26.0831 121.401 25.918 121.255 25.7049 121.152C25.4954 121.049 25.2521 120.998 24.9751 120.998C24.6839 120.998 24.4194 121.049 24.1815 121.152C23.9471 121.255 23.7607 121.401 23.6222 121.589C23.4837 121.777 23.4109 121.996 23.4038 122.244H20.8842C20.8913 121.594 21.0724 121.023 21.4276 120.529C21.7827 120.032 22.2656 119.643 22.8764 119.363C23.4908 119.082 24.1903 118.942 24.9751 118.942C25.7564 118.942 26.4435 119.078 27.0366 119.352C27.6296 119.625 28.0913 119.998 28.4215 120.471C28.7518 120.939 28.9169 121.47 28.9169 122.063C28.9205 122.678 28.7198 123.184 28.315 123.581C27.9137 123.979 27.397 124.224 26.7649 124.316V124.402C27.6101 124.501 28.2475 124.775 28.6772 125.222C29.1104 125.669 29.3253 126.229 29.3217 126.9C29.3217 127.532 29.1353 128.093 28.7624 128.583C28.3931 129.07 27.8782 129.453 27.2177 129.734C26.5607 130.011 25.8061 130.149 24.9538 130.149ZM34.2354 130.149C33.4399 130.149 32.7332 130.005 32.1153 129.718C31.4974 129.43 31.0091 129.034 30.6505 128.53C30.2954 128.026 30.1107 127.447 30.0965 126.793H32.6533C32.6746 127.195 32.838 127.518 33.1434 127.763C33.4488 128.004 33.8128 128.125 34.2354 128.125C34.5656 128.125 34.8586 128.052 35.1143 127.907C35.3699 127.761 35.5706 127.557 35.7162 127.294C35.8618 127.028 35.9328 126.722 35.9292 126.378C35.9328 126.026 35.86 125.719 35.7108 125.456C35.5653 125.194 35.3628 124.989 35.1036 124.844C34.8479 124.695 34.5532 124.62 34.2194 124.62C33.9033 124.616 33.6032 124.686 33.3192 124.828C33.0386 124.97 32.8256 125.163 32.68 125.408L30.3522 124.972L30.8263 119.091H37.8256V121.216H32.9942L32.7439 123.789H32.8078C32.9889 123.487 33.2801 123.239 33.6814 123.043C34.0862 122.844 34.5461 122.745 35.061 122.745C35.7144 122.745 36.2968 122.898 36.8081 123.203C37.3231 123.505 37.7279 123.924 38.0226 124.46C38.3209 124.996 38.4701 125.611 38.4701 126.303C38.4701 127.053 38.2925 127.717 37.9374 128.295C37.5858 128.874 37.0922 129.329 36.4566 129.659C35.8245 129.986 35.0841 130.149 34.2354 130.149ZM39.0344 128.189V126.133L43.5036 119.091H45.3306V121.882H44.2706L41.6552 126.026V126.112H48.1271V128.189H39.0344ZM44.3026 130V127.56L44.3558 126.66V119.091H46.8221V130H44.3026ZM48.7594 130V128.104L52.7385 124.62C53.0368 124.35 53.2907 124.103 53.5002 123.88C53.7097 123.652 53.8695 123.425 53.9796 123.198C54.0897 122.967 54.1447 122.717 54.1447 122.447C54.1447 122.145 54.079 121.887 53.9476 121.674C53.8162 121.458 53.6351 121.291 53.4043 121.174C53.1735 121.056 52.9089 120.998 52.6106 120.998C52.3088 120.998 52.0442 121.06 51.8169 121.184C51.5897 121.305 51.4121 121.481 51.2843 121.712C51.16 121.942 51.0978 122.223 51.0978 122.553H48.5996C48.5996 121.811 48.7665 121.17 49.1003 120.63C49.4341 120.091 49.9029 119.675 50.5066 119.384C51.1138 119.089 51.8187 118.942 52.6213 118.942C53.4487 118.942 54.1678 119.08 54.7786 119.357C55.3894 119.634 55.8617 120.021 56.1955 120.518C56.5328 121.012 56.7015 121.586 56.7015 122.239C56.7015 122.654 56.6181 123.066 56.4512 123.475C56.2843 123.883 55.9842 124.334 55.551 124.828C55.1213 125.321 54.5105 125.913 53.7186 126.602L52.4135 127.805V127.875H56.8347V130H48.7594Z" fill="white"/>
<path d="M79.0657 130.149C78.217 130.149 77.4588 130.014 76.7912 129.744C76.1271 129.471 75.6051 129.102 75.2251 128.636C74.8487 128.168 74.6605 127.638 74.6605 127.049C74.6605 126.598 74.7688 126.184 74.9854 125.808C75.2021 125.431 75.495 125.119 75.8643 124.87C76.2372 124.618 76.6527 124.457 77.1108 124.386V124.3C76.5107 124.19 76.0188 123.912 75.6353 123.464C75.2553 123.017 75.0653 122.493 75.0653 121.893C75.0653 121.325 75.2376 120.819 75.582 120.375C75.93 119.931 76.4041 119.581 77.0043 119.325C77.608 119.07 78.2951 118.942 79.0657 118.942C79.8363 118.942 80.5217 119.07 81.1218 119.325C81.7255 119.581 82.1996 119.931 82.544 120.375C82.892 120.819 83.0661 121.325 83.0661 121.893C83.0661 122.496 82.8725 123.022 82.4854 123.469C82.1019 123.913 81.6136 124.19 81.0206 124.3V124.386C81.4751 124.457 81.8871 124.618 82.2564 124.87C82.6293 125.119 82.924 125.431 83.1406 125.808C83.3608 126.184 83.4709 126.598 83.4709 127.049C83.4709 127.638 83.2809 128.168 82.9009 128.636C82.521 129.102 81.9989 129.471 81.3349 129.744C80.6744 130.014 79.918 130.149 79.0657 130.149ZM79.0657 128.279C79.3888 128.279 79.6729 128.219 79.918 128.098C80.163 127.974 80.3548 127.802 80.4933 127.582C80.6353 127.362 80.7063 127.113 80.7063 126.836C80.7063 126.552 80.6353 126.3 80.4933 126.08C80.3512 125.859 80.1559 125.687 79.9073 125.563C79.6623 125.435 79.3817 125.371 79.0657 125.371C78.7532 125.371 78.4727 125.435 78.2241 125.563C77.9755 125.687 77.7802 125.859 77.6381 126.08C77.4961 126.3 77.4251 126.552 77.4251 126.836C77.4251 127.113 77.4943 127.362 77.6328 127.582C77.7749 127.798 77.9684 127.969 78.2134 128.093C78.462 128.217 78.7461 128.279 79.0657 128.279ZM79.0657 123.512C79.3427 123.512 79.5877 123.455 79.8008 123.342C80.0174 123.228 80.1861 123.07 80.3068 122.868C80.4311 122.665 80.4933 122.436 80.4933 122.18C80.4933 121.925 80.4311 121.699 80.3068 121.504C80.1861 121.309 80.0192 121.156 79.8061 121.046C79.593 120.932 79.3462 120.875 79.0657 120.875C78.7887 120.875 78.5419 120.932 78.3253 121.046C78.1087 121.156 77.94 121.309 77.8192 121.504C77.6985 121.699 77.6381 121.925 77.6381 122.18C77.6381 122.436 77.6985 122.665 77.8192 122.868C77.9435 123.066 78.114 123.224 78.3306 123.342C78.5472 123.455 78.7923 123.512 79.0657 123.512ZM88.2979 118.942C88.8945 118.942 89.4645 119.039 90.0078 119.235C90.5511 119.426 91.0359 119.734 91.462 120.156C91.8881 120.575 92.2237 121.127 92.4688 121.813C92.7138 122.498 92.8363 123.335 92.8363 124.322C92.8398 125.231 92.7333 126.046 92.5167 126.767C92.3001 127.484 91.9893 128.095 91.5845 128.599C91.1832 129.103 90.7003 129.489 90.1357 129.755C89.571 130.018 88.9407 130.149 88.2447 130.149C87.4776 130.149 86.8011 130.002 86.2152 129.707C85.6328 129.409 85.1658 129.007 84.8143 128.503C84.4663 127.999 84.2585 127.434 84.1911 126.809H86.7852C86.8668 127.172 87.0391 127.445 87.3018 127.63C87.5646 127.811 87.8789 127.901 88.2447 127.901C88.9123 127.901 89.4112 127.612 89.7415 127.033C90.0717 126.454 90.2369 125.668 90.2369 124.673H90.1729C90.0202 125 89.8036 125.281 89.5231 125.515C89.2461 125.749 88.9247 125.929 88.5589 126.053C88.1932 126.177 87.8079 126.239 87.4031 126.239C86.7496 126.239 86.1726 126.09 85.6719 125.792C85.1747 125.494 84.7841 125.083 84.5 124.561C84.2195 124.039 84.0774 123.443 84.0739 122.772C84.0703 122.019 84.2461 121.355 84.6012 120.779C84.9563 120.201 85.4517 119.75 86.0874 119.426C86.723 119.1 87.4599 118.938 88.2979 118.942ZM88.3139 120.966C87.9872 120.966 87.696 121.042 87.4403 121.195C87.1882 121.348 86.9893 121.554 86.8438 121.813C86.6982 122.072 86.6271 122.363 86.6307 122.686C86.6342 123.01 86.707 123.301 86.8491 123.56C86.9947 123.819 87.1918 124.025 87.4403 124.178C87.6925 124.331 87.9801 124.407 88.3033 124.407C88.5447 124.407 88.7685 124.363 88.9744 124.274C89.1804 124.185 89.3597 124.062 89.5124 123.906C89.6651 123.746 89.7841 123.562 89.8693 123.352C89.9581 123.143 90.0007 122.919 89.9972 122.681C89.9936 122.365 89.919 122.077 89.7734 121.818C89.6278 121.559 89.4272 121.353 89.1715 121.2C88.9194 121.044 88.6335 120.966 88.3139 120.966ZM98.5782 119.091V130H95.9468V121.552H95.8829L93.4433 123.043V120.763L96.1333 119.091H98.5782ZM100.107 128.189V126.133L104.576 119.091H106.403V121.882H105.343L102.727 126.026V126.112H109.199V128.189H100.107ZM105.375 130V127.56L105.428 126.66V119.091H107.894V130H105.375Z" fill="white"/>
<path d="M128.671 128.189V126.133L133.14 119.091H134.967V121.882H133.907L131.292 126.026V126.112H137.764V128.189H128.671ZM133.939 130V127.56L133.993 126.66V119.091H136.459V130H133.939ZM142.769 130.149C142.173 130.149 141.601 130.053 141.054 129.862C140.507 129.666 140.021 129.357 139.595 128.935C139.169 128.509 138.833 127.951 138.588 127.262C138.343 126.57 138.222 125.726 138.226 124.732C138.229 123.833 138.339 123.027 138.556 122.314C138.773 121.596 139.081 120.987 139.483 120.487C139.888 119.986 140.371 119.604 140.932 119.341C141.496 119.075 142.127 118.942 142.823 118.942C143.586 118.942 144.259 119.091 144.841 119.389C145.427 119.684 145.896 120.082 146.248 120.582C146.599 121.08 146.807 121.634 146.871 122.244H144.277C144.199 121.9 144.026 121.639 143.76 121.461C143.497 121.28 143.185 121.19 142.823 121.19C142.155 121.19 141.656 121.479 141.326 122.058C140.999 122.637 140.832 123.411 140.825 124.38H140.894C141.044 124.054 141.258 123.773 141.539 123.539C141.819 123.304 142.141 123.125 142.503 123.001C142.869 122.873 143.256 122.809 143.664 122.809C144.318 122.809 144.895 122.96 145.395 123.262C145.896 123.564 146.289 123.977 146.573 124.503C146.857 125.025 146.997 125.623 146.993 126.298C146.997 127.058 146.819 127.729 146.461 128.311C146.102 128.89 145.605 129.341 144.969 129.664C144.337 129.988 143.604 130.149 142.769 130.149ZM142.753 128.125C143.077 128.125 143.366 128.049 143.622 127.896C143.877 127.743 144.078 127.536 144.224 127.273C144.369 127.01 144.44 126.713 144.437 126.383C144.44 126.049 144.369 125.753 144.224 125.494C144.081 125.234 143.883 125.028 143.627 124.876C143.375 124.723 143.085 124.647 142.759 124.647C142.521 124.647 142.299 124.691 142.093 124.78C141.887 124.869 141.708 124.993 141.555 125.153C141.406 125.309 141.289 125.494 141.203 125.707C141.118 125.916 141.074 126.143 141.07 126.388C141.074 126.712 141.148 127.005 141.294 127.267C141.439 127.53 141.638 127.74 141.89 127.896C142.143 128.049 142.43 128.125 142.753 128.125ZM152 130.149C151.152 130.149 150.393 130.014 149.726 129.744C149.062 129.471 148.54 129.102 148.16 128.636C147.783 128.168 147.595 127.638 147.595 127.049C147.595 126.598 147.703 126.184 147.92 125.808C148.137 125.431 148.43 125.119 148.799 124.87C149.172 124.618 149.587 124.457 150.045 124.386V124.3C149.445 124.19 148.953 123.912 148.57 123.464C148.19 123.017 148 122.493 148 121.893C148 121.325 148.172 120.819 148.517 120.375C148.865 119.931 149.339 119.581 149.939 119.325C150.543 119.07 151.23 118.942 152 118.942C152.771 118.942 153.456 119.07 154.056 119.325C154.66 119.581 155.134 119.931 155.479 120.375C155.827 120.819 156.001 121.325 156.001 121.893C156.001 122.496 155.807 123.022 155.42 123.469C155.036 123.913 154.548 124.19 153.955 124.3V124.386C154.41 124.457 154.822 124.618 155.191 124.87C155.564 125.119 155.859 125.431 156.075 125.808C156.295 126.184 156.405 126.598 156.405 127.049C156.405 127.638 156.215 128.168 155.835 128.636C155.456 129.102 154.934 129.471 154.269 129.744C153.609 130.014 152.853 130.149 152 130.149ZM152 128.279C152.323 128.279 152.608 128.219 152.853 128.098C153.098 127.974 153.289 127.802 153.428 127.582C153.57 127.362 153.641 127.113 153.641 126.836C153.641 126.552 153.57 126.3 153.428 126.08C153.286 125.859 153.09 125.687 152.842 125.563C152.597 125.435 152.316 125.371 152 125.371C151.688 125.371 151.407 125.435 151.159 125.563C150.91 125.687 150.715 125.859 150.573 126.08C150.431 126.3 150.36 126.552 150.36 126.836C150.36 127.113 150.429 127.362 150.567 127.582C150.709 127.798 150.903 127.969 151.148 128.093C151.397 128.217 151.681 128.279 152 128.279ZM152 123.512C152.277 123.512 152.522 123.455 152.735 123.342C152.952 123.228 153.121 123.07 153.241 122.868C153.366 122.665 153.428 122.436 153.428 122.18C153.428 121.925 153.366 121.699 153.241 121.504C153.121 121.309 152.954 121.156 152.741 121.046C152.528 120.932 152.281 120.875 152 120.875C151.723 120.875 151.476 120.932 151.26 121.046C151.043 121.156 150.875 121.309 150.754 121.504C150.633 121.699 150.573 121.925 150.573 122.18C150.573 122.436 150.633 122.665 150.754 122.868C150.878 123.066 151.049 123.224 151.265 123.342C151.482 123.455 151.727 123.512 152 123.512ZM162.17 119.091V130H159.539V121.552H159.475L157.035 123.043V120.763L159.725 119.091H162.17Z" fill="white"/>
<path d="M187.849 119.091V130H185.217V121.552H185.153L182.714 123.043V120.763L185.404 119.091H187.849ZM189.51 130V128.104L193.489 124.62C193.788 124.35 194.042 124.103 194.251 123.88C194.461 123.652 194.62 123.425 194.731 123.198C194.841 122.967 194.896 122.717 194.896 122.447C194.896 122.145 194.83 121.887 194.699 121.674C194.567 121.458 194.386 121.291 194.155 121.174C193.924 121.056 193.66 120.998 193.362 120.998C193.06 120.998 192.795 121.06 192.568 121.184C192.341 121.305 192.163 121.481 192.035 121.712C191.911 121.942 191.849 122.223 191.849 122.553H189.351C189.351 121.811 189.517 121.17 189.851 120.63C190.185 120.091 190.654 119.675 191.258 119.384C191.865 119.089 192.57 118.942 193.372 118.942C194.2 118.942 194.919 119.08 195.53 119.357C196.14 119.634 196.613 120.021 196.946 120.518C197.284 121.012 197.453 121.586 197.453 122.239C197.453 122.654 197.369 123.066 197.202 123.475C197.035 123.883 196.735 124.334 196.302 124.828C195.872 125.321 195.261 125.913 194.47 126.602L193.165 127.805V127.875H197.586V130H189.51ZM202.502 130.149C201.706 130.149 201 130.005 200.382 129.718C199.764 129.43 199.276 129.034 198.917 128.53C198.562 128.026 198.377 127.447 198.363 126.793H200.92C200.941 127.195 201.105 127.518 201.41 127.763C201.715 128.004 202.079 128.125 202.502 128.125C202.832 128.125 203.125 128.052 203.381 127.907C203.637 127.761 203.837 127.557 203.983 127.294C204.128 127.028 204.199 126.722 204.196 126.378C204.199 126.026 204.127 125.719 203.977 125.456C203.832 125.194 203.629 124.989 203.37 124.844C203.115 124.695 202.82 124.62 202.486 124.62C202.17 124.616 201.87 124.686 201.586 124.828C201.305 124.97 201.092 125.163 200.947 125.408L198.619 124.972L199.093 119.091H206.092V121.216H201.261L201.01 123.789H201.074C201.256 123.487 201.547 123.239 201.948 123.043C202.353 122.844 202.813 122.745 203.328 122.745C203.981 122.745 204.563 122.898 205.075 123.203C205.59 123.505 205.994 123.924 206.289 124.46C206.588 124.996 206.737 125.611 206.737 126.303C206.737 127.053 206.559 127.717 206.204 128.295C205.852 128.874 205.359 129.329 204.723 129.659C204.091 129.986 203.351 130.149 202.502 130.149ZM211.946 130.266C210.994 130.266 210.174 130.041 209.485 129.59C208.796 129.135 208.265 128.484 207.892 127.635C207.519 126.783 207.335 125.758 207.338 124.561C207.342 123.365 207.528 122.349 207.898 121.515C208.271 120.676 208.8 120.039 209.485 119.602C210.174 119.162 210.994 118.942 211.946 118.942C212.898 118.942 213.718 119.162 214.407 119.602C215.099 120.039 215.632 120.676 216.005 121.515C216.378 122.353 216.562 123.368 216.559 124.561C216.559 125.762 216.372 126.788 216 127.64C215.627 128.493 215.096 129.144 214.407 129.595C213.722 130.043 212.901 130.266 211.946 130.266ZM211.946 128.109C212.514 128.109 212.974 127.82 213.326 127.241C213.677 126.658 213.851 125.765 213.848 124.561C213.848 123.773 213.768 123.123 213.608 122.612C213.448 122.097 213.226 121.713 212.942 121.461C212.658 121.209 212.326 121.083 211.946 121.083C211.381 121.083 210.925 121.369 210.577 121.941C210.229 122.509 210.053 123.382 210.05 124.561C210.046 125.36 210.122 126.023 210.279 126.548C210.438 127.074 210.662 127.466 210.95 127.725C211.237 127.981 211.57 128.109 211.946 128.109Z" fill="white"/>
<path d="M19.7173 177V169.727H21.0348V172.806H24.4048V169.727H25.7259V177H24.4048V173.911H21.0348V177H19.7173ZM33.1573 173.364C33.1573 174.147 33.0105 174.818 32.717 175.377C32.4258 175.933 32.0281 176.36 31.5238 176.656C31.0219 176.951 30.4525 177.099 29.8157 177.099C29.1789 177.099 28.6083 176.951 28.104 176.656C27.6022 176.357 27.2044 175.93 26.9109 175.374C26.6197 174.815 26.4741 174.145 26.4741 173.364C26.4741 172.58 26.6197 171.91 26.9109 171.354C27.2044 170.795 27.6022 170.368 28.104 170.072C28.6083 169.776 29.1789 169.628 29.8157 169.628C30.4525 169.628 31.0219 169.776 31.5238 170.072C32.0281 170.368 32.4258 170.795 32.717 171.354C33.0105 171.91 33.1573 172.58 33.1573 173.364ZM31.8327 173.364C31.8327 172.812 31.7463 172.347 31.5735 171.968C31.4031 171.587 31.1663 171.299 30.8633 171.105C30.5603 170.909 30.2111 170.81 29.8157 170.81C29.4203 170.81 29.0711 170.909 28.7681 171.105C28.4651 171.299 28.2272 171.587 28.0543 171.968C27.8839 172.347 27.7987 172.812 27.7987 173.364C27.7987 173.915 27.8839 174.382 28.0543 174.763C28.2272 175.142 28.4651 175.429 28.7681 175.626C29.0711 175.82 29.4203 175.917 29.8157 175.917C30.2111 175.917 30.5603 175.82 30.8633 175.626C31.1663 175.429 31.4031 175.142 31.5735 174.763C31.7463 174.382 31.8327 173.915 31.8327 173.364ZM39.8794 169.727V177H38.7076L35.2807 172.046H35.2203V177H33.9029V169.727H35.0819L38.5051 174.685H38.5691V169.727H39.8794ZM45.6871 172.05C45.628 171.858 45.5463 171.686 45.4421 171.535C45.3403 171.381 45.2172 171.25 45.0728 171.141C44.9308 171.032 44.7674 170.95 44.5827 170.896C44.3981 170.839 44.1969 170.81 43.979 170.81C43.5884 170.81 43.2404 170.909 42.935 171.105C42.6296 171.302 42.3893 171.59 42.2141 171.972C42.0413 172.35 41.9549 172.812 41.9549 173.357C41.9549 173.906 42.0413 174.371 42.2141 174.752C42.387 175.133 42.6272 175.423 42.935 175.622C43.2428 175.819 43.6003 175.917 44.0075 175.917C44.3768 175.917 44.6964 175.846 44.9663 175.704C45.2385 175.562 45.448 175.361 45.5948 175.1C45.7416 174.837 45.815 174.53 45.815 174.177L46.1133 174.223H44.1388V173.193H47.0898V174.067C47.0898 174.689 46.9573 175.228 46.6921 175.683C46.427 176.137 46.0624 176.487 45.5984 176.734C45.1344 176.978 44.6017 177.099 44.0004 177.099C43.3304 177.099 42.7421 176.949 42.2354 176.648C41.7312 176.345 41.337 175.916 41.0529 175.359C40.7712 174.801 40.6303 174.138 40.6303 173.371C40.6303 172.784 40.7132 172.259 40.8789 171.798C41.047 171.336 41.2814 170.944 41.582 170.622C41.8827 170.298 42.2354 170.052 42.6403 169.884C43.0451 169.713 43.4854 169.628 43.9613 169.628C44.3638 169.628 44.739 169.687 45.087 169.805C45.435 169.921 45.744 170.087 46.0138 170.303C46.2861 170.518 46.5098 170.774 46.685 171.07C46.8602 171.366 46.975 171.692 47.0295 172.05H45.6871ZM54.7164 172.05C54.6573 171.858 54.5756 171.686 54.4714 171.535C54.3696 171.381 54.2465 171.25 54.1021 171.141C53.96 171.032 53.7967 170.95 53.612 170.896C53.4274 170.839 53.2261 170.81 53.0083 170.81C52.6177 170.81 52.2697 170.909 51.9643 171.105C51.6589 171.302 51.4186 171.59 51.2434 171.972C51.0706 172.35 50.9842 172.812 50.9842 173.357C50.9842 173.906 51.0706 174.371 51.2434 174.752C51.4163 175.133 51.6565 175.423 51.9643 175.622C52.2721 175.819 52.6296 175.917 53.0368 175.917C53.4061 175.917 53.7257 175.846 53.9956 175.704C54.2678 175.562 54.4773 175.361 54.6241 175.1C54.7709 174.837 54.8443 174.53 54.8443 174.177L55.1426 174.223H53.1681V173.193H56.1191V174.067C56.1191 174.689 55.9866 175.228 55.7214 175.683C55.4563 176.137 55.0917 176.487 54.6277 176.734C54.1636 176.978 53.631 177.099 53.0297 177.099C52.3597 177.099 51.7714 176.949 51.2647 176.648C50.7605 176.345 50.3663 175.916 50.0822 175.359C49.8005 174.801 49.6596 174.138 49.6596 173.371C49.6596 172.784 49.7425 172.259 49.9082 171.798C50.0763 171.336 50.3107 170.944 50.6113 170.622C50.912 170.298 51.2647 170.052 51.6696 169.884C52.0744 169.713 52.5147 169.628 52.9906 169.628C53.3931 169.628 53.7683 169.687 54.1163 169.805C54.4643 169.921 54.7733 170.087 55.0431 170.303C55.3154 170.518 55.5391 170.774 55.7143 171.07C55.8895 171.366 56.0043 171.692 56.0588 172.05H54.7164ZM58.2106 169.727V177H56.8931V169.727H58.2106ZM59.1373 177V169.727H60.4547V175.896H63.6578V177H59.1373ZM68.7463 177H66.2818V169.727H68.796C69.5181 169.727 70.1383 169.873 70.6568 170.164C71.1776 170.453 71.5777 170.868 71.8571 171.411C72.1364 171.953 72.2761 172.601 72.2761 173.357C72.2761 174.114 72.1352 174.765 71.8535 175.31C71.5742 175.854 71.1705 176.272 70.6426 176.563C70.117 176.854 69.4849 177 68.7463 177ZM67.5993 175.86H68.6824C69.189 175.86 69.6116 175.768 69.9501 175.583C70.2886 175.396 70.5431 175.118 70.7136 174.749C70.8841 174.377 70.9693 173.913 70.9693 173.357C70.9693 172.8 70.8841 172.339 70.7136 171.972C70.5431 171.602 70.291 171.326 69.9572 171.144C69.6258 170.96 69.2138 170.867 68.7214 170.867H67.5993V175.86ZM79.5265 173.364C79.5265 174.147 79.3797 174.818 79.0861 175.377C78.7949 175.933 78.3972 176.36 77.8929 176.656C77.391 176.951 76.8217 177.099 76.1848 177.099C75.548 177.099 74.9775 176.951 74.4732 176.656C73.9713 176.357 73.5736 175.93 73.28 175.374C72.9888 174.815 72.8432 174.145 72.8432 173.364C72.8432 172.58 72.9888 171.91 73.28 171.354C73.5736 170.795 73.9713 170.368 74.4732 170.072C74.9775 169.776 75.548 169.628 76.1848 169.628C76.8217 169.628 77.391 169.776 77.8929 170.072C78.3972 170.368 78.7949 170.795 79.0861 171.354C79.3797 171.91 79.5265 172.58 79.5265 173.364ZM78.2019 173.364C78.2019 172.812 78.1155 172.347 77.9426 171.968C77.7722 171.587 77.5355 171.299 77.2324 171.105C76.9294 170.909 76.5802 170.81 76.1848 170.81C75.7895 170.81 75.4403 170.909 75.1373 171.105C74.8342 171.299 74.5963 171.587 74.4235 171.968C74.253 172.347 74.1678 172.812 74.1678 173.364C74.1678 173.915 74.253 174.382 74.4235 174.763C74.5963 175.142 74.8342 175.429 75.1373 175.626C75.4403 175.82 75.7895 175.917 76.1848 175.917C76.5802 175.917 76.9294 175.82 77.2324 175.626C77.5355 175.429 77.7722 175.142 77.9426 174.763C78.1155 174.382 78.2019 173.915 78.2019 173.364ZM86.2486 169.727V177H85.0767L81.6499 172.046H81.5895V177H80.272V169.727H81.451L84.8743 174.685H84.9382V169.727H86.2486ZM92.0563 172.05C91.9971 171.858 91.9154 171.686 91.8113 171.535C91.7095 171.381 91.5864 171.25 91.4419 171.141C91.2999 171.032 91.1365 170.95 90.9519 170.896C90.7672 170.839 90.566 170.81 90.3482 170.81C89.9576 170.81 89.6096 170.909 89.3042 171.105C88.9988 171.302 88.7585 171.59 88.5833 171.972C88.4105 172.35 88.324 172.812 88.324 173.357C88.324 173.906 88.4105 174.371 88.5833 174.752C88.7561 175.133 88.9964 175.423 89.3042 175.622C89.6119 175.819 89.9694 175.917 90.3766 175.917C90.7459 175.917 91.0655 175.846 91.3354 175.704C91.6077 175.562 91.8172 175.361 91.964 175.1C92.1107 174.837 92.1841 174.53 92.1841 174.177L92.4824 174.223H90.508V173.193H93.459V174.067C93.459 174.689 93.3264 175.228 93.0613 175.683C92.7961 176.137 92.4315 176.487 91.9675 176.734C91.5035 176.978 90.9708 177.099 90.3695 177.099C89.6995 177.099 89.1112 176.949 88.6046 176.648C88.1003 176.345 87.7061 175.916 87.4221 175.359C87.1403 174.801 86.9995 174.138 86.9995 173.371C86.9995 172.784 87.0823 172.259 87.248 171.798C87.4161 171.336 87.6505 170.944 87.9512 170.622C88.2518 170.298 88.6046 170.052 89.0094 169.884C89.4142 169.713 89.8546 169.628 90.3304 169.628C90.7329 169.628 91.1081 169.687 91.4561 169.805C91.8042 169.921 92.1131 170.087 92.383 170.303C92.6552 170.518 92.879 170.774 93.0542 171.07C93.2293 171.366 93.3442 171.692 93.3986 172.05H92.0563Z" fill="white"/>
<path d="M23.0014 158.166C22.2997 158.166 21.6974 157.989 21.1946 157.634C20.6946 157.276 20.3097 156.76 20.0398 156.087C19.7727 155.411 19.6392 154.597 19.6392 153.645C19.642 152.693 19.777 151.884 20.044 151.216C20.3139 150.545 20.6989 150.034 21.1989 149.682C21.7017 149.33 22.3026 149.153 23.0014 149.153C23.7003 149.153 24.3011 149.33 24.804 149.682C25.3068 150.034 25.6918 150.545 25.9588 151.216C26.2287 151.886 26.3636 152.696 26.3636 153.645C26.3636 154.599 26.2287 155.415 25.9588 156.091C25.6918 156.764 25.3068 157.278 24.804 157.634C24.304 157.989 23.7031 158.166 23.0014 158.166ZM23.0014 156.832C23.5469 156.832 23.9773 156.564 24.2926 156.027C24.6108 155.487 24.7699 154.693 24.7699 153.645C24.7699 152.952 24.6974 152.369 24.5526 151.898C24.4077 151.426 24.2031 151.071 23.9389 150.832C23.6747 150.591 23.3622 150.47 23.0014 150.47C22.4588 150.47 22.0298 150.74 21.7145 151.28C21.3991 151.817 21.2401 152.605 21.2372 153.645C21.2344 154.341 21.304 154.926 21.446 155.401C21.5909 155.875 21.7955 156.233 22.0597 156.474C22.3239 156.713 22.6378 156.832 23.0014 156.832ZM27.0218 156.381V155.124L30.7249 149.273H31.7732V151.062H31.134L28.6411 155.013V155.081H33.8102V156.381H27.0218ZM31.1852 158V155.997L31.2022 155.435V149.273H32.6937V158H31.1852ZM38.1512 148.864L35.3387 159.312H33.9879L36.8004 148.864H38.1512ZM38.5185 158V156.858L41.5484 153.888C41.8381 153.595 42.0796 153.335 42.2728 153.108C42.466 152.881 42.6109 152.661 42.7075 152.447C42.804 152.234 42.8523 152.007 42.8523 151.766C42.8523 151.49 42.7898 151.254 42.6648 151.058C42.5398 150.859 42.368 150.706 42.1492 150.598C41.9305 150.49 41.6819 150.436 41.4035 150.436C41.1165 150.436 40.8651 150.496 40.6492 150.615C40.4333 150.732 40.2657 150.898 40.1464 151.114C40.0299 151.33 39.9717 151.587 39.9717 151.885H38.4674C38.4674 151.331 38.5938 150.849 38.8467 150.44C39.0995 150.031 39.4475 149.714 39.8907 149.49C40.3367 149.266 40.8481 149.153 41.4248 149.153C42.01 149.153 42.5242 149.263 42.9674 149.482C43.4106 149.7 43.7543 150 43.9987 150.381C44.2458 150.761 44.3694 151.196 44.3694 151.685C44.3694 152.011 44.3069 152.332 44.1819 152.648C44.0569 152.963 43.8367 153.312 43.5214 153.696C43.2089 154.08 42.77 154.544 42.2046 155.089L40.7004 156.619V156.679H44.5015V158H38.5185ZM48.4058 158.119C47.8376 158.119 47.329 158.013 46.8802 157.8C46.4313 157.584 46.0748 157.288 45.8106 156.913C45.5492 156.538 45.41 156.109 45.393 155.626H46.9271C46.9555 155.984 47.1103 156.277 47.3915 156.504C47.6728 156.729 48.0109 156.841 48.4058 156.841C48.7154 156.841 48.991 156.77 49.2325 156.628C49.4739 156.486 49.6643 156.288 49.8035 156.036C49.9427 155.783 50.0109 155.494 50.008 155.17C50.0109 154.841 49.9413 154.548 49.7992 154.293C49.6572 154.037 49.4626 153.837 49.2154 153.692C48.9683 153.544 48.6842 153.47 48.3631 153.47C48.1018 153.467 47.8447 153.516 47.5918 153.615C47.339 153.714 47.1387 153.845 46.991 154.007L45.5634 153.773L46.0194 149.273H51.0819V150.594H47.3276L47.0762 152.908H47.1273C47.2893 152.717 47.518 152.56 47.8134 152.435C48.1089 152.307 48.4327 152.243 48.785 152.243C49.3134 152.243 49.785 152.368 50.1998 152.618C50.6146 152.865 50.9413 153.206 51.1799 153.641C51.4185 154.075 51.5379 154.572 51.5379 155.132C51.5379 155.709 51.4043 156.223 51.1373 156.675C50.8731 157.124 50.5052 157.477 50.0336 157.736C49.5648 157.991 49.0222 158.119 48.4058 158.119Z" fill="white"/>
<path d="M20.8452 141.364L21.7915 144.226H21.8288L22.7734 141.364H23.4979L22.2159 145H21.4027L20.1225 141.364H20.8452ZM23.769 145H23.0659L24.3461 141.364H25.1593L26.4412 145H25.7381L24.7669 142.109H24.7385L23.769 145ZM23.7921 143.574H25.7097V144.103H23.7921V143.574ZM26.6702 145V141.364H27.3289V144.448H28.9305V145H26.6702ZM29.911 141.364V145H29.2522V141.364H29.911ZM31.6065 145H30.3743V141.364H31.6314C31.9924 141.364 32.3026 141.436 32.5618 141.582C32.8222 141.726 33.0223 141.934 33.1619 142.205C33.3016 142.476 33.3714 142.801 33.3714 143.178C33.3714 143.557 33.301 143.883 33.1602 144.155C33.0205 144.427 32.8187 144.636 32.5547 144.782C32.2919 144.927 31.9759 145 31.6065 145ZM31.033 144.43H31.5746C31.8279 144.43 32.0392 144.384 32.2085 144.292C32.3777 144.198 32.505 144.059 32.5902 143.874C32.6754 143.688 32.718 143.456 32.718 143.178C32.718 142.9 32.6754 142.669 32.5902 142.486C32.505 142.301 32.3789 142.163 32.212 142.072C32.0463 141.98 31.8403 141.934 31.5941 141.934H31.033V144.43ZM34.5778 141.916V141.364H37.479V141.916H36.3551V145H35.7017V141.916H34.5778ZM37.7884 145V141.364H38.4471V142.903H40.1321V141.364H40.7926V145H40.1321V143.455H38.4471V145H37.7884ZM41.2591 145V141.364H42.6227C42.902 141.364 43.1364 141.412 43.3258 141.509C43.5164 141.606 43.6602 141.742 43.7573 141.918C43.8555 142.092 43.9047 142.295 43.9047 142.527C43.9047 142.76 43.8549 142.962 43.7555 143.134C43.6573 143.304 43.5123 143.436 43.3205 143.53C43.1287 143.622 42.8932 143.668 42.6138 143.668H41.6426V143.121H42.525C42.6884 143.121 42.8221 143.099 42.9263 143.054C43.0305 143.008 43.1074 142.941 43.1571 142.853C43.208 142.765 43.2335 142.656 43.2335 142.527C43.2335 142.398 43.208 142.288 43.1571 142.196C43.1062 142.104 43.0287 142.034 42.9245 141.987C42.8204 141.938 42.686 141.914 42.5215 141.914H41.9178V145H41.2591ZM43.1376 143.352L44.0378 145H43.3027L42.4185 143.352H43.1376ZM46.5533 141.364H47.212V143.739C47.212 144 47.1504 144.229 47.0273 144.426C46.9054 144.624 46.7338 144.779 46.5124 144.89C46.2911 145 46.0324 145.055 45.7365 145.055C45.4394 145.055 45.1802 145 44.9588 144.89C44.7375 144.779 44.5658 144.624 44.4439 144.426C44.322 144.229 44.261 144 44.261 143.739V141.364H44.9197V143.684C44.9197 143.836 44.9529 143.971 45.0192 144.089C45.0866 144.208 45.1813 144.3 45.3033 144.368C45.4252 144.434 45.5696 144.467 45.7365 144.467C45.9034 144.467 46.0478 144.434 46.1697 144.368C46.2929 144.3 46.3875 144.208 46.4538 144.089C46.5201 143.971 46.5533 143.836 46.5533 143.684V141.364Z" fill="white"/>
<circle cx="264" cy="165" r="14" fill="#EF4242"/>
<circle cx="282" cy="165" r="14" fill="#FFC737"/>
<mask id="mask0_73_1540" style="mask-type:alpha" maskUnits="userSpaceOnUse" x="250" y="151" width="28" height="28">
<circle cx="264" cy="165" r="14" fill="#B09191"/>
</mask>
<g mask="url(#mask0_73_1540)">
<circle cx="282" cy="165" r="14" fill="#FF7F37"/>
</g>
<defs>
<linearGradient id="paint0_linear_73_1540" x1="79.0002" y1="72.5" x2="19.6523" y2="72.5" gradientUnits="userSpaceOnUse">
<stop stop-color="#FFEDBE"/>
<stop offset="0.9999" stop-color="#FFD467"/>
</linearGradient>
</defs>
</svg>
