<svg width="200" height="315" viewBox="0 0 200 315" fill="none" xmlns="http://www.w3.org/2000/svg">
<rect width="200" height="315" rx="12" fill="#353B72"/>
<circle cx="149" cy="284" r="14" fill="#EF4242"/>
<circle cx="167" cy="284" r="14" fill="#FFC737"/>
<mask id="mask0_73_1548" style="mask-type:alpha" maskUnits="userSpaceOnUse" x="135" y="270" width="28" height="28">
<circle cx="149" cy="284" r="14" fill="#B09191"/>
</mask>
<g mask="url(#mask0_73_1548)">
<circle cx="167" cy="284" r="14" fill="#FF7F37"/>
</g>
<rect x="18" width="28" height="315" fill="#D9D9D9"/>
<path d="M118.933 115.119C118.297 115.119 117.73 115.01 117.233 114.791C116.739 114.57 116.348 114.266 116.061 113.879C115.777 113.49 115.631 113.041 115.622 112.533H117.48C117.491 112.746 117.561 112.933 117.689 113.095C117.82 113.254 117.993 113.378 118.209 113.466C118.425 113.554 118.668 113.598 118.938 113.598C119.219 113.598 119.467 113.548 119.683 113.449C119.899 113.349 120.068 113.212 120.19 113.036C120.313 112.859 120.374 112.656 120.374 112.426C120.374 112.193 120.308 111.987 120.178 111.808C120.05 111.626 119.865 111.484 119.624 111.382C119.385 111.28 119.101 111.229 118.771 111.229H117.957V109.874H118.771C119.05 109.874 119.295 109.825 119.509 109.729C119.724 109.632 119.892 109.499 120.011 109.328C120.131 109.155 120.19 108.953 120.19 108.723C120.19 108.504 120.138 108.312 120.033 108.148C119.93 107.98 119.786 107.849 119.598 107.756C119.413 107.662 119.197 107.615 118.95 107.615C118.7 107.615 118.472 107.661 118.264 107.751C118.057 107.839 117.891 107.966 117.766 108.131C117.641 108.295 117.574 108.489 117.565 108.71H115.797C115.805 108.207 115.949 107.764 116.227 107.381C116.506 106.997 116.881 106.697 117.352 106.482C117.827 106.263 118.362 106.153 118.959 106.153C119.561 106.153 120.088 106.263 120.54 106.482C120.991 106.7 121.342 106.996 121.592 107.368C121.845 107.737 121.97 108.152 121.967 108.612C121.97 109.101 121.818 109.509 121.511 109.835C121.207 110.162 120.811 110.369 120.322 110.457V110.526C120.964 110.608 121.453 110.831 121.788 111.195C122.126 111.555 122.294 112.007 122.291 112.55C122.294 113.047 122.151 113.489 121.861 113.875C121.574 114.261 121.178 114.565 120.672 114.787C120.166 115.009 119.587 115.119 118.933 115.119ZM126.243 115.119C125.607 115.119 125.04 115.01 124.543 114.791C124.049 114.57 123.658 114.266 123.371 113.879C123.087 113.49 122.941 113.041 122.932 112.533H124.79C124.802 112.746 124.871 112.933 124.999 113.095C125.13 113.254 125.303 113.378 125.519 113.466C125.735 113.554 125.978 113.598 126.248 113.598C126.529 113.598 126.777 113.548 126.993 113.449C127.209 113.349 127.378 113.212 127.5 113.036C127.623 112.859 127.684 112.656 127.684 112.426C127.684 112.193 127.618 111.987 127.488 111.808C127.36 111.626 127.175 111.484 126.934 111.382C126.695 111.28 126.411 111.229 126.081 111.229H125.268V109.874H126.081C126.36 109.874 126.606 109.825 126.819 109.729C127.035 109.632 127.202 109.499 127.322 109.328C127.441 109.155 127.5 108.953 127.5 108.723C127.5 108.504 127.448 108.312 127.343 108.148C127.241 107.98 127.096 107.849 126.908 107.756C126.724 107.662 126.508 107.615 126.26 107.615C126.01 107.615 125.782 107.661 125.574 107.751C125.367 107.839 125.201 107.966 125.076 108.131C124.951 108.295 124.884 108.489 124.875 108.71H123.107C123.116 108.207 123.259 107.764 123.537 107.381C123.816 106.997 124.191 106.697 124.662 106.482C125.137 106.263 125.672 106.153 126.269 106.153C126.871 106.153 127.398 106.263 127.85 106.482C128.302 106.7 128.652 106.996 128.902 107.368C129.155 107.737 129.28 108.152 129.277 108.612C129.28 109.101 129.128 109.509 128.822 109.835C128.518 110.162 128.121 110.369 127.633 110.457V110.526C128.275 110.608 128.763 110.831 129.099 111.195C129.437 111.555 129.604 112.007 129.601 112.55C129.604 113.047 129.461 113.489 129.171 113.875C128.884 114.261 128.488 114.565 127.982 114.787C127.476 115.009 126.897 115.119 126.243 115.119ZM130.328 115V113.67L133.434 110.794C133.698 110.538 133.92 110.308 134.099 110.104C134.281 109.899 134.419 109.699 134.512 109.503C134.606 109.304 134.653 109.089 134.653 108.859C134.653 108.604 134.595 108.384 134.478 108.199C134.362 108.011 134.203 107.868 134.001 107.768C133.799 107.666 133.571 107.615 133.315 107.615C133.048 107.615 132.815 107.669 132.616 107.777C132.417 107.885 132.264 108.04 132.156 108.241C132.048 108.443 131.994 108.683 131.994 108.962H130.242C130.242 108.391 130.372 107.895 130.63 107.474C130.889 107.054 131.251 106.729 131.717 106.499C132.183 106.268 132.72 106.153 133.328 106.153C133.953 106.153 134.497 106.264 134.96 106.486C135.426 106.705 135.788 107.009 136.046 107.398C136.305 107.787 136.434 108.233 136.434 108.736C136.434 109.065 136.369 109.391 136.238 109.712C136.11 110.033 135.882 110.389 135.552 110.781C135.223 111.17 134.758 111.638 134.159 112.183L132.885 113.432V113.491H136.549V115H130.328ZM141.083 106.273V115H139.238V108.024H139.187L137.188 109.277V107.641L139.349 106.273H141.083Z" fill="white"/>
<path d="M150.504 106.273V115H148.659V108.024H148.608L146.609 109.277V107.641L148.77 106.273H150.504ZM151.978 115V113.67L155.085 110.794C155.349 110.538 155.571 110.308 155.75 110.104C155.932 109.899 156.069 109.699 156.163 109.503C156.257 109.304 156.304 109.089 156.304 108.859C156.304 108.604 156.246 108.384 156.129 108.199C156.013 108.011 155.853 107.868 155.652 107.768C155.45 107.666 155.221 107.615 154.966 107.615C154.699 107.615 154.466 107.669 154.267 107.777C154.068 107.885 153.915 108.04 153.807 108.241C153.699 108.443 153.645 108.683 153.645 108.962H151.893C151.893 108.391 152.023 107.895 152.281 107.474C152.54 107.054 152.902 106.729 153.368 106.499C153.834 106.268 154.371 106.153 154.978 106.153C155.603 106.153 156.148 106.264 156.611 106.486C157.076 106.705 157.439 107.009 157.697 107.398C157.956 107.787 158.085 108.233 158.085 108.736C158.085 109.065 158.02 109.391 157.889 109.712C157.761 110.033 157.532 110.389 157.203 110.781C156.873 111.17 156.409 111.638 155.809 112.183L154.535 113.432V113.491H158.2V115H151.978ZM162.163 115.119C161.527 115.119 160.96 115.01 160.463 114.791C159.968 114.57 159.578 114.266 159.291 113.879C159.007 113.49 158.86 113.041 158.852 112.533H160.71C160.721 112.746 160.791 112.933 160.919 113.095C161.049 113.254 161.223 113.378 161.438 113.466C161.654 113.554 161.897 113.598 162.167 113.598C162.448 113.598 162.697 113.548 162.913 113.449C163.129 113.349 163.298 113.212 163.42 113.036C163.542 112.859 163.603 112.656 163.603 112.426C163.603 112.193 163.538 111.987 163.407 111.808C163.279 111.626 163.095 111.484 162.853 111.382C162.615 111.28 162.331 111.229 162.001 111.229H161.187V109.874H162.001C162.279 109.874 162.525 109.825 162.738 109.729C162.954 109.632 163.122 109.499 163.241 109.328C163.36 109.155 163.42 108.953 163.42 108.723C163.42 108.504 163.367 108.312 163.262 108.148C163.16 107.98 163.015 107.849 162.828 107.756C162.643 107.662 162.427 107.615 162.18 107.615C161.93 107.615 161.701 107.661 161.494 107.751C161.287 107.839 161.12 107.966 160.995 108.131C160.87 108.295 160.804 108.489 160.795 108.71H159.027C159.035 108.207 159.179 107.764 159.457 107.381C159.735 106.997 160.11 106.697 160.582 106.482C161.056 106.263 161.592 106.153 162.188 106.153C162.791 106.153 163.318 106.263 163.769 106.482C164.221 106.7 164.572 106.996 164.822 107.368C165.075 107.737 165.2 108.152 165.197 108.612C165.2 109.101 165.048 109.509 164.741 109.835C164.437 110.162 164.041 110.369 163.552 110.457V110.526C164.194 110.608 164.683 110.831 165.018 111.195C165.356 111.555 165.524 112.007 165.521 112.55C165.524 113.047 165.38 113.489 165.09 113.875C164.804 114.261 164.407 114.565 163.902 114.787C163.396 115.009 162.816 115.119 162.163 115.119ZM166.115 113.466V112.013L169.759 106.273H171.011V108.284H170.27L167.973 111.919V111.987H173.151V113.466H166.115ZM170.304 115V113.023L170.338 112.379V106.273H172.068V115H170.304Z" fill="white"/>
<path d="M118.933 131.119C118.297 131.119 117.73 131.01 117.233 130.791C116.739 130.57 116.348 130.266 116.061 129.879C115.777 129.49 115.631 129.041 115.622 128.533H117.48C117.491 128.746 117.561 128.933 117.689 129.095C117.82 129.254 117.993 129.378 118.209 129.466C118.425 129.554 118.668 129.598 118.938 129.598C119.219 129.598 119.467 129.548 119.683 129.449C119.899 129.349 120.068 129.212 120.19 129.036C120.313 128.859 120.374 128.656 120.374 128.426C120.374 128.193 120.308 127.987 120.178 127.808C120.05 127.626 119.865 127.484 119.624 127.382C119.385 127.28 119.101 127.229 118.771 127.229H117.957V125.874H118.771C119.05 125.874 119.295 125.825 119.509 125.729C119.724 125.632 119.892 125.499 120.011 125.328C120.131 125.155 120.19 124.953 120.19 124.723C120.19 124.504 120.138 124.312 120.033 124.148C119.93 123.98 119.786 123.849 119.598 123.756C119.413 123.662 119.197 123.615 118.95 123.615C118.7 123.615 118.472 123.661 118.264 123.751C118.057 123.839 117.891 123.966 117.766 124.131C117.641 124.295 117.574 124.489 117.565 124.71H115.797C115.805 124.207 115.949 123.764 116.227 123.381C116.506 122.997 116.881 122.697 117.352 122.482C117.827 122.263 118.362 122.153 118.959 122.153C119.561 122.153 120.088 122.263 120.54 122.482C120.991 122.7 121.342 122.996 121.592 123.368C121.845 123.737 121.97 124.152 121.967 124.612C121.97 125.101 121.818 125.509 121.511 125.835C121.207 126.162 120.811 126.369 120.322 126.457V126.526C120.964 126.608 121.453 126.831 121.788 127.195C122.126 127.555 122.294 128.007 122.291 128.55C122.294 129.047 122.151 129.489 121.861 129.875C121.574 130.261 121.178 130.565 120.672 130.787C120.166 131.009 119.587 131.119 118.933 131.119ZM126.205 131.119C125.603 131.119 125.066 131.009 124.594 130.787C124.125 130.565 123.753 130.26 123.478 129.871C123.202 129.482 123.059 129.036 123.047 128.533H124.837C124.857 128.871 124.999 129.145 125.263 129.355C125.527 129.565 125.841 129.67 126.205 129.67C126.495 129.67 126.75 129.607 126.972 129.479C127.197 129.348 127.371 129.168 127.496 128.938C127.624 128.705 127.688 128.437 127.688 128.136C127.688 127.83 127.623 127.56 127.492 127.327C127.364 127.094 127.187 126.912 126.959 126.781C126.732 126.651 126.472 126.584 126.179 126.581C125.924 126.581 125.675 126.634 125.434 126.739C125.195 126.844 125.009 126.987 124.875 127.169L123.235 126.875L123.648 122.273H128.983V123.781H125.17L124.944 125.967H124.995C125.148 125.751 125.38 125.572 125.689 125.43C125.999 125.288 126.346 125.217 126.729 125.217C127.255 125.217 127.724 125.341 128.135 125.588C128.547 125.835 128.873 126.175 129.111 126.607C129.35 127.036 129.468 127.53 129.465 128.089C129.468 128.678 129.331 129.2 129.056 129.658C128.783 130.112 128.401 130.47 127.91 130.732C127.421 130.99 126.853 131.119 126.205 131.119ZM133.408 131.119C132.751 131.119 132.168 131.013 131.656 130.8C131.148 130.584 130.749 130.29 130.459 129.918C130.169 129.545 130.024 129.124 130.024 128.652C130.024 128.288 130.106 127.955 130.271 127.651C130.439 127.344 130.666 127.089 130.953 126.888C131.24 126.683 131.561 126.553 131.916 126.496V126.436C131.45 126.342 131.072 126.116 130.783 125.759C130.493 125.398 130.348 124.979 130.348 124.501C130.348 124.05 130.48 123.648 130.744 123.295C131.008 122.94 131.371 122.662 131.831 122.46C132.294 122.256 132.82 122.153 133.408 122.153C133.996 122.153 134.52 122.256 134.98 122.46C135.443 122.665 135.807 122.945 136.071 123.3C136.335 123.652 136.469 124.053 136.472 124.501C136.469 124.982 136.321 125.401 136.028 125.759C135.736 126.116 135.361 126.342 134.903 126.436V126.496C135.253 126.553 135.57 126.683 135.854 126.888C136.141 127.089 136.368 127.344 136.535 127.651C136.706 127.955 136.793 128.288 136.795 128.652C136.793 129.124 136.646 129.545 136.356 129.918C136.067 130.29 135.666 130.584 135.155 130.8C134.646 131.013 134.064 131.119 133.408 131.119ZM133.408 129.764C133.7 129.764 133.956 129.712 134.175 129.607C134.393 129.499 134.564 129.351 134.686 129.163C134.811 128.973 134.874 128.754 134.874 128.507C134.874 128.254 134.81 128.031 134.682 127.838C134.554 127.642 134.381 127.489 134.162 127.378C133.943 127.264 133.692 127.207 133.408 127.207C133.126 127.207 132.875 127.264 132.653 127.378C132.432 127.489 132.257 127.642 132.129 127.838C132.004 128.031 131.942 128.254 131.942 128.507C131.942 128.754 132.003 128.973 132.125 129.163C132.247 129.351 132.419 129.499 132.641 129.607C132.862 129.712 133.118 129.764 133.408 129.764ZM133.408 125.865C133.652 125.865 133.869 125.815 134.06 125.716C134.25 125.616 134.399 125.479 134.507 125.303C134.615 125.126 134.669 124.923 134.669 124.693C134.669 124.466 134.615 124.267 134.507 124.097C134.399 123.923 134.251 123.788 134.064 123.692C133.876 123.592 133.658 123.543 133.408 123.543C133.16 123.543 132.942 123.592 132.751 123.692C132.561 123.788 132.412 123.923 132.304 124.097C132.199 124.267 132.146 124.466 132.146 124.693C132.146 124.923 132.2 125.126 132.308 125.303C132.416 125.479 132.565 125.616 132.756 125.716C132.946 125.815 133.163 125.865 133.408 125.865ZM140.643 122.153C141.092 122.153 141.524 122.229 141.939 122.379C142.356 122.53 142.728 122.77 143.055 123.099C143.385 123.429 143.645 123.866 143.835 124.412C144.028 124.955 144.126 125.621 144.129 126.411C144.129 127.152 144.045 127.814 143.878 128.396C143.713 128.976 143.476 129.469 143.166 129.875C142.856 130.281 142.483 130.591 142.045 130.804C141.608 131.014 141.119 131.119 140.579 131.119C139.997 131.119 139.483 131.007 139.037 130.783C138.591 130.555 138.231 130.247 137.959 129.858C137.689 129.466 137.525 129.026 137.468 128.537H139.288C139.359 128.855 139.508 129.102 139.736 129.278C139.963 129.452 140.244 129.538 140.579 129.538C141.147 129.538 141.579 129.291 141.875 128.797C142.17 128.3 142.319 127.619 142.322 126.756H142.263C142.132 127.011 141.956 127.232 141.734 127.416C141.513 127.598 141.258 127.739 140.971 127.838C140.687 127.938 140.385 127.987 140.064 127.987C139.549 127.987 139.091 127.866 138.687 127.625C138.284 127.384 137.966 127.051 137.733 126.628C137.5 126.205 137.383 125.722 137.383 125.179C137.38 124.594 137.515 124.072 137.788 123.615C138.061 123.158 138.441 122.8 138.93 122.541C139.422 122.28 139.993 122.151 140.643 122.153ZM140.656 123.602C140.369 123.602 140.113 123.67 139.889 123.807C139.667 123.943 139.491 124.126 139.361 124.357C139.233 124.587 139.17 124.844 139.173 125.128C139.173 125.415 139.236 125.673 139.361 125.903C139.488 126.131 139.662 126.312 139.88 126.449C140.102 126.582 140.355 126.649 140.639 126.649C140.852 126.649 141.049 126.609 141.231 126.53C141.413 126.45 141.571 126.341 141.704 126.202C141.841 126.06 141.947 125.896 142.024 125.712C142.101 125.527 142.139 125.331 142.139 125.124C142.136 124.848 142.071 124.595 141.943 124.365C141.815 124.135 141.639 123.95 141.414 123.811C141.19 123.672 140.937 123.602 140.656 123.602Z" fill="white"/>
<path d="M150.129 131.192C149.396 131.189 148.766 131.009 148.237 130.651C147.712 130.293 147.307 129.774 147.023 129.095C146.741 128.416 146.602 127.599 146.605 126.645C146.605 125.693 146.746 124.882 147.027 124.212C147.311 123.541 147.716 123.031 148.241 122.682C148.77 122.33 149.399 122.153 150.129 122.153C150.859 122.153 151.487 122.33 152.013 122.682C152.541 123.034 152.947 123.545 153.232 124.216C153.516 124.884 153.656 125.693 153.653 126.645C153.653 127.602 153.511 128.42 153.227 129.099C152.946 129.778 152.543 130.297 152.017 130.655C151.491 131.013 150.862 131.192 150.129 131.192ZM150.129 129.662C150.629 129.662 151.028 129.411 151.327 128.908C151.625 128.405 151.773 127.651 151.77 126.645C151.77 125.983 151.702 125.432 151.565 124.991C151.432 124.551 151.241 124.22 150.994 123.999C150.75 123.777 150.462 123.666 150.129 123.666C149.632 123.666 149.234 123.915 148.936 124.412C148.638 124.909 148.487 125.653 148.484 126.645C148.484 127.315 148.551 127.875 148.685 128.324C148.821 128.77 149.013 129.105 149.26 129.33C149.507 129.551 149.797 129.662 150.129 129.662ZM157.791 131.192C157.058 131.189 156.427 131.009 155.899 130.651C155.373 130.293 154.969 129.774 154.684 129.095C154.403 128.416 154.264 127.599 154.267 126.645C154.267 125.693 154.407 124.882 154.689 124.212C154.973 123.541 155.378 123.031 155.903 122.682C156.432 122.33 157.061 122.153 157.791 122.153C158.521 122.153 159.149 122.33 159.675 122.682C160.203 123.034 160.609 123.545 160.893 124.216C161.177 124.884 161.318 125.693 161.315 126.645C161.315 127.602 161.173 128.42 160.889 129.099C160.608 129.778 160.204 130.297 159.679 130.655C159.153 131.013 158.524 131.192 157.791 131.192ZM157.791 129.662C158.291 129.662 158.69 129.411 158.988 128.908C159.287 128.405 159.434 127.651 159.432 126.645C159.432 125.983 159.363 125.432 159.227 124.991C159.094 124.551 158.903 124.22 158.656 123.999C158.412 123.777 158.123 123.666 157.791 123.666C157.294 123.666 156.896 123.915 156.598 124.412C156.3 124.909 156.149 125.653 156.146 126.645C156.146 127.315 156.213 127.875 156.346 128.324C156.483 128.77 156.675 129.105 156.922 129.33C157.169 129.551 157.459 129.662 157.791 129.662ZM162.031 131V129.67L165.137 126.794C165.402 126.538 165.623 126.308 165.802 126.104C165.984 125.899 166.122 125.699 166.215 125.503C166.309 125.304 166.356 125.089 166.356 124.859C166.356 124.604 166.298 124.384 166.181 124.199C166.065 124.011 165.906 123.868 165.704 123.768C165.502 123.666 165.274 123.615 165.018 123.615C164.751 123.615 164.518 123.669 164.319 123.777C164.12 123.885 163.967 124.04 163.859 124.241C163.751 124.443 163.697 124.683 163.697 124.962H161.946C161.946 124.391 162.075 123.895 162.333 123.474C162.592 123.054 162.954 122.729 163.42 122.499C163.886 122.268 164.423 122.153 165.031 122.153C165.656 122.153 166.2 122.264 166.663 122.486C167.129 122.705 167.491 123.009 167.75 123.398C168.008 123.787 168.137 124.233 168.137 124.736C168.137 125.065 168.072 125.391 167.941 125.712C167.813 126.033 167.585 126.389 167.255 126.781C166.926 127.17 166.461 127.638 165.862 128.183L164.588 129.432V129.491H168.252V131H162.031ZM172.215 131.119C171.579 131.119 171.012 131.01 170.515 130.791C170.021 130.57 169.63 130.266 169.343 129.879C169.059 129.49 168.913 129.041 168.904 128.533H170.762C170.774 128.746 170.843 128.933 170.971 129.095C171.102 129.254 171.275 129.378 171.491 129.466C171.707 129.554 171.95 129.598 172.22 129.598C172.501 129.598 172.749 129.548 172.965 129.449C173.181 129.349 173.35 129.212 173.472 129.036C173.595 128.859 173.656 128.656 173.656 128.426C173.656 128.193 173.59 127.987 173.46 127.808C173.332 127.626 173.147 127.484 172.906 127.382C172.667 127.28 172.383 127.229 172.053 127.229H171.239V125.874H172.053C172.332 125.874 172.577 125.825 172.791 125.729C173.006 125.632 173.174 125.499 173.293 125.328C173.413 125.155 173.472 124.953 173.472 124.723C173.472 124.504 173.42 124.312 173.315 124.148C173.212 123.98 173.068 123.849 172.88 123.756C172.695 123.662 172.479 123.615 172.232 123.615C171.982 123.615 171.754 123.661 171.546 123.751C171.339 123.839 171.173 123.966 171.048 124.131C170.923 124.295 170.856 124.489 170.847 124.71H169.079C169.087 124.207 169.231 123.764 169.509 123.381C169.788 122.997 170.163 122.697 170.634 122.482C171.109 122.263 171.644 122.153 172.241 122.153C172.843 122.153 173.37 122.263 173.822 122.482C174.274 122.7 174.624 122.996 174.874 123.368C175.127 123.737 175.252 124.152 175.249 124.612C175.252 125.101 175.1 125.509 174.793 125.835C174.489 126.162 174.093 126.369 173.604 126.457V126.526C174.247 126.608 174.735 126.831 175.07 127.195C175.408 127.555 175.576 128.007 175.573 128.55C175.576 129.047 175.433 129.489 175.143 129.875C174.856 130.261 174.46 130.565 173.954 130.787C173.448 131.009 172.869 131.119 172.215 131.119Z" fill="white"/>
<path d="M104.001 156.166C103.3 156.166 102.697 155.989 102.195 155.634C101.695 155.276 101.31 154.76 101.04 154.087C100.773 153.411 100.639 152.597 100.639 151.645C100.642 150.693 100.777 149.884 101.044 149.216C101.314 148.545 101.699 148.034 102.199 147.682C102.702 147.33 103.303 147.153 104.001 147.153C104.7 147.153 105.301 147.33 105.804 147.682C106.307 148.034 106.692 148.545 106.959 149.216C107.229 149.886 107.364 150.696 107.364 151.645C107.364 152.599 107.229 153.415 106.959 154.091C106.692 154.764 106.307 155.278 105.804 155.634C105.304 155.989 104.703 156.166 104.001 156.166ZM104.001 154.832C104.547 154.832 104.977 154.564 105.293 154.027C105.611 153.487 105.77 152.693 105.77 151.645C105.77 150.952 105.697 150.369 105.553 149.898C105.408 149.426 105.203 149.071 104.939 148.832C104.675 148.591 104.362 148.47 104.001 148.47C103.459 148.47 103.03 148.74 102.714 149.28C102.399 149.817 102.24 150.605 102.237 151.645C102.234 152.341 102.304 152.926 102.446 153.401C102.591 153.875 102.795 154.233 103.06 154.474C103.324 154.713 103.638 154.832 104.001 154.832ZM108.022 154.381V153.124L111.725 147.273H112.773V149.062H112.134L109.641 153.013V153.081H114.81V154.381H108.022ZM112.185 156V153.997L112.202 153.435V147.273H113.694V156H112.185ZM119.151 146.864L116.339 157.312H114.988L117.8 146.864H119.151ZM119.519 156V154.858L122.548 151.888C122.838 151.595 123.08 151.335 123.273 151.108C123.466 150.881 123.611 150.661 123.707 150.447C123.804 150.234 123.852 150.007 123.852 149.766C123.852 149.49 123.79 149.254 123.665 149.058C123.54 148.859 123.368 148.706 123.149 148.598C122.93 148.49 122.682 148.436 122.403 148.436C122.117 148.436 121.865 148.496 121.649 148.615C121.433 148.732 121.266 148.898 121.146 149.114C121.03 149.33 120.972 149.587 120.972 149.885H119.467C119.467 149.331 119.594 148.849 119.847 148.44C120.1 148.031 120.448 147.714 120.891 147.49C121.337 147.266 121.848 147.153 122.425 147.153C123.01 147.153 123.524 147.263 123.967 147.482C124.411 147.7 124.754 148 124.999 148.381C125.246 148.761 125.369 149.196 125.369 149.685C125.369 150.011 125.307 150.332 125.182 150.648C125.057 150.963 124.837 151.312 124.521 151.696C124.209 152.08 123.77 152.544 123.205 153.089L121.7 154.619V154.679H125.501V156H119.519ZM129.406 156.119C128.838 156.119 128.329 156.013 127.88 155.8C127.431 155.584 127.075 155.288 126.811 154.913C126.549 154.538 126.41 154.109 126.393 153.626H127.927C127.955 153.984 128.11 154.277 128.392 154.504C128.673 154.729 129.011 154.841 129.406 154.841C129.715 154.841 129.991 154.77 130.232 154.628C130.474 154.486 130.664 154.288 130.803 154.036C130.943 153.783 131.011 153.494 131.008 153.17C131.011 152.841 130.941 152.548 130.799 152.293C130.657 152.037 130.463 151.837 130.215 151.692C129.968 151.544 129.684 151.47 129.363 151.47C129.102 151.467 128.845 151.516 128.592 151.615C128.339 151.714 128.139 151.845 127.991 152.007L126.563 151.773L127.019 147.273H132.082V148.594H128.328L128.076 150.908H128.127C128.289 150.717 128.518 150.56 128.813 150.435C129.109 150.307 129.433 150.243 129.785 150.243C130.313 150.243 130.785 150.368 131.2 150.618C131.615 150.865 131.941 151.206 132.18 151.641C132.419 152.075 132.538 152.572 132.538 153.132C132.538 153.709 132.404 154.223 132.137 154.675C131.873 155.124 131.505 155.477 131.034 155.736C130.565 155.991 130.022 156.119 129.406 156.119Z" fill="white"/>
<path d="M158.325 147.273V156H156.744V148.811H156.693L154.652 150.115V148.666L156.821 147.273H158.325ZM163.073 156.119C162.46 156.119 161.914 156.014 161.437 155.804C160.963 155.594 160.588 155.301 160.312 154.926C160.036 154.551 159.89 154.118 159.873 153.626H161.475C161.489 153.862 161.568 154.068 161.71 154.244C161.852 154.418 162.041 154.553 162.276 154.649C162.512 154.746 162.776 154.794 163.069 154.794C163.382 154.794 163.659 154.74 163.9 154.632C164.141 154.521 164.33 154.368 164.467 154.172C164.603 153.976 164.67 153.75 164.667 153.494C164.67 153.23 164.602 152.997 164.463 152.795C164.323 152.594 164.122 152.436 163.857 152.322C163.596 152.209 163.281 152.152 162.911 152.152H162.14V150.933H162.911C163.215 150.933 163.481 150.881 163.708 150.776C163.938 150.67 164.119 150.523 164.249 150.332C164.38 150.139 164.444 149.916 164.441 149.663C164.444 149.416 164.389 149.202 164.275 149.02C164.164 148.835 164.007 148.692 163.802 148.589C163.6 148.487 163.363 148.436 163.09 148.436C162.823 148.436 162.576 148.484 162.349 148.581C162.122 148.678 161.938 148.815 161.799 148.994C161.66 149.17 161.586 149.381 161.578 149.625H160.056C160.068 149.136 160.208 148.707 160.478 148.338C160.751 147.966 161.114 147.676 161.569 147.469C162.024 147.259 162.534 147.153 163.099 147.153C163.681 147.153 164.187 147.263 164.616 147.482C165.048 147.697 165.382 147.989 165.617 148.355C165.853 148.722 165.971 149.126 165.971 149.57C165.974 150.061 165.829 150.473 165.536 150.805C165.247 151.138 164.866 151.355 164.394 151.457V151.526C165.008 151.611 165.478 151.838 165.805 152.207C166.134 152.574 166.298 153.03 166.295 153.575C166.295 154.064 166.156 154.501 165.877 154.888C165.602 155.271 165.221 155.572 164.735 155.791C164.252 156.01 163.698 156.119 163.073 156.119ZM167.158 156V154.858L170.187 151.888C170.477 151.595 170.719 151.335 170.912 151.108C171.105 150.881 171.25 150.661 171.347 150.447C171.443 150.234 171.491 150.007 171.491 149.766C171.491 149.49 171.429 149.254 171.304 149.058C171.179 148.859 171.007 148.706 170.788 148.598C170.57 148.49 170.321 148.436 170.043 148.436C169.756 148.436 169.504 148.496 169.288 148.615C169.072 148.732 168.905 148.898 168.785 149.114C168.669 149.33 168.611 149.587 168.611 149.885H167.106C167.106 149.331 167.233 148.849 167.486 148.44C167.739 148.031 168.087 147.714 168.53 147.49C168.976 147.266 169.487 147.153 170.064 147.153C170.649 147.153 171.163 147.263 171.606 147.482C172.05 147.7 172.393 148 172.638 148.381C172.885 148.761 173.008 149.196 173.008 149.685C173.008 150.011 172.946 150.332 172.821 150.648C172.696 150.963 172.476 151.312 172.16 151.696C171.848 152.08 171.409 152.544 170.844 153.089L169.339 154.619V154.679H173.141V156H167.158Z" fill="white"/>
<path d="M87.5909 151H86.3587V147.364H87.6158C87.9768 147.364 88.2869 147.436 88.5462 147.582C88.8066 147.726 89.0066 147.934 89.1463 148.205C89.286 148.476 89.3558 148.801 89.3558 149.178C89.3558 149.557 89.2854 149.883 89.1445 150.155C89.0049 150.427 88.803 150.636 88.5391 150.782C88.2763 150.927 87.9602 151 87.5909 151ZM87.0174 150.43H87.5589C87.8123 150.43 88.0236 150.384 88.1928 150.292C88.3621 150.198 88.4893 150.059 88.5746 149.874C88.6598 149.688 88.7024 149.456 88.7024 149.178C88.7024 148.9 88.6598 148.669 88.5746 148.486C88.4893 148.301 88.3633 148.163 88.1964 148.072C88.0307 147.98 87.8247 147.934 87.5785 147.934H87.0174V150.43ZM90.0034 151H89.3002L90.5804 147.364H91.3936L92.6756 151H91.9725L91.0012 148.109H90.9728L90.0034 151ZM90.0265 149.574H91.9441V150.103H90.0265V149.574ZM92.3053 147.916V147.364H95.2066V147.916H94.0827V151H93.4292V147.916H92.3053ZM95.5159 151V147.364H97.8809V147.916H96.1746V148.903H97.7584V149.455H96.1746V150.448H97.8952V151H95.5159Z" fill="white"/>
<path d="M145.52 150.053C145.248 150.053 145.014 149.993 144.819 149.874C144.624 149.754 144.475 149.589 144.369 149.379C144.265 149.167 144.213 148.923 144.213 148.647C144.213 148.37 144.266 148.126 144.373 147.914C144.479 147.701 144.63 147.535 144.824 147.417C145.019 147.297 145.25 147.237 145.516 147.237C145.738 147.237 145.934 147.278 146.104 147.36C146.276 147.44 146.412 147.554 146.514 147.702C146.616 147.849 146.674 148.021 146.688 148.217H146.074C146.049 148.086 145.99 147.976 145.896 147.889C145.804 147.8 145.68 147.756 145.525 147.756C145.394 147.756 145.278 147.791 145.179 147.862C145.08 147.932 145.002 148.033 144.946 148.164C144.892 148.295 144.865 148.453 144.865 148.636C144.865 148.822 144.892 148.982 144.946 149.116C145.001 149.248 145.077 149.351 145.175 149.423C145.275 149.494 145.391 149.529 145.525 149.529C145.62 149.529 145.705 149.512 145.779 149.476C145.855 149.44 145.918 149.387 145.969 149.318C146.02 149.25 146.055 149.166 146.074 149.068H146.688C146.673 149.261 146.616 149.432 146.518 149.581C146.42 149.729 146.286 149.845 146.116 149.929C145.947 150.012 145.748 150.053 145.52 150.053ZM149.402 147.273L148.431 150H147.721L146.749 147.273H147.435L148.062 149.299H148.09L148.718 147.273H149.402ZM150.694 150.053C150.421 150.053 150.188 149.993 149.992 149.874C149.798 149.754 149.648 149.589 149.543 149.379C149.439 149.167 149.387 148.923 149.387 148.647C149.387 148.37 149.44 148.126 149.547 147.914C149.653 147.701 149.804 147.535 149.998 147.417C150.193 147.297 150.424 147.237 150.69 147.237C150.912 147.237 151.107 147.278 151.278 147.36C151.45 147.44 151.586 147.554 151.688 147.702C151.79 147.849 151.848 148.021 151.862 148.217H151.248C151.223 148.086 151.164 147.976 151.07 147.889C150.978 147.8 150.854 147.756 150.699 147.756C150.568 147.756 150.452 147.791 150.353 147.862C150.253 147.932 150.176 148.033 150.12 148.164C150.066 148.295 150.039 148.453 150.039 148.636C150.039 148.822 150.066 148.982 150.12 149.116C150.175 149.248 150.251 149.351 150.349 149.423C150.449 149.494 150.565 149.529 150.699 149.529C150.794 149.529 150.878 149.512 150.953 149.476C151.029 149.44 151.092 149.387 151.143 149.318C151.194 149.25 151.229 149.166 151.248 149.068H151.862C151.847 149.261 151.79 149.432 151.692 149.581C151.593 149.729 151.46 149.845 151.29 149.929C151.121 150.012 150.922 150.053 150.694 150.053Z" fill="white"/>
<path d="M94.799 91V83.7273H95.8963V86.8878H99.522V83.7273H100.623V91H99.522V87.8288H95.8963V91H94.799ZM108.038 87.3636C108.038 88.1402 107.896 88.8078 107.612 89.3665C107.328 89.9228 106.939 90.3513 106.444 90.652C105.951 90.9503 105.392 91.0994 104.764 91.0994C104.134 91.0994 103.572 90.9503 103.077 90.652C102.585 90.3513 102.197 89.9216 101.913 89.3629C101.629 88.8042 101.487 88.1378 101.487 87.3636C101.487 86.5871 101.629 85.9207 101.913 85.3643C102.197 84.8056 102.585 84.3771 103.077 84.0788C103.572 83.7782 104.134 83.6278 104.764 83.6278C105.392 83.6278 105.951 83.7782 106.444 84.0788C106.939 84.3771 107.328 84.8056 107.612 85.3643C107.896 85.9207 108.038 86.5871 108.038 87.3636ZM106.952 87.3636C106.952 86.7718 106.856 86.2734 106.664 85.8686C106.475 85.4614 106.214 85.1536 105.883 84.9453C105.554 84.7346 105.181 84.6293 104.764 84.6293C104.345 84.6293 103.971 84.7346 103.642 84.9453C103.313 85.1536 103.053 85.4614 102.861 85.8686C102.671 86.2734 102.577 86.7718 102.577 87.3636C102.577 87.9555 102.671 88.455 102.861 88.8622C103.053 89.267 103.313 89.5748 103.642 89.7855C103.971 89.9938 104.345 90.098 104.764 90.098C105.181 90.098 105.554 89.9938 105.883 89.7855C106.214 89.5748 106.475 89.267 106.664 88.8622C106.856 88.455 106.952 87.9555 106.952 87.3636ZM114.776 83.7273V91H113.768L110.071 85.6662H110.004V91H108.906V83.7273H109.922L113.622 89.0682H113.69V83.7273H114.776ZM120.799 86.0249C120.73 85.8094 120.638 85.6165 120.522 85.446C120.408 85.2732 120.272 85.1264 120.114 85.0057C119.955 84.8826 119.774 84.7891 119.57 84.7251C119.369 84.6612 119.148 84.6293 118.906 84.6293C118.497 84.6293 118.127 84.7346 117.798 84.9453C117.469 85.156 117.209 85.465 117.017 85.8722C116.828 86.277 116.733 86.773 116.733 87.3601C116.733 87.9496 116.829 88.4479 117.021 88.8551C117.212 89.2623 117.475 89.5713 117.809 89.782C118.143 89.9927 118.523 90.098 118.949 90.098C119.344 90.098 119.689 90.0175 119.982 89.8565C120.278 89.6955 120.507 89.4683 120.668 89.1747C120.831 88.8788 120.913 88.5308 120.913 88.1307L121.197 88.1839H119.116V87.2784H121.974V88.1058C121.974 88.7166 121.844 89.2469 121.584 89.6967C121.326 90.1442 120.968 90.4898 120.511 90.7337C120.057 90.9775 119.536 91.0994 118.949 91.0994C118.291 91.0994 117.713 90.9479 117.216 90.6449C116.721 90.3419 116.335 89.9122 116.058 89.3558C115.781 88.7971 115.643 88.1342 115.643 87.3672C115.643 86.7872 115.723 86.2663 115.884 85.8047C116.045 85.343 116.271 84.9512 116.562 84.6293C116.856 84.3049 117.201 84.0575 117.596 83.8871C117.994 83.7143 118.428 83.6278 118.899 83.6278C119.292 83.6278 119.658 83.6858 119.996 83.8018C120.337 83.9179 120.64 84.0824 120.906 84.2955C121.173 84.5085 121.394 84.7618 121.57 85.0554C121.745 85.3466 121.863 85.6697 121.925 86.0249H120.799ZM129.936 86.0249C129.867 85.8094 129.775 85.6165 129.659 85.446C129.545 85.2732 129.409 85.1264 129.25 85.0057C129.092 84.8826 128.911 84.7891 128.707 84.7251C128.506 84.6612 128.284 84.6293 128.043 84.6293C127.633 84.6293 127.264 84.7346 126.935 84.9453C126.606 85.156 126.346 85.465 126.154 85.8722C125.964 86.277 125.87 86.773 125.87 87.3601C125.87 87.9496 125.966 88.4479 126.157 88.8551C126.349 89.2623 126.612 89.5713 126.946 89.782C127.279 89.9927 127.659 90.098 128.086 90.098C128.481 90.098 128.825 90.0175 129.119 89.8565C129.415 89.6955 129.643 89.4683 129.804 89.1747C129.968 88.8788 130.049 88.5308 130.049 88.1307L130.333 88.1839H128.252V87.2784H131.111V88.1058C131.111 88.7166 130.981 89.2469 130.721 89.6967C130.462 90.1442 130.105 90.4898 129.648 90.7337C129.194 90.9775 128.673 91.0994 128.086 91.0994C127.427 91.0994 126.85 90.9479 126.353 90.6449C125.858 90.3419 125.472 89.9122 125.195 89.3558C124.918 88.7971 124.779 88.1342 124.779 87.3672C124.779 86.7872 124.86 86.2663 125.021 85.8047C125.182 85.343 125.408 84.9512 125.699 84.6293C125.993 84.3049 126.337 84.0575 126.733 83.8871C127.13 83.7143 127.565 83.6278 128.036 83.6278C128.429 83.6278 128.795 83.6858 129.133 83.8018C129.474 83.9179 129.777 84.0824 130.042 84.2955C130.31 84.5085 130.531 84.7618 130.706 85.0554C130.882 85.3466 131 85.6697 131.061 86.0249H129.936ZM133.101 83.7273V91H132.004V83.7273H133.101ZM134.199 91V83.7273H135.297V90.0554H138.592V91H134.199ZM143.845 91H141.49V83.7273H143.919C144.632 83.7273 145.244 83.8729 145.755 84.1641C146.267 84.4529 146.658 84.8684 146.931 85.4105C147.205 85.9503 147.343 86.5978 147.343 87.353C147.343 88.1106 147.204 88.7616 146.927 89.3061C146.653 89.8506 146.255 90.2696 145.734 90.5632C145.213 90.8544 144.583 91 143.845 91ZM142.588 90.0412H143.784C144.338 90.0412 144.799 89.937 145.166 89.7287C145.533 89.518 145.807 89.2138 145.99 88.8161C146.172 88.416 146.263 87.9283 146.263 87.353C146.263 86.7824 146.172 86.2983 145.99 85.9006C145.81 85.5028 145.541 85.201 145.184 84.995C144.826 84.7891 144.382 84.6861 143.852 84.6861H142.588V90.0412ZM154.525 87.3636C154.525 88.1402 154.383 88.8078 154.099 89.3665C153.814 89.9228 153.425 90.3513 152.93 90.652C152.438 90.9503 151.878 91.0994 151.251 91.0994C150.621 91.0994 150.059 90.9503 149.564 90.652C149.071 90.3513 148.683 89.9216 148.399 89.3629C148.115 88.8042 147.973 88.1378 147.973 87.3636C147.973 86.5871 148.115 85.9207 148.399 85.3643C148.683 84.8056 149.071 84.3771 149.564 84.0788C150.059 83.7782 150.621 83.6278 151.251 83.6278C151.878 83.6278 152.438 83.7782 152.93 84.0788C153.425 84.3771 153.814 84.8056 154.099 85.3643C154.383 85.9207 154.525 86.5871 154.525 87.3636ZM153.438 87.3636C153.438 86.7718 153.342 86.2734 153.15 85.8686C152.961 85.4614 152.701 85.1536 152.369 84.9453C152.04 84.7346 151.667 84.6293 151.251 84.6293C150.831 84.6293 150.457 84.7346 150.128 84.9453C149.799 85.1536 149.539 85.4614 149.347 85.8686C149.158 86.2734 149.063 86.7718 149.063 87.3636C149.063 87.9555 149.158 88.455 149.347 88.8622C149.539 89.267 149.799 89.5748 150.128 89.7855C150.457 89.9938 150.831 90.098 151.251 90.098C151.667 90.098 152.04 89.9938 152.369 89.7855C152.701 89.5748 152.961 89.267 153.15 88.8622C153.342 88.455 153.438 87.9555 153.438 87.3636ZM161.263 83.7273V91H160.254L156.558 85.6662H156.49V91H155.393V83.7273H156.408L160.109 89.0682H160.176V83.7273H161.263ZM167.285 86.0249C167.217 85.8094 167.124 85.6165 167.008 85.446C166.895 85.2732 166.759 85.1264 166.6 85.0057C166.441 84.8826 166.26 84.7891 166.057 84.7251C165.855 84.6612 165.634 84.6293 165.393 84.6293C164.983 84.6293 164.614 84.7346 164.285 84.9453C163.956 85.156 163.695 85.465 163.503 85.8722C163.314 86.277 163.219 86.773 163.219 87.3601C163.219 87.9496 163.315 88.4479 163.507 88.8551C163.699 89.2623 163.961 89.5713 164.295 89.782C164.629 89.9927 165.009 90.098 165.435 90.098C165.831 90.098 166.175 90.0175 166.469 89.8565C166.765 89.6955 166.993 89.4683 167.154 89.1747C167.317 88.8788 167.399 88.5308 167.399 88.1307L167.683 88.1839H165.602V87.2784H168.461V88.1058C168.461 88.7166 168.331 89.2469 168.07 89.6967C167.812 90.1442 167.455 90.4898 166.998 90.7337C166.543 90.9775 166.022 91.0994 165.435 91.0994C164.777 91.0994 164.199 90.9479 163.702 90.6449C163.207 90.3419 162.822 89.9122 162.545 89.3558C162.268 88.7971 162.129 88.1342 162.129 87.3672C162.129 86.7872 162.21 86.2663 162.371 85.8047C162.532 85.343 162.758 84.9512 163.049 84.6293C163.342 84.3049 163.687 84.0575 164.082 83.8871C164.48 83.7143 164.914 83.6278 165.385 83.6278C165.778 83.6278 166.144 83.6858 166.483 83.8018C166.824 83.9179 167.127 84.0824 167.392 84.2955C167.659 84.5085 167.881 84.7618 168.056 85.0554C168.231 85.3466 168.349 85.6697 168.411 86.0249H167.285Z" fill="white"/>
<path d="M97.8047 275.641V277.859H98.7891V278.578H97.8047V280.914H96.9375V275.641H97.8047ZM96.4297 276.422V277.117H92.2422V276.422H93.9062V275.633H94.7734V276.422H96.4297ZM94.3359 277.406C95.3516 277.406 96.0547 277.945 96.0625 278.758C96.0547 279.562 95.3516 280.094 94.3359 280.094C93.3125 280.094 92.6016 279.562 92.6016 278.758C92.6016 277.945 93.3125 277.406 94.3359 277.406ZM94.3359 278.078C93.7969 278.078 93.4453 278.328 93.4453 278.758C93.4453 279.18 93.7969 279.43 94.3359 279.422C94.875 279.43 95.2344 279.18 95.2344 278.758C95.2344 278.328 94.875 278.078 94.3359 278.078ZM98.0859 281.852V282.555H93.2812V280.5H94.1484V281.852H98.0859ZM104.412 275.953V276.492C104.412 277.02 104.412 277.625 104.264 278.414H105.202V279.117H102.397V280.219H104.428V282.695H103.561V280.914H99.4047V280.219H101.53V279.117H98.7484V278.414H103.389C103.53 277.691 103.545 277.141 103.545 276.648H99.5453V275.953H104.412ZM108.934 276.328C108.934 278.461 108.348 280.289 105.747 281.586L105.27 280.93C106.493 280.324 107.22 279.621 107.63 278.781L105.434 278.992L105.325 278.242L107.895 278.078C107.985 277.75 108.04 277.402 108.067 277.031H105.692V276.328H108.934ZM110.794 275.633V278.398H111.841V279.109H110.794V282.68H109.927V275.633H110.794ZM117.511 278.945V279.641H112.558V276.25H117.456V276.953H113.417V278.945H117.511ZM118.23 281.078V281.797H111.777V281.078H118.23Z" fill="white"/>
<path d="M97.8047 285.641V287.859H98.7891V288.578H97.8047V290.914H96.9375V285.641H97.8047ZM96.4297 286.422V287.117H92.2422V286.422H93.9062V285.633H94.7734V286.422H96.4297ZM94.3359 287.406C95.3516 287.406 96.0547 287.945 96.0625 288.758C96.0547 289.562 95.3516 290.094 94.3359 290.094C93.3125 290.094 92.6016 289.562 92.6016 288.758C92.6016 287.945 93.3125 287.406 94.3359 287.406ZM94.3359 288.078C93.7969 288.078 93.4453 288.328 93.4453 288.758C93.4453 289.18 93.7969 289.43 94.3359 289.422C94.875 289.43 95.2344 289.18 95.2344 288.758C95.2344 288.328 94.875 288.078 94.3359 288.078ZM98.0859 291.852V292.555H93.2812V290.5H94.1484V291.852H98.0859ZM104.412 285.953V286.492C104.412 287.02 104.412 287.625 104.264 288.414H105.202V289.117H102.397V290.219H104.428V292.695H103.561V290.914H99.4047V290.219H101.53V289.117H98.7484V288.414H103.389C103.53 287.691 103.545 287.141 103.545 286.648H99.5453V285.953H104.412ZM111.7 289.281V289.977H105.262V289.281H111.7ZM110.973 291.852V292.555H106.059V290.5H106.927V291.852H110.973ZM108.473 285.859C110.012 285.859 111.012 286.398 111.02 287.289C111.012 288.188 110.012 288.734 108.473 288.734C106.934 288.734 105.927 288.188 105.927 287.289C105.927 286.398 106.934 285.859 108.473 285.859ZM108.473 286.555C107.45 286.555 106.825 286.82 106.833 287.289C106.825 287.766 107.45 288.031 108.473 288.023C109.505 288.031 110.122 287.766 110.122 287.289C110.122 286.82 109.505 286.555 108.473 286.555ZM117.816 285.633V290.07H116.987V288.148H116.3V289.836H115.487V285.773H116.3V287.445H116.987V285.633H117.816ZM115.253 286.398V287.078H111.737V286.398H113.073V285.695H113.933V286.398H115.253ZM113.503 287.367C114.402 287.367 115.034 287.852 115.042 288.586C115.034 289.32 114.402 289.805 113.503 289.805C112.62 289.805 111.98 289.32 111.987 288.586C111.98 287.852 112.62 287.367 113.503 287.367ZM113.503 287.992C113.066 287.992 112.761 288.219 112.761 288.586C112.761 288.953 113.058 289.18 113.503 289.18C113.948 289.18 114.253 288.953 114.253 288.586C114.253 288.219 113.948 287.992 113.503 287.992ZM115.433 290.156C116.941 290.156 117.847 290.617 117.855 291.43C117.847 292.227 116.941 292.688 115.433 292.688C113.925 292.688 113.011 292.227 113.011 291.43C113.011 290.617 113.925 290.156 115.433 290.156ZM115.433 290.82C114.425 290.812 113.878 291.016 113.878 291.43C113.878 291.82 114.425 292.023 115.433 292.023C116.433 292.023 116.98 291.82 116.98 291.43C116.98 291.016 116.433 290.812 115.433 290.82Z" fill="white"/>
</svg>
