<svg width="315" height="193" viewBox="0 0 315 193" fill="none" xmlns="http://www.w3.org/2000/svg">
<rect x="315" width="193" height="315" rx="12" transform="rotate(90 315 0)" fill="#5C5C5C"/>
<rect y="27" width="315" height="38" fill="#D9D9D9"/>
<rect x="25" y="77" width="175" height="23" fill="white"/>
<path d="M174.164 87.9297V95H173.275V88.8477H173.236L171.518 89.9902V89.1016L173.275 87.9297H174.164ZM177.854 95.0977C176.574 95.0977 175.607 94.3066 175.559 93.2227H176.408C176.477 93.8574 177.092 94.3262 177.854 94.3262C178.771 94.3262 179.436 93.6523 179.436 92.7637C179.436 91.8457 178.742 91.1719 177.795 91.1621C177.199 91.1523 176.74 91.3379 176.477 91.7969H175.627L176.125 87.9297H179.953V88.7109H176.857L176.594 90.7812H176.662C176.975 90.5371 177.453 90.3711 177.951 90.3711C179.299 90.3711 180.295 91.3672 180.295 92.7441C180.295 94.1113 179.26 95.0977 177.854 95.0977ZM183.457 95.0977C182.051 95.0977 181.045 94.3457 180.996 93.2227H181.885C181.934 93.8965 182.607 94.3164 183.447 94.3164C184.375 94.3164 185.059 93.8086 185.059 93.0762C185.059 92.3047 184.443 91.7578 183.34 91.7578H182.764V90.9863H183.34C184.199 90.9863 184.795 90.5078 184.795 89.7754C184.795 89.0723 184.277 88.5938 183.477 88.5938C182.725 88.5938 182.031 89.0137 181.992 89.707H181.143C181.191 88.584 182.227 87.832 183.486 87.832C184.834 87.832 185.654 88.7109 185.645 89.7266C185.654 90.5273 185.186 91.123 184.443 91.3281V91.377C185.361 91.5234 185.928 92.1777 185.918 93.0762C185.928 94.2383 184.863 95.0977 183.457 95.0977Z" fill="#767676"/>
</svg>
