<svg width="200" height="315" viewBox="0 0 200 315" fill="none" xmlns="http://www.w3.org/2000/svg">
<rect width="200" height="315" rx="12" fill="#723535"/>
<rect x="107" y="87.3478" width="46.3478" height="30.4571" rx="8" transform="rotate(-90 107 87.3478)" fill="url(#paint0_linear_73_1543)"/>
<mask id="path-3-inside-1_73_1543" fill="white">
<path d="M107 53.5801H137.457V74.7677H107V53.5801Z"/>
</mask>
<path d="M107 55.5801H137.457V51.5801H107V55.5801ZM137.457 72.7677H107V76.7677H137.457V72.7677Z" fill="#FFBE17" mask="url(#path-3-inside-1_73_1543)"/>
<mask id="path-5-inside-2_73_1543" fill="white">
<path d="M116.562 76.1428C112.144 76.1428 108.562 72.5611 108.562 68.1428V60.7142C108.562 56.296 112.144 52.7143 116.562 52.7143H127.114C131.533 52.7143 135.114 56.296 135.114 60.7143V68.1428C135.114 72.5611 131.533 76.1428 127.114 76.1428H116.562Z"/>
</mask>
<path d="M110.562 68.1428V60.7142H106.562V68.1428H110.562ZM116.562 54.7143H127.114V50.7143H116.562V54.7143ZM133.114 60.7143V68.1428H137.114V60.7143H133.114ZM127.114 74.1428H116.562V78.1428H127.114V74.1428ZM133.114 68.1428C133.114 71.4565 130.428 74.1428 127.114 74.1428V78.1428C132.637 78.1428 137.114 73.6657 137.114 68.1428H133.114ZM127.114 54.7143C130.428 54.7143 133.114 57.4005 133.114 60.7143H137.114C137.114 55.1914 132.637 50.7143 127.114 50.7143V54.7143ZM110.562 60.7142C110.562 57.4005 113.248 54.7143 116.562 54.7143V50.7143C111.039 50.7143 106.562 55.1914 106.562 60.7142H110.562ZM106.562 68.1428C106.562 73.6657 111.039 78.1428 116.562 78.1428V74.1428C113.248 74.1428 110.562 71.4565 110.562 68.1428H106.562Z" fill="#FFBE17" mask="url(#path-5-inside-2_73_1543)"/>
<mask id="path-7-inside-3_73_1543" fill="white">
<path d="M117.594 87.3478V41H126.863V87.3478H117.594Z"/>
</mask>
<path d="M119.594 87.3478V41H115.594V87.3478H119.594ZM124.863 41V87.3478H128.863V41H124.863Z" fill="#FFBE17" mask="url(#path-7-inside-3_73_1543)"/>
<path d="M128 27L122 21L116 27" stroke="#33363F" stroke-width="2"/>
<defs>
<linearGradient id="paint0_linear_73_1543" x1="153.348" y1="102.576" x2="107" y2="102.576" gradientUnits="userSpaceOnUse">
<stop stop-color="#FFEDBE"/>
<stop offset="0.9999" stop-color="#FFD467"/>
</linearGradient>
</defs>
</svg>
